<?xml version="1.0" encoding="UTF-8"?>
<svg xmlns="http://www.w3.org/2000/svg" viewBox="0 0 120.59 120.59">
  <defs>
    <style>
      .cls-1 {
        fill: #e5dbd1;
      }

      .cls-1, .cls-2 {
        stroke: #603813;
      }

      .cls-1, .cls-2, .cls-3 {
        stroke-miterlimit: 10;
        stroke-width: 4px;
      }

      .cls-2 {
        fill: #fff;
      }

      .cls-3 {
        fill: #fffc80;
        stroke: #ffda00;
      }

      .cls-4 {
        fill: #999;
      }

      .cls-5 {
        fill: #ff4040;
      }

      .cls-6 {
        fill: #4040ff;
      }
    </style>
  </defs>
  <g id="feuille">
    <path class="cls-1" d="m82.2,2.42H23.59c-2.07,0-3.76,1.69-3.76,3.76v88.34c0,2.07,1.69,3.76,3.76,3.76h74.88c.45,0,.87-.1,1.27-.25,1.66-.63,2.7-2.29,2.67-4.06l-.85-69.27c0-.18-.08-.35-.21-.47-2.08-1.84-17.05-19.04-18.61-21.51-.12-.19-.32-.3-.55-.3Z"/>
    <path class="cls-2" d="m84.85,23.98h15.83c.77,0,1.17-.91.65-1.48L83.29,2.71c-.54-.6-1.54-.21-1.54.6v17.58c0,1.7,1.39,3.1,3.1,3.1Z"/>
  </g>
  <g id="line">
    <path class="cls-4" d="m34.59,36.56h51.73c1.93,0,1.93-3,0-3h-51.73c-1.93,0-1.93,3,0,3h0Z"/>
    <path class="cls-4" d="m34.59,45.04h51.73c1.93,0,1.93-3,0-3h-51.73c-1.93,0-1.93,3,0,3h0Z"/>
    <path class="cls-4" d="m34.59,53.52h51.73c1.93,0,1.93-3,0-3h-51.73c-1.93,0-1.93,3,0,3h0Z"/>
    <path class="cls-4" d="m34.59,62.01h51.73c1.93,0,1.93-3,0-3h-51.73c-1.93,0-1.93,3,0,3h0Z"/>
    <path class="cls-4" d="m67.16,70.49h19.17c1.93,0,1.93-3,0-3h-19.17c-1.93,0-1.93,3,0,3h0Z"/>
    <path class="cls-4" d="m67.16,78.97h19.17c1.93,0,1.93-3,0-3h-19.17c-1.93,0-1.93,3,0,3h0Z"/>
  </g>
  <g id="cocarde">
    <path class="cls-6" d="m24.27,112.47l8.19-3.65.94,8.91c.17,1.66,2.4,2.24,3.26.81,0-.01.01-.02.02-.03l14.57-25.23c.63-1.08.25-2.48-.83-3.11l-10.77-6.22c-1.08-.63-2.48-.25-3.11.83l-14.57,25.23s-.01.02-.02.03c-.81,1.46.81,3.1,2.33,2.42Z"/>
    <path class="cls-5" d="m63.24,112.47l-8.19-3.65-.94,8.91c-.17,1.66-2.4,2.24-3.26.81,0-.01-.01-.02-.02-.03l-14.57-25.23c-.63-1.08-.25-2.48.83-3.11l10.77-6.22c1.08-.63,2.48-.25,3.11.83l14.57,25.23s.01.02.02.03c.81,1.46-.81,3.1-2.33,2.42Z"/>
    <circle class="cls-3" cx="43.75" cy="87.47" r="16.28"/>
  </g>
</svg>