<?xml version="1.0" encoding="UTF-8"?>
<svg xmlns="http://www.w3.org/2000/svg" viewBox="0 0 120.59 125.97">
  <defs>
    <style>
      .cls-1 {
        fill: #fff;
        stroke: #000;
        stroke-miterlimit: 10;
        stroke-width: 4px;
      }
    </style>
  </defs>
  <g id="feuille">
    <path class="cls-1" d="m82.2,2H23.59c-2.07,0-3.76,1.69-3.76,3.76v88.34c0,2.07,1.69,3.76,3.76,3.76h74.88c.45,0,.87-.1,1.27-.25,1.66-.63,2.7-2.29,2.67-4.06l-.85-69.27c0-.18-.08-.35-.21-.47-2.08-1.84-17.05-19.04-18.61-21.51-.12-.19-.32-.3-.55-.3Z"/>
    <path class="cls-1" d="m84.85,23.56h15.83c.77,0,1.17-.91.65-1.48L83.29,2.29c-.54-.6-1.54-.21-1.54.6v17.58c0,1.7,1.39,3.1,3.1,3.1Z"/>
  </g>
  <g id="line">
    <path d="m34.59,36.15h51.73c1.93,0,1.93-3,0-3h-51.73c-1.93,0-1.93,3,0,3h0Z"/>
    <path d="m34.59,44.63h51.73c1.93,0,1.93-3,0-3h-51.73c-1.93,0-1.93,3,0,3h0Z"/>
    <path d="m34.59,53.11h51.73c1.93,0,1.93-3,0-3h-51.73c-1.93,0-1.93,3,0,3h0Z"/>
    <path d="m34.59,61.59h51.73c1.93,0,1.93-3,0-3h-51.73c-1.93,0-1.93,3,0,3h0Z"/>
    <path d="m67.16,70.07h19.17c1.93,0,1.93-3,0-3h-19.17c-1.93,0-1.93,3,0,3h0Z"/>
    <path d="m67.16,78.55h19.17c1.93,0,1.93-3,0-3h-19.17c-1.93,0-1.93,3,0,3h0Z"/>
  </g>
  <g id="cocarde">
    <path class="cls-1" d="m24.2,117.08l8.25-3.67.94,8.98c.18,1.69,2.41,2.17,3.27.71h0s14.57-25.23,14.57-25.23c.63-1.08.25-2.48-.83-3.11l-10.77-6.22c-1.08-.63-2.48-.25-3.11.83l-14.57,25.23h0c-.84,1.48.7,3.17,2.25,2.48Z"/>
    <path class="cls-1" d="m63.33,117.1l-8.28-3.69-.94,8.98c-.18,1.69-2.41,2.17-3.27.71h0s-14.57-25.23-14.57-25.23c-.63-1.08-.25-2.48.83-3.11l10.77-6.22c1.08-.63,2.48-.25,3.11.83l14.57,25.23.02.03c.83,1.47-.69,3.15-2.23,2.46Z"/>
    <circle class="cls-1" cx="43.75" cy="92.06" r="16.28"/>
  </g>
</svg>