<?xml version="1.0" encoding="UTF-8"?>
<svg id="Calque_2" data-name="Calque 2" xmlns="http://www.w3.org/2000/svg" viewBox="0 0 124.16 124.16">
  <defs>
    <style>
      .cls-1 {
        fill: #ff5e1f;
      }
    </style>
  </defs>
  <polygon class="cls-1" points="87.3 34.68 66.71 13.61 72.31 9.42 87.3 34.68"/>
  <path d="m65.58,118.89l-7-7.82v-37.55l-33.75,17.93,2.94-8.44c9.13-26.15,31.53-40.09,32.48-40.67l5.33-3.26v22.79l1.12-.6c1.5-.93,12.08-8,6.37-20.01-1.32-2.77-6.81-8.73-14.69-15.93l-.36-.33c-2.83-2.58-6.04-5.5-6.53-10.28-.31-3.03.89-6.94,2.68-8.73,2.18-2.18,4.8-3.28,7.54-3.21,4.97.14,8.6,4.05,8.99,4.5l.19.23,1.42,1.89-5.6,4.19-1.3-1.74c-.58-.6-2.32-2.04-3.91-2.08-.51-.02-1.29.09-2.32,1.11-.32.47-.83,2.05-.72,3.12.21,2.01,1.76,3.52,4.28,5.82l.37.34c9.02,8.25,14.5,14.33,16.29,18.09,6.92,14.55-2.98,25.38-9.17,29.06l-.15.08-4.49,2.39v49.09Zm-7-66.68c-5.51,4.45-14.14,12.64-20.27,24.14l20.27-10.77v-13.38Z"/>
</svg>