<?xml version="1.0" encoding="UTF-8"?>
<svg xmlns="http://www.w3.org/2000/svg" viewBox="0 0 125.17 125.17">
  <defs>
    <style>
      .cls-1 {
        fill: #fff;
      }

      .cls-2 {
        fill: #e57751;
      }

      .cls-3 {
        fill: #98c3d8;
      }

      .cls-4 {
        fill: #f98755;
      }

      .cls-5 {
        fill: #a6eeff;
      }

      .cls-6 {
        fill: #ff8e55;
      }

      .cls-7 {
        fill: #c0f2ff;
      }

      .cls-8 {
        fill: #ffa780;
      }
    </style>
  </defs>
  <g id="hublot">
    <g>
      <circle class="cls-7" cx="62.59" cy="46.53" r="43.79"/>
      <path class="cls-3" d="m62.59,3.73c23.6,0,42.79,19.2,42.79,42.79s-19.2,42.79-42.79,42.79-42.79-19.2-42.79-42.79S38.99,3.73,62.59,3.73m0-2c-24.74,0-44.79,20.06-44.79,44.79s20.06,44.79,44.79,44.79,44.79-20.06,44.79-44.79S87.33,1.73,62.59,1.73h0Z"/>
    </g>
    <g>
      <path class="cls-3" d="m16.83,56.31c-.53,0-.95-.43-.95-.95v-16.14c0-.53.43-.95.95-.95s.95.43.95.95v16.14c0,.53-.43.95-.95.95Z"/>
      <path class="cls-3" d="m16.83,37.27c-1.07,0-1.95.88-1.95,1.95v16.14c0,1.07.88,1.95,1.95,1.95s1.95-.88,1.95-1.95v-16.14c0-1.07-.88-1.95-1.95-1.95h0Z"/>
    </g>
    <g>
      <path class="cls-3" d="m107.38,56.31c-.53,0-.95-.43-.95-.95v-16.14c0-.53.43-.95.95-.95s.95.43.95.95v16.14c0,.53-.43.95-.95.95Z"/>
      <path class="cls-3" d="m107.38,37.27c-1.07,0-1.95.88-1.95,1.95v16.14c0,1.07.88,1.95,1.95,1.95s1.95-.88,1.95-1.95v-16.14c0-1.07-.88-1.95-1.95-1.95h0Z"/>
    </g>
    <circle class="cls-5" cx="62.22" cy="47.22" r="35.43"/>
    <g>
      <path class="cls-1" d="m49.14,15.73c.33-.15.65-.32.98-.46l-.36.15c.37-.16.78-.25,1.17-.37s.7-.35.9-.69c.11-.17.17-.36.18-.56.04-.2.04-.4-.03-.6-.12-.36-.34-.71-.69-.9s-.77-.27-1.16-.15c-.37.11-.75.21-1.11.35-.47.18-.93.42-1.39.63-.17.09-.32.22-.42.39-.13.14-.22.31-.27.51-.06.2-.07.4-.03.6,0,.2.07.39.18.56.21.32.51.6.9.69l.4.05c.27,0,.52-.07.76-.2h0Z"/>
      <path class="cls-1" d="m36.13,69.79c-5.61-6.19-8.78-14.29-8.78-22.65,0-7.59,2.6-15.13,7.38-21.04,2.64-3.26,5.84-5.99,9.47-8.1,1.67-.97.16-3.57-1.51-2.59-7.07,4.13-12.58,10.47-15.68,18.05-3.32,8.11-3.52,17.46-.63,25.72,1.66,4.73,4.27,9.03,7.63,12.74,1.3,1.43,3.42-.69,2.12-2.12h0Z"/>
    </g>
  </g>
  <g id="pieuvre">
    <path class="cls-2" d="m34.24,94.24s6.39-1.55,8.95-2.4c1.05-.35,1.76-1.34,1.72-2.45l.15-.61h5.31l-.08,1.77s.45,3.75-2.93,3.69h-13.12Z"/>
    <path class="cls-2" d="m90.47,94.24s-6.39-1.55-8.95-2.4c-1.05-.35-1.76-1.34-1.72-2.45l-.15-.61h-5.31s.08,1.77.08,1.77c0,0-.45,3.75,2.93,3.69h13.12Z"/>
    <g>
      <path class="cls-6" d="m36.9,115.97s4.39-.55,6.95-1.4c1.05-.35,1.76-1.34,1.72-2.45l-.78-27.44h6.15l-1,27.6s.45,3.75-2.93,3.69h-10.12Z"/>
      <path class="cls-6" d="m41.41,119.41s4.39-.55,6.95-1.4c1.05-.35,2.11-1.53,2.07-2.64l-.14-27.44,6.16.19-2,27.6s.45,3.75-2.93,3.69h-10.12Z"/>
      <path class="cls-6" d="m45.73,123.22s5.3-1.55,7.87-2.4c1.05-.35,1.76-1.34,1.72-2.45l-.11-26.44h8.48l-2,27.6s-.55,3.75-3.93,3.69h-12.03Z"/>
    </g>
    <g>
      <path class="cls-6" d="m87.85,115.78s-4.39-.55-6.95-1.4c-1.05-.35-1.76-1.34-1.72-2.45l.78-27.44h-6.15s1,27.6,1,27.6c0,0-.45,3.75,2.93,3.69h10.12Z"/>
      <path class="cls-6" d="m82.95,119.22s-4.39-.55-6.95-1.4c-1.05-.35-1.76-1.34-1.72-2.45l.11-27.44h-6.48s2,27.6,2,27.6c0,0-.45,3.75,2.93,3.69h10.12Z"/>
      <path class="cls-6" d="m78.63,123.03s-5.3-1.55-7.87-2.4c-1.05-.35-1.76-1.34-1.72-2.45l.11-26.44h-8.48s2,27.6,2,27.6c0,0,.55,3.75,3.93,3.69h12.03Z"/>
    </g>
    <path class="cls-6" d="m79.54,94.98l-34.46-.17-1.67-55.43c0-10.56,8.38-19.2,18.62-19.2h1.01c10.24,0,18.62,8.64,18.62,19.2l-2.12,55.6Z"/>
    <path class="cls-4" d="m81.51,39.26c0,9.74-10.36,19.5-10.08,16.5,3.32-36.59-8.99-35.57-8.99-35.57,11.36-.07,19.07,8.54,19.07,19.07Z"/>
    <g id="yeux">
      <g>
        <circle class="cls-2" cx="47.98" cy="52.3" r="12.47"/>
        <circle class="cls-1" cx="47.98" cy="52.3" r="10.43"/>
        <circle cx="47.98" cy="50.3" r="3"/>
      </g>
      <g>
        <circle class="cls-2" cx="77.75" cy="52.9" r="12.47"/>
        <circle class="cls-1" cx="77.75" cy="52.9" r="10.43"/>
        <circle cx="77.75" cy="50.9" r="3"/>
      </g>
    </g>
    <g id="bouche">
      <path d="m55.79,73.58c1.87,2.4,3.94,6.73,6.7,7.35,1.37-.06,2.24-1.47,3.16-2.49,1.13-1.42,2.19-3.01,3.43-4.59-.04,2.03-.53,3.98-1.39,5.84-4.82,9.52-12.1,1.21-11.9-6.11h0Z"/>
      <path class="cls-1" d="m55.2,71.76c2.31,1.59,4.99,4.66,7.36,4.95,2.24-.29,5.02-3.45,7.31-4.95-.34,3.99-2.8,8.69-7.37,8.95-4.54-.35-7-4.92-7.3-8.95h0Z"/>
    </g>
    <circle class="cls-8" cx="53.2" cy="30.36" r="3"/>
  </g>
</svg>