<?xml version="1.0" encoding="UTF-8"?>
<svg id="forme" xmlns="http://www.w3.org/2000/svg" viewBox="0 0 124.37 124.37">
  <defs>
    <style>
      .cls-1 {
        fill: #ef420c;
      }
    </style>
  </defs>
  <path class="cls-1" d="m119.13,56.53L67.84,5.24c-3.11-3.11-8.2-3.11-11.31,0l-10.69,10.69,13.8,13.8c.89-.29,1.85-.46,2.84-.46,5.02,0,9.09,4.07,9.09,9.09,0,.99-.16,1.94-.46,2.84l13.34,13.34c.86-.27,1.77-.41,2.71-.41,5.02,0,9.09,4.07,9.09,9.09s-4.07,9.09-9.09,9.09-9.09-4.07-9.09-9.09c0-1.05.19-2.06.52-3l-12.38-12.38v31.69c3.16,1.42,5.35,4.59,5.35,8.28,0,5.02-4.07,9.09-9.09,9.09s-9.09-4.07-9.09-9.09c0-3.69,2.2-6.85,5.35-8.28v-32.89c-3.16-1.42-5.35-4.59-5.35-8.28,0-1,.17-1.97.47-2.87l-13.79-13.79L5.24,56.53c-3.11,3.11-3.11,8.2,0,11.31l51.29,51.29c3.11,3.11,8.2,3.11,11.31,0l51.29-51.29c3.11-3.11,3.11-8.2,0-11.31Z"/>
</svg>