<?xml version="1.0" encoding="UTF-8"?>
<svg xmlns="http://www.w3.org/2000/svg" viewBox="0 0 121.27 121.27">
  <defs>
    <style>
      .cls-1, .cls-2 {
        fill: #fff;
      }

      .cls-3 {
        fill: #66a038;
      }

      .cls-4 {
        fill: #759731;
      }

      .cls-2 {
        stroke: #759731;
        stroke-miterlimit: 10;
      }
    </style>
  </defs>
  <g id="cup">
    <path class="cls-3" d="m119.16,31.89c-.03-1.96-1.65-3.52-3.6-3.47-8.45.23-29.99.8-40.76.89v28.52h-3.22v-28.51c-12.23-.03-45.96-1-45.96-1,0,0,0,0,0,0-4.09-.38-12.62-.37-18.52,5.08C2.34,37.81.46,44.48,1.51,53.3c.03.23,3.45,23.19,32.17,23.96,7.05,14.47,16.34,21.28,18.63,22.81.33.22.71.34,1.11.34h39.49c.37,0,.73-.1,1.05-.3,3.66-2.28,25.95-18.23,25.2-68.22ZM9.44,52.31c-.72-6.07.31-10.44,3.06-13,3.82-3.56,10.24-3.25,12.8-2.97-.12,13.16,1.91,23.97,4.95,32.68-18.41-2.14-20.73-16.15-20.81-16.71Z"/>
  </g>
  <g id="tea">
    <path class="cls-1" d="m74.8,57.84v-28.52c-.94,0-1.81.01-2.57.01-.2,0-.43,0-.65,0v28.51h3.22Z"/>
    <rect class="cls-2" x="54.66" y="53.38" width="32.59" height="32.59" rx="3.14" ry="3.14" transform="translate(40.88 -25.11) rotate(27.92)"/>
    <circle class="cls-4" cx="69.25" cy="60.64" r="3.15"/>
    <circle class="cls-4" cx="61.71" cy="75.48" r="3.15"/>
    <circle class="cls-4" cx="73.66" cy="80.9" r="3.15"/>
    <polygon class="cls-4" points="61.92 73.09 63.52 73.88 73.99 53.01 72.39 52.23 61.92 73.09"/>
    <path class="cls-4" d="m75.51,79.77l-1.67-1.11s2.49-3.74,5.11-7.91c.74-1.19,1.01-2.2.77-2.92-.25-.76-1.03-1.08-1.04-1.08l-.16-.07-7.95-4.67,1.01-1.72,7.89,4.64c.39.16,1.63.79,2.13,2.25.46,1.34.14,2.9-.96,4.65-2.63,4.19-5.11,7.92-5.13,7.96Z"/>
  </g>
</svg>