<?xml version="1.0" encoding="UTF-8"?>
<svg xmlns="http://www.w3.org/2000/svg" viewBox="0 0 532.75 113.12">
  <defs>
    <style>
      .cls-1 {
        fill: none;
        stroke: gray;
        stroke-miterlimit: 10;
        stroke-width: 6px;
      }

      .cls-2 {
        fill: #004e7a;
      }
    </style>
  </defs>
  <g id="text">
    <path class="cls-2" d="m16.81,29.94h9.28v53.25h-9.28V29.94Zm4.93,22.74h32.1v8.39H21.74v-8.39Zm26.55-22.74h9.28v53.25h-9.28V29.94Z"/>
    <path class="cls-2" d="m79.13,83.18h-10.37V29.94h10.37v53.25Z"/>
    <path class="cls-2" d="m86.74,29.9h10.37v53.28h-10.37V29.9Zm4.3,22.92h21.75c1.45,0,2.73-.3,3.84-.9,1.11-.6,1.97-1.45,2.58-2.55.61-1.1.93-2.38.95-3.85,0-1.44-.3-2.71-.91-3.81s-1.47-1.95-2.58-2.54-2.41-.9-3.88-.9h-21.75v-8.39h22.05c3.56,0,6.68.65,9.38,1.94,2.69,1.29,4.78,3.13,6.27,5.49,1.49,2.37,2.24,5.1,2.24,8.2s-.75,5.87-2.24,8.24c-1.49,2.37-3.59,4.2-6.29,5.49-2.71,1.29-5.82,1.94-9.35,1.94h-22.05v-8.39Zm15.24,6.74l10.76-1.68,16.58,25.31h-12.46l-14.89-23.62Z"/>
    <path class="cls-2" d="m151.56,82.98c-2.51-.5-4.86-1.24-7.06-2.22-2.2-.98-4.21-2.18-6.03-3.63l4.95-6.99c2.18,1.73,4.64,3.05,7.35,3.94,2.72.89,5.6,1.34,8.64,1.34,3.8,0,6.74-.63,8.83-1.9s3.14-3.06,3.14-5.38v-.04c0-1.64-.47-2.94-1.4-3.9-.94-.96-2.16-1.67-3.67-2.12-1.51-.45-3.45-.87-5.81-1.26-.08-.02-.16-.04-.24-.04s-.16-.01-.23-.04l-.7-.11c-3.8-.59-6.92-1.28-9.36-2.09s-4.52-2.25-6.24-4.32c-1.72-2.07-2.57-5.02-2.57-8.83v-.04c0-3.37.81-6.25,2.42-8.64,1.61-2.39,3.95-4.21,7.02-5.46s6.76-1.87,11.08-1.87c2.03,0,4.06.21,6.1.64s4.04,1.05,6.01,1.87c1.96.82,3.87,1.84,5.71,3.06l-4.52,7.21c-2.18-1.46-4.41-2.58-6.67-3.33-2.26-.76-4.47-1.14-6.63-1.14-3.59,0-6.36.62-8.33,1.85s-2.94,2.97-2.94,5.22v.04c0,1.68.51,3.02,1.52,3.99,1.01.98,2.28,1.69,3.8,2.14,1.52.45,3.65.93,6.38,1.45.1.02.2.04.29.06s.19.03.29.05c.13.02.27.05.43.07.16.02.3.05.43.07,3.51.66,6.44,1.45,8.8,2.38,2.35.93,4.32,2.42,5.91,4.47s2.38,4.85,2.38,8.39v.07c0,3.32-.83,6.17-2.5,8.53-1.67,2.37-4.08,4.17-7.26,5.4-3.17,1.23-6.99,1.85-11.47,1.85-2.73,0-5.35-.25-7.86-.75Z"/>
    <path class="cls-2" d="m199.77,81.33c-3.35-1.6-5.93-3.89-7.72-6.87-1.8-2.98-2.7-6.51-2.7-10.58v-14.61c0-4.08.9-7.6,2.7-10.58,1.8-2.98,4.37-5.27,7.72-6.88s7.3-2.42,11.84-2.42c3.77,0,7.18.68,10.25,2.05,3.06,1.37,5.61,3.34,7.64,5.91,2.03,2.58,3.41,5.62,4.16,9.14h-10.61c-.52-1.71-1.34-3.2-2.46-4.49-1.12-1.28-2.45-2.26-3.99-2.95-1.54-.68-3.2-1.03-4.98-1.03-2.39,0-4.45.46-6.19,1.37-1.74.92-3.08,2.22-4.03,3.9-.95,1.68-1.42,3.67-1.42,5.97v14.61c0,2.29.48,4.29,1.42,5.97.95,1.68,2.29,2.98,4.03,3.88,1.74.9,3.8,1.35,6.19,1.35,1.81,0,3.49-.33,5.03-.99,1.54-.66,2.87-1.62,3.99-2.89,1.12-1.27,1.93-2.79,2.42-4.58h10.61c-.78,3.52-2.18,6.56-4.21,9.14-2.03,2.58-4.57,4.55-7.64,5.91-3.06,1.37-6.46,2.05-10.2,2.05-4.54,0-8.49-.8-11.84-2.4Z"/>
    <path class="cls-2" d="m240.42,29.94h9.67v53.25h-9.67V29.94Zm5.14,22.74h33.45v8.39h-33.45v-8.39Zm27.67-22.74h9.67v53.25h-9.67V29.94Z"/>
    <path class="cls-2" d="m332.08,29.94h14.04v53.25h-9.62v-40.61l.43,2.34-13.66,38.6h-8.25l-13.66-37.87.43-3.08v40.61h-9.62V29.94h14.04l12.93,37.52,12.93-37.52Z"/>
    <path class="cls-2" d="m369.61,29.94h12.37l20,53.25h-12.41l-13.77-39.66-13.77,39.66h-12.41l20-53.25Zm-7.58,31.75h28.02v11.39h-28.02v-11.39Z"/>
    <path class="cls-2" d="m406.15,29.94h10.73l25.85,40.98-.99.95V29.94h9.58v53.21h-10.82l-25.76-40.36.99-.95v41.31h-9.58V29.94Z"/>
    <path class="cls-2" d="m459.29,29.94h10.32l24.85,40.98-.95.95V29.94h9.21v53.21h-10.4l-24.77-40.36.95-.95v41.31h-9.21V29.94Z"/>
  </g>
  <g id="trait">
    <line class="cls-1" x1="16.81" y1="97.98" x2="502.71" y2="97.98"/>
  </g>
</svg>