<?xml version="1.0" encoding="UTF-8"?>
<svg xmlns="http://www.w3.org/2000/svg" viewBox="0 0 116.9 135.16">
  <defs>
    <style>
      .cls-1 {
        fill: #004966;
      }

      .cls-2 {
        fill: #f2e5ce;
      }

      .cls-3 {
        fill: #020202;
      }

      .cls-4 {
        fill: #f3ddaf;
      }

      .cls-5 {
        fill: #1c6b93;
      }

      .cls-6 {
        fill: #ccc;
      }

      .cls-7 {
        fill: #020101;
      }

      .cls-8 {
        fill: #00ede6;
      }

      .cls-9 {
        fill: #666;
      }

      .cls-10 {
        fill: red;
      }
    </style>
  </defs>
  <g id="coloration">
    <path class="cls-4" d="m108.42,57.69c0,26.04-21.05,53.51-30.01,53.51-5.58,0-43.2-1.82-46.22-15.64s-11.49-16.91-14.79-21.5c-5.1-7.1-5.43-14.67,1.5-19.56,3.57-2.52,9.7-.35,14.44,6.8,1.05,1.58,3.08-3.06,2.89-3.61-1.68-4.69-.61-12.12.42-18.55.64-3.98-.74-7.82-.32-11.39.39-3.28,4.77-6.11,6.42-7.95,8.01-8.9,17.76-11.13,29.07-11.13,19.94,0,36.6,22.98,36.6,49.02Z"/>
    <path class="cls-5" d="m51.94,114.6s-10.93-2.1-19.46-14.76c0,0-24.61,10.11-27.48,16.6l4.45,11.89h46.56s-4.08-11.58-4.08-13.74Z"/>
    <path class="cls-10" d="m97.83,111.39c-.41-2.28-4.09-7.82-4.09-7.82l-16.53,8.23c0-.11,0-.18,0-.18l-22.83-5.3-.92,11.63,3.78,11.38s9.92-.7,17.97-8.45c.34-.32.62-.84.85-1.47l20.97,2.38s1.2-8.12.79-10.4Z"/>
    <path class="cls-6" d="m31.21,55.75l-14.37-2.34.51-18.03,11.07-5.49,6.64-.95s1.6,10.19-.57,17.33c-.5,1.66.03,3.46.26,5.18l1.32,9.84h-2.71l-2.13-5.54Z"/>
    <path class="cls-6" d="m22.68,29.25s3.56-7.61,13.48-12.72c10.62-5.47,13.48-3.94,13.48-3.94,0,0-6.73,6.78-8.39,8.64-1.99,2.23-6.21,7.72-6.21,7.72l-12.36.31Z"/>
    <path class="cls-5" d="m97.04,94.89l15.96,14.28-4.58,19.17h-8.21l-3.17-6.55s3.14-8.29,0-17.36c0,0-5.45-2.09-7.65-.44l7.65-9.1Z"/>
    <path class="cls-8" d="m88.45,128.34v-5.68s8.02-4.4,10.56,4.74l-10.56.94Z"/>
    <path class="cls-9" d="m19.67,53.37s-4.51-19.84,16.38-21.03l-1.55,17.68,1.55,11.28-3.83.9s-1.02-10.94-12.55-8.82Z"/>
    <path class="cls-9" d="m27.66,29.12s5.84-10.99,21.1-14.25c0,0-13.46,10.75-13.71,14.07l-7.39.18Z"/>
    <path class="cls-6" d="m52.96,110.74c-2.96,1.03-13.8-3.76-13.8-3.76,1.23,2.2,12.78,6.35,12.78,6.35l1.02-2.59Z"/>
    <path class="cls-1" d="m13.63,127.4s-1.76-8.31-2.91-8.8c0,0,21.71-11.19,30.62-8.96l11.61,5.09s1.81,12.63,3.05,13.61l-42.38-.94Z"/>
    <path class="cls-1" d="m97.04,107.5s8.03-.3,15.17,4.96l-3.79,15.88h-8.21l-3.17-6.55s2.22-13.95,0-14.29"/>
    <path class="cls-2" d="m36.97,41.02S49.65,5.37,90.11,14.87c0,0-14.96-8.99-28.13-6.57,0,0-15.51,6.03-18.73,10.69l-8.2,9.96,1.93,12.08Z"/>
    <path class="cls-2" d="m49.74,40.3s-2.31-5.24,3.05-11.05c0,0,8.29-5.94,11.68,2.53,0,0-11.34-1.14-14.74,8.51"/>
    <path class="cls-2" d="m91.89,32.61s4.58-4.22,11.53-2.22c0,0-.6-5.04-2.19-5.59,0,0-11.12-1.78-9.34,7.82"/>
    <path class="cls-2" d="m69.53,51.54c-2.94,1.38-7.97.99-8.09-1.52s1.84-5.74,5.18-5.56,5.2,6,2.91,7.08Z"/>
    <path class="cls-2" d="m101.53,49.41c-2.66,1.06-6.2,2.07-7.15.23s2.96-5.63,5.83-5.86c.95-.07,2.64,5.1,1.32,5.63Z"/>
    <path class="cls-2" d="m77.11,72.82c.56-2.37,5.33-2.77,5.33-2.77.18-5.64-1.9-4.54-1.9-4.54,0,0-1.89.55-2.59,3.61l-.84,3.7"/>
    <path class="cls-2" d="m67.6,80.9s-4.99-6.87-5.62,5.09c0,0,1.7-6.9,5.62-5.09Z"/>
    <path class="cls-2" d="m32.2,76.17s6.2,25.72,11.89,29.53c0,0-9.67-1.37-11.51-7.7l-5.53-17.75,5.15-4.09"/>
    <path class="cls-2" d="m30.55,57.8s-16.39-4.53-13.15,16.26c0,0-6.08-10.16-.57-18.3,0,0,8.1-6.59,13.72,2.04Z"/>
  </g>
  <g id="tracé">
    <path class="cls-7" d="m20.97,59.02c.45-.25.89-.51,1.43-.5.45,0,.91,0,1.36,0,.17.04.35.06.51.12.53.2,1.1.3,1.56.67.33.27.71.47,1.07.7.2.2.4.4.6.6.06.11.12.23.18.34.07.08.14.16.21.24.17.25.34.49.5.74.13.27.25.54.38.81.07.14.14.28.2.42.09.4.18.8.27,1.2,0,.12,0,.24,0,.36,0,.08,0,.16,0,.24.03.08.07.16.1.25,0,.58,0,1.17.01,1.75-.05.23-.09.45-.14.68-.04,0-.08.02-.12.03-.08,0-.16-.02-.24-.03-.09-.08-.17-.16-.26-.23-.04-.08-.08-.15-.11-.23l-.1-.13c-.05-.08-.1-.16-.14-.24-.07-.08-.13-.16-.2-.25-.05-.04-.09-.09-.14-.13,0-.08-.01-.16-.02-.24-.03-.04-.06-.08-.09-.11-.01-.04-.02-.09-.03-.13-.03-.04-.06-.08-.09-.12h-.05c-.03-.11-.06-.24-.08-.37-.04-.04-.08-.08-.12-.11-.04-.12-.07-.23-.11-.35-.16-.34-.29-.7-.49-1.01-.29-.47-.53-1-1.12-1.2-.09-.03-.17-.07-.26-.1,0,0,0-.03,0-.03-.24-.16-.49-.16-.73,0,0,0,0,.03,0,.03-.11.04-.22.08-.34.11-.17.13-.34.26-.51.39-.03.03-.06.06-.09.09-.01.04-.02.08-.03.12-.03.04-.06.09-.09.13,0,0-.02.04-.02.04-.05.07-.09.13-.14.2-.03.04-.06.08-.09.13-.12.53-.24,1.05-.36,1.58-.04.2-.09.41-.13.61,0,.12,0,.24,0,.36,0,1.52,0,3.03-.01,4.55-.08.02-.16.04-.25.06-.16-.24-.32-.48-.49-.72-.01-.04-.03-.08-.04-.12l-.09-.12s0,0,0,0l-.4-1.09s-.01-.08-.02-.13c-.02-.04-.05-.08-.07-.12-.06-.32-.11-.63-.18-.95-.05-.25-.12-.5-.18-.76.01-.58.03-1.17.03-1.75,0-.31-.02-.61-.03-.92.23-.22.07-.49.09-.73.04-.2.08-.41.12-.61.04-.11.08-.22.13-.33.15-.38.31-.75.43-1.13.02-.06-.11-.16-.17-.25-.32-.19-.65-.21-.98,0-.08.04-.16.08-.24.12-.08.05-.16.09-.23.14,0,0,0,0,0,0-.04.04-.07.08-.11.11-.13.12-.26.24-.39.36-.04.04-.08.08-.12.12-.12.12-.25.25-.37.37-.04.04-.08.07-.12.11-.04,0-.08,0-.11.04-.07-.01-.15-.03-.23-.04.12-.54.24-1.04.36-1.54.12-.2.24-.41.36-.61.03-.04.05-.09.08-.13.01-.04.03-.08.04-.12.09-.13.18-.25.27-.38.16-.15.32-.31.47-.46.16-.12.32-.24.48-.37Z"/>
    <path class="cls-3" d="m95.34,52.19s.08,0,.13-.01c.04-.03.08-.06.12-.09.16,0,.32-.01.48-.02.2-.04.41-.09.61-.13.08,0,.16,0,.24,0,.2-.04.41-.08.61-.12.24,0,.48,0,.73,0,.29-.03.57-.06.86-.1l.24-.02c.28,0,.57,0,.85,0,.43-.11.86-.22,1.29-.35.22-.06.44-.15.69-.24-.35-.91-.66-1.77-1.02-2.61-.5-1.17-.85-2.38-1.09-3.63-.18-.95-.07-1.88-.14-2.85.16,0,.28-.01.39-.02.05.12.11.24.16.37.03.04.05.08.08.12.08.16.16.33.23.49.01.04.03.08.04.12.03.05.06.09.08.14.08.16.16.31.24.47.12.28.24.57.37.85.08.16.15.33.23.49.02.08.03.16.05.23.03.04.06.08.1.13h0c.04.08.08.16.13.24.08.16.16.33.23.49.01.04.03.08.04.12.03.05.06.09.09.14.16.32.32.64.48.96.31.63.73,1.46.61,1.21.02.04.03.08.05.12.03.05.05.09.08.14.08.16.15.32.23.47.3.52.59,1.05.89,1.57.07.09.13.17.2.26.14.24.28.48.42.72.03.04.06.09.09.13,0,.04,0,.08.03.11-.01.07-.02.15-.03.22-.04.05-.07.09-.11.14,0,0,0,0,0,0-.03.04-.06.08-.09.12-.09.12-.18.24-.28.36-.08.08-.15.17-.23.25-.05.08-.09.15-.14.23l-.24.12c-.12.12-.25.24-.37.36-.08.04-.16.09-.23.13,0,0,0,0,0,0-.04.04-.08.08-.12.12,0,0,0,0,0,0-.08.04-.16.08-.24.12,0,0,0,0,0,0-.04.04-.09.08-.13.11-.48.21-.96.42-1.45.64-.04.03-.09.06-.13.09,0,0,0,0,0,0-.04,0-.08.02-.11.03-.28.08-.57.16-.85.24-.04.03-.09.06-.13.09,0,0,0,0,0,0-.08.01-.15.03-.23.04-.04,0-.08,0-.12,0-.04.03-.09.06-.13.09,0,0,0,0,0,0l-.24.04c-.16.04-.33.08-.49.12-.53,0-1.05,0-1.58,0-.7-.09-1.35-.36-1.86-.81-.41-.35-.69-.85-.79-1.41-.06-.32-.09-.64-.14-.96.03-.03.04-.06.04-.1.03-.04.06-.09.09-.13.08-.05.16-.1.24-.15Z"/>
    <path d="m64.7,5.37c.24,0,.48,0,.72,0,.87,0,1.73,0,2.6,0,.24,0,.48-.01.72-.02.24.02.48.04.72.06.25.03.49.07.74.1.36,0,.72.02,1.08.03.21.03.41.06.62.1.24,0,.48.01.72.02.16.03.33.07.49.1.16,0,.32-.02.48-.03.04.01.08.03.12.04.13.04.25.07.38.11.16,0,.32.01.48.02.12.03.25.07.37.1.16,0,.32.02.48.03.12.03.25.06.37.1.12,0,.24.02.36.03.12.03.25.06.37.1.04,0,.08-.02.12-.03.04.01.08.03.12.04.12.04.25.07.37.11.08,0,.16.02.24.02.12.03.25.06.37.1.28.05.56.1.84.15.08.03.17.07.25.1.4.09.81.18,1.21.27.08.03.17.07.25.1.69.21,1.39.41,2.08.62,1.46.44,3.76,1.37,5.12,2.07s2.62,1.43,3.77,2.39c1.07.89,2.14,1.8,3.2,2.71.37.31.72.64,1.08.96l.61.66,2.04,2.01.22.19s0,.04,0,.04c0,0,.04,0,.04,0,.02.03.05.05.07.08.58.66,1.17,1.31,1.75,1.97.65.74,1.68,1.99,2.27,2.78.37.5.73,1,1.1,1.5.04.04.07.08.11.12.28.5.57,1,.85,1.51.06.1.11.21.17.31.06.3.1.61.43.76.13.35.27.71.4,1.06.03.04.06.08.1.13h0c.04.08.08.16.13.24.17.48.34.97.51,1.45.03.04.06.09.09.13.22.69.44,1.37.66,2.06.02.04.05.08.07.12l.12.6s.05.08.08.12l.08.37s.06.09.08.13c.04.24.09.47.13.71.03.04.05.08.08.12.05.28.11.57.16.85.03.04.05.08.08.12.01.12.03.24.04.36.03.04.05.08.08.12.05.16.19.31.07.49.03.04.06.09.1.13,0,.12,0,.23,0,.35.02.04.05.08.07.12.02.2.05.41.07.61.03.04.06.08.1.13.1.6.19,1.19.29,1.79.04.25.07.51.1.76.03.05.06.09.09.14.08.65.17,1.3.24,1.95.03.34,0,.69.03,1.04.01.17.09.34.1.51.13,1.3.28,2.59.37,3.9.21,3.4.17,6.79-.02,10.19-.04.74-.15,1.48-.22,2.22-.01.16,0,.32.01.48-.24.16-.1.4-.12.6,0,.24,0,.49,0,.73-.24.11-.1.31-.12.48-.01.32-.02.65-.03.97-.03.08-.06.16-.09.25l-.15,1.7c-.03.08-.06.16-.1.25-.05.49-.1.97-.14,1.46-.03.08-.07.16-.1.24,0,.16-.01.32-.02.49-.03.08-.07.16-.1.24-.2,1.18-.4,2.35-.6,3.53-.02.04,0,.08.02.11-.09.41-.19.82-.28,1.22-.04.08-.08.16-.11.24,0,.04,0,.08.01.12-.01.04,0,.08.02.11-.02.08-.04.16-.06.24-.03.04-.06.09-.1.13-.08.37-.15.73-.23,1.1-.02.04-.01.08.02.12-.15.57-.3,1.14-.46,1.71-.03.04-.05.08-.08.12,0,.08,0,.15,0,.23-.02.12-.05.25-.07.37-.07.21-.14.41-.21.62-.03.04-.05.08-.08.12,0,.08,0,.15,0,.23-.07.17-.14.33-.22.5,0,.12-.02.23-.03.35-.03.04-.06.09-.09.13-.01.08-.02.16-.03.25-.03.12-.05.24-.08.36-.06.16-.11.32-.17.48l-.15.65-.91,2.4h0c-.13.36-.26.72-.39,1.08-.03.04-.06.09-.09.13,0,.04-.02.08-.03.13-.07.16-.15.32-.22.48-.17.4-.34.8-.52,1.2-.04.05-.07.09-.11.14,0,0,0,0,0,0-.07.08-.14.16-.21.24,0,.04-.02.09-.03.13-.22.09-.24.28-.25.47-.08.15-.17.31-.25.46-.07.05-.13.1-.2.15-.01.04-.02.09-.03.13-.25.17-.36.42-.38.71-.12.18-.24.35-.35.53-.03.03-.06.06-.08.09-.01.04-.02.09-.04.13-.03.04-.06.08-.09.11-.01.04-.02.08-.03.12-.03.04-.06.08-.09.12-.09.2-.18.41-.27.61-.04.12-.09.24-.13.36-.08.2-.16.4-.23.6-.03.12-.05.25-.08.37-.21.64-.07,1.23.33,1.75.24.32.5.62.76.93.07.06.14.12.21.19.22.22.44.44.66.66.06.08.12.17.19.25.37.32.74.63,1.1.95-.01.17.07.26.25.26.54.43,1.08.86,1.62,1.31.33.28.65.58.98.87.59.53,1.19,1.05,1.78,1.57-.01.17.07.26.24.26.8.66,1.62,1.29,2.38,1.98.79.72,1.55,1.47,2.26,2.26,1.14,1.26,1.65,2.75,1.41,4.46-.06.47-.15.93-.22,1.4-.04.12-.08.24-.12.36-.05.28-.1.56-.14.84-.03.04-.06.09-.1.13,0,.12-.02.23-.03.35-.03.12-.05.25-.08.37-.09.28-.19.56-.28.85-.03.04-.06.09-.08.13-.22.7-.43,1.41-.65,2.11-.12.39-.24.78-.36,1.16l-.08.37c-.09.28-.19.56-.28.84-.02.08-.05.17-.07.25-.02.04-.03.09-.05.13-.03.12-.05.24-.08.36-.1.28-.19.56-.29.85-.03.12-.05.25-.08.37-.1.28-.19.56-.29.84-.03.04-.06.09-.08.13-.01.08-.02.16-.03.25-.03.12-.05.24-.08.36-.1.28-.19.56-.29.85-.03.12-.06.25-.08.37-.17.52-.35,1.05-.52,1.57-.03.12-.05.25-.08.37-.18.53-.35,1.05-.53,1.58-.03.04-.06.09-.08.13-.01.08-.02.16-.03.25-.03.12-.06.24-.08.36-.08.2-.17.41-.25.61,0,.04,0,.08,0,.12-.09.21-.17.41-.26.62-.26,0-.53,0-.79,0-33.64,0-67.29,0-100.93,0-.18,0-.37,0-.55,0-.07,0-.14.06-.21.09h-.05s-.05,0-.05,0c-.3-.87-.59-1.75-.91-2.62-.56-1.55-1.17-3.09-1.71-4.65-.4-1.16-.73-2.35-1.08-3.53-.02-.04-.05-.08-.07-.12-.01-.12-.03-.24-.04-.37-.03-.04-.05-.08-.08-.12-.09-.4-.18-.81-.26-1.21,0-.04,0-.08.01-.12,0-.52.02-1.05.03-1.57.03-.08.06-.17.09-.25,0-.08.02-.16.03-.24.04-.16.09-.33.13-.49.03-.04.06-.08.09-.12,0,0,0,0,0,0,.04-.05.07-.1.11-.15.13-.23.26-.47.4-.7.03-.04.06-.09.1-.13.2-.2.4-.4.6-.6.08-.04.16-.09.25-.13.24-.16.48-.32.72-.49.05-.04.09-.08.14-.11,0,0,0,0,0,0,.08-.04.16-.08.24-.13.77-.39,1.54-.79,2.32-1.18.04-.01.08-.02.11-.03,0,0,0,0,0,0,.08-.04.16-.08.24-.12,0,0,0,0,0,0,.08-.04.16-.08.25-.13.32-.2.65-.4.97-.61.17.15.19-.02.24-.12,0,0,0,0,0,0,.08-.04.16-.09.24-.13.17-.12.33-.24.5-.35.04-.04.08-.08.12-.11,0,0,0,0,0,0,.04-.04.08-.08.12-.12,0,0,0,0,0,0,.08-.04.16-.08.24-.12.77-.52,1.53-1.05,2.3-1.57.03-.02.08,0,.12,0,.04-.04.09-.08.13-.12,0,0,0,0,0,0,.08-.04.16-.08.24-.12,0,0,0,0,0,0,.04-.04.08-.07.12-.11,0,0,0,0,0,0,.08-.05.16-.09.24-.14.57-.36,1.14-.72,1.7-1.09.17.15.19-.01.24-.11,0,0,0,0,0,0,.08-.04.16-.09.24-.13.36-.2.72-.4,1.08-.6.05-.04.09-.08.14-.11,0,0,0,0,0,0,.08-.04.16-.09.24-.13.36-.2.72-.4,1.08-.6.04-.04.09-.08.13-.11,0,0,0,0,0,0,.08-.04.16-.08.24-.13.16-.08.31-.16.47-.24.05-.04.09-.08.14-.11,0,0,0,0,0,0,.08-.04.16-.09.24-.13.16-.08.31-.16.47-.24.05-.04.1-.08.14-.12,0,0,0,0,0,0,.08-.04.16-.09.24-.13.36-.2.72-.4,1.08-.6.05-.04.09-.08.14-.11,0,0,0,0,0,0,.08-.04.16-.09.24-.13.36-.2.72-.4,1.08-.6.05-.04.09-.08.14-.12,0,0,0,0,0,0,.08-.04.16-.09.24-.13.16-.08.31-.16.47-.24.05-.04.1-.08.14-.11,0,0,0,0,0,0,.08-.04.16-.08.24-.13.24-.12.47-.24.71-.37.05-.04.1-.08.14-.11,0,0,0,0,0,0,.08-.04.16-.08.24-.13.16-.08.32-.16.48-.24.04-.04.09-.07.13-.11,0,0,0,0,0,0,.08-.04.16-.08.24-.13.16-.08.32-.16.47-.24.04-.04.09-.08.13-.11,0,0,0,0,0,0,.08-.04.16-.09.24-.13.08-.04.16-.08.24-.11.04-.04.09-.08.13-.11,0,0,0,0,0,0,.08-.05.16-.09.24-.14.44-.32.89-.64,1.33-.96.08-.05.16-.1.24-.15.04-.07.09-.14.13-.22.13-.16.27-.32.4-.49.01-.12.03-.23.04-.35.01-.29.03-.58.04-.87,0-.04,0-.08,0-.12-.04-.2-.08-.39-.11-.59l-.09-.13c-.06-.16-.12-.33-.18-.49-.03-.08-.06-.16-.09-.24-.16-.3-.33-.59-.49-.89-.03-.03-.06-.05-.08-.08-.1-.19-.19-.39-.3-.57-.19-.34-.39-.67-.59-1-.03-.04-.06-.08-.09-.12-.25-.41-.5-.82-.76-1.24l-.09-.1-.79-1.95v-.12s-.06-.09-.1-.13c0-.11,0-.23,0-.34,0-.16.03-.34-.2-.37-.05-.24-.11-.48-.16-.72-.03-.04-.06-.09-.1-.13-.02-.16-.04-.33-.07-.49-.03-.04-.05-.08-.08-.12-.09-.65-.18-1.29-.27-1.94-.04-.26-.08-.53-.13-.85h-.43c-.12-.03-.25-.07-.37-.1-1.23-.32-2.43-.74-3.54-1.36-.64-.36-1.24-.81-1.86-1.22-.82-.55-1.44-1.3-2.14-1.98-.07-.07-.14-.13-.21-.2-.17-.24-.35-.48-.52-.72-.03-.04-.06-.09-.09-.13-.79-1.1-1.5-2.24-1.97-3.52-.04-.08-.08-.16-.13-.24h0s-.06-.08-.1-.12c-.24-.61-.48-1.22-.7-1.84-.04-.11-.03-.23-.05-.35-.02-.04-.05-.08-.07-.12-.22-.75-.47-1.49-.65-2.26-.16-.69-.26-1.39-.36-2.09-.07-.45-.1-.91-.15-1.37.2-.16.08-.22-.09-.25,0-.45-.02-.89-.03-1.34,0-.28,0-.57,0-.85,0-.4.02-.81.03-1.21.26-.06.29-.18.1-.36,0-.24.01-.49.02-.73.16-.03.29-.08.09-.25.01-.2.02-.4.03-.6.15-.03.28-.06.12-.24.09-.41.17-.82.26-1.22.03-.04.06-.09.08-.13.2-.82.44-1.63,1-2.3.03-.04.06-.09.1-.13.09-.12.18-.24.27-.35.03-.04.07-.08.1-.12,0,0,0,0,0,0,.04-.04.08-.08.11-.12.56-.91.72-1.87.38-2.91-.11-.35-.57-3.82-.58-4.28-.05-3.45.36-6.46.65-8.21.16-.96.41-1.89.75-2.81.19-.51.37-1,.37-1,.02-.04.28-.55.53-1.04.3-.59.65-1.16,1.04-1.7.35-.48.73-1.02.75-1.04.91-1.13,2.39-1.9,2.43-1.93,0,0,0,0,0,0,.08-.04.16-.09.24-.13.12-.07.25-.14.37-.21.04-.01.26-.27.26-.27.2-.65.41-1.3.61-1.95.03-.04.06-.08.09-.12,0,0,.52-1.29.53-1.34.03-.03.11-.2.12-.24.04-.01.07-.04.08-.08.33-.54.67-1.08,1-1.62.03-.04.06-.08.1-.12,0,0,0,0,0,0,.04-.04.08-.08.12-.12.33-.45.66-.89,1-1.34.03-.04.07-.09.1-.13.12-.12.24-.24.36-.36.04-.07.09-.14.13-.2.29-.3.59-.59.88-.89.07-.04.14-.08.21-.13.41-.37.81-.74,1.22-1.1.15-.13.31-.24.47-.36.08-.04.16-.08.25-.13.08-.08.16-.16.24-.24.08-.04.17-.08.25-.12.2-.16.4-.32.6-.48.08-.04.17-.08.25-.12,0,0,0,0,0,0,.04-.04.08-.08.12-.11,0,0,0,0,0,0,.08-.04.16-.08.24-.12,0,0,0,0,0,0,.04-.04.08-.08.12-.11,0,0,0,0,0,0,.08-.04.16-.08.24-.12.32-.2.65-.41.97-.61.04-.04.08-.07.12-.11,0,0,0,0,0,0,.08-.04.16-.09.24-.13.08-.04.16-.08.24-.12.04-.04.09-.07.13-.11,0,0,0,0,0,0,.08-.04.16-.09.24-.13.16-.08.31-.16.47-.24.05-.04.09-.08.14-.12,0,0,0,0,0,0,.08-.04.16-.09.24-.13.44-.24.88-.48,1.32-.72.05-.04.09-.08.14-.11,0,0,0,0,0,0,.08-.04.16-.09.24-.13.24-.12.47-.24.71-.36.05-.04.09-.08.14-.11,0,0,0,0,0,0,.08-.04.16-.09.24-.13.32-.16.63-.32.95-.49.05-.04.1-.08.15-.12,0,0,0,0,0,0,.08-.04.16-.09.24-.13.52-.28,1.04-.56,1.56-.85.05-.04.09-.08.14-.12,0,0,0,0,0,0,.08-.04.16-.09.24-.13.16-.08.31-.16.47-.24.05-.04.1-.08.14-.12,0,0,0,0,0,0,.08-.04.16-.09.24-.13.15-.08.31-.16.46-.24.05-.04.1-.08.15-.12,0,0,0,0,0,0,.08-.04.16-.09.24-.13.61-.31,1.22-.62,1.83-.93.04-.01.08-.02.11-.03,0,0,0,0,0,0,.08-.03.17-.06.25-.08.24-.12.49-.25.73-.37.04-.01.08-.02.11-.03,0,0,0,0,0,0,.04-.03.08-.06.13-.1.12-.04.24-.08.37-.12.04-.01.08-.02.11-.03,0,0,0,0,0,0,.04-.03.09-.06.13-.09.12-.04.24-.08.37-.12.04-.01.08-.02.11-.03,0,0,0,0,0,0,.04-.03.09-.06.13-.09.89-.32,1.78-.65,2.68-.97.04-.01.07-.02.11-.03h0s.09-.06.13-.09c.37-.12.73-.24,1.1-.36.04-.01.07-.02.11-.03,0,0,0,0,0,0,.04-.03.09-.06.13-.09,1.1-.36,2.19-.72,3.29-1.07.15-.05,2.49-.6,2.54-.63.59-.1,1.77-.31,2.07-.36.58-.06.65-.09.73-.12.5-.13.81-.09.97-.13.45-.1.81-.08.97-.12.56-.11.93-.08,1.09-.12.49,0,.6-.03.6-.03.35-.01.69-.02,1.04-.03.34-.02.69-.04,1.03-.06.24-.02.48-.04.72-.06Zm16.3,120.24h0s.08-.09.11-.14c-.01-.04,0-.07.03-.1.03-.05.06-.09.1-.14.08-.08.16-.16.24-.23.08-.04.17-.08.25-.13h0c.37,0,.74,0,1.11,0,.67.11.85.64,1,1.19.2.08.4.29.61-.04.53-.83,1.7-.87,2.19-.02.19.34.38.16.57.08.03-.22.07-.44.08-.66.04-.75.07-1.49.1-2.24-.02-.04-.05-.08-.07-.12-.2-.02-.4-.03-.6-.05-.08,0-.16,0-.24,0-.35.07-.64-.13-.94-.25-.95-.4-1.74-1.07-2.6-1.61-.48-.3-.95-.65-1.55-.67-.33-.21-.66-.16-.99,0-.15.04-.3.06-.44.12-.77.32-1.53.64-2.29.97l-1.15.03-.49-.18s-.07,0-.11,0c-.48.56-.97,1.13-1.4,1.62l2.11,3.05.19.1c1.25,0,2.5,0,3.75,0,.1,0,.2-.09.3-.13.01-.12.03-.23.04-.35.03-.04.07-.08.1-.12Zm-11.43-9.85h0s.09-.06.13-.09c.37-.08.73-.16,1.1-.24.08,0,.16,0,.24,0,.03-.02.07-.03.11-.02.12-.03.25-.06.37-.09.08-.05.16-.11.25-.14.52-.16,1.05-.31,1.57-.46.04-.01.08-.02.12-.03h0c.08-.04.16-.08.24-.12.04-.05.09-.09.13-.14.03-.03.06-.06.08-.09,0-.28.02-.57.03-.85-.04-.05-.08-.1-.12-.15h-.24s.01.05.01.05c-.12,0-.24-.01-.36-.02l-.33-.09c-.98-.26-1.94-.65-2.75-1.27-.44-.33-.93-.61-1.42-.87-1.88-1.02-3.83-1.89-5.86-2.58-.71-.24-1.44-.45-2.16-.67-.08-.03-.17-.07-.25-.1l-1.09-.26c-.12-.03-.24-.07-.37-.1-.08,0-.16-.02-.23-.03-.08-.03-.17-.06-.25-.1-.24-.05-.48-.11-.72-.16-.37-.21-.74-.18-1.11,0-1.06.21-1.68.92-2.03,1.87-.42,1.12-.66,2.29-.63,3.5-.03.01-.06.02-.09.04.03.03.06.05.09.08,0,2.4-.05,4.79.37,7.17.03.04.05.08.08.12.02.12.03.24.05.37.03.04.05.08.08.12.29,1.27.77,2.48,1.23,3.7.43,1.13.87,2.26,1.22,3.41.18.58.45,1.03.99,1.31.32.16.65.16.97,0,.12,0,.24-.02.36-.03l.32-.08c.69-.17,1.36-.37,2.03-.6,1.69-.58,3.36-1.19,4.92-2.09,1.11-.64,2.1-1.43,3.11-2.19.71-.54,1.36-1.15,2.03-1.73.04-.03.09-.06.13-.09.71-.56,1.42-1.13,2.12-1.69.1-.08.24-.19.24-.29.02-.65.01-1.3.01-1.95l-.53-.75c-.88-.33-1.75-.71-2.7-.8l-.37-.1-.36-.02c-.08-.04-.17-.08-.25-.13-.33-.05-.65-.1-.98-.15.04-.07.08-.14.11-.21h0s.09-.06.13-.09c.04,0,.08,0,.12,0,.04-.01.08-.02.12-.03Zm33.54-36.59s0-.07-.02-.1c0-.04,0-.08,0-.13.05-.11.1-.21.14-.32.26-.7.51-1.41.76-2.12.03-.08.06-.16.09-.24.06-.2.11-.41.17-.61.03-.12.05-.24.08-.36.01-.04.03-.08.04-.13.02-.08.05-.17.07-.25.02-.04.03-.08.05-.11.02-.12.05-.25.07-.37.06-.2.12-.4.17-.6.01-.01.03-.03.03-.04-.01-.03-.03-.05-.05-.08.05-.12.09-.25.14-.37.02-.08.04-.17.07-.25.02-.08.04-.16.06-.23.02-.08.04-.17.06-.25.03-.19.07-.37.1-.56,0-.14,0-.27.01-.41,0,0,.04.01.04.01l.1-.14c.02-.08.04-.16.06-.24.01-.01.03-.03.03-.04-.01-.03-.03-.05-.05-.08,0-.04,0-.08-.01-.12.25-.03.22-.21.21-.39.01-.24.02-.47.03-.71.25-.05.28-.17.12-.36,0-.14-.03-.29,0-.42.35-1.22.45-2.47.61-3.72.16-.03.28-.08.1-.24.05-.61.1-1.21.14-1.82.26-.06.29-.18.1-.37,0-.22,0-.44,0-.66.07-.87.14-1.75.21-2.62,0-.28.02-.57.03-.85.02-.14.05-.28.06-.42.12-2.64,0-5.29-.12-7.93,0-.1-.04-.2-.06-.29,0-.28-.02-.57-.03-.85-.03-.57-.06-1.14-.09-1.71-.01-.28-.02-.56-.03-.85-.04-.36-.08-.73-.12-1.09,0-.24,0-.49,0-.73-.03-.24-.06-.49-.1-.73,0-.2,0-.4,0-.61.19-.17.07-.21-.1-.24-.05-.35.04-.7-.13-1.05-.1-.22-.03-.51-.08-.76-.13-.73-.29-1.46-.43-2.18-.03-.04-.06-.09-.09-.13-.01-.08-.02-.16-.03-.24-.03-.12-.05-.24-.08-.36-.14-.36-.27-.73-.41-1.09-.03-.04-.05-.08-.08-.12-.54-1.31-1.4-2.37-2.46-3.3-.55-.53-1.17-.96-1.84-1.33-.07-.04-.15-.09-.22-.13-.05-.03-.1-.05-.14-.08l-.12-.04c-.16-.08-.32-.16-.49-.24-.32-.12-.65-.25-.97-.37-.12-.04-.24-.08-.36-.12-.12-.04-.25-.08-.37-.12-.16-.03-.33-.06-.49-.1-.03-.02-.07-.03-.11-.02-.08-.03-.17-.06-.25-.09-.12,0-.24-.02-.36-.03-.1-.04-.2-.11-.31-.11-.47,0-.94.01-1.41.02-.16.04-.32.08-.48.12-.08,0-.17,0-.25,0l-.13.1s0,0,0,0c-.04,0-.08.02-.11.03-.12.04-.24.08-.37.12-.04,0-.08,0-.12,0-.12.07-.25.15-.37.22h0c-.08.04-.16.08-.24.12h0s-.09.08-.13.11h0c-.23.13-.46.26-.68.39-.09,0-.18-.01-.26-.02-.02,0-.04-.02-.06-.02.03-.52.06-1.04.09-1.56.01-.01.03-.03.03-.04-.01-.03-.03-.05-.05-.08l.12-.37s.06-.08.09-.13h0c.04-.08.08-.16.13-.24h0c.04-.08.08-.16.12-.24h0s.07-.09.11-.14c.12-.16.24-.32.36-.48.04-.08.09-.15.13-.23h0s.59-.47.59-.47c.44-.34.94-.59,1.48-.74l.85-.23c.16.14.32.14.48,0,.04-.02.07-.03.11-.03.45,0,.9,0,1.35,0l.24.04c.17.03.33.06.5.1.16,0,.32.02.48.03.08.03.17.06.25.1.08,0,.16-.02.24-.02v.05c.11.04.24.08.36.12l.02-.09-.14-.05c-.08-.12-.16-.24-.25-.36-.15-.21-.3-.42-.45-.62-.59-.8-1.17-1.6-1.79-2.39-.73-.92-1.48-1.83-2.23-2.73-.35-.42-.71-.82-1.08-1.22-.45-.48-.91-.96-1.37-1.43-.36-.32-.72-.65-1.08-.97-.08-.08-.17-.16-.25-.24l-.98-.87-.04-.03c-.61-.41-1.2-.85-1.83-1.23-.45-.27-.94-.46-1.41-.69-.23-.39-.43-.51-.85-.47-.15-.04-.31-.08-.46-.12-.03-.07-.05-.17-.11-.2-1.05-.45-2.09-.94-3.16-1.32-.44-.16-.86-.49-1.38-.39-.17-.09-.33-.23-.5-.25-.36-.03-.66-.19-.95-.36-.22-.05-.47.03-.64-.2-.05-.07-.21-.05-.33-.07-.12-.03-.25-.07-.37-.1-.04,0-.08-.02-.12-.03-.12-.04-.24-.08-.36-.12-.08-.03-.16-.07-.25-.1-.61-.13-1.18-.43-1.83-.37-.32-.09-.64-.18-.96-.26-.12-.03-.25-.06-.37-.1-.08,0-.16-.02-.24-.02-.12-.03-.25-.06-.37-.1-.08,0-.16-.02-.24-.02-.08-.05-.17-.1-.25-.14-.08,0-.16,0-.24,0-.08,0-.16.02-.24.02-.16-.03-.33-.07-.49-.1-.12,0-.24-.02-.36-.02-.09-.05-.17-.1-.26-.15-.08,0-.16,0-.24,0-.12,0-.24.02-.36.03-.12-.04-.24-.08-.37-.13-.33-.04-.65-.07-.98-.11-.24,0-.48,0-.73.01-.04-.01-.08-.03-.11-.03l-1.27-.14-2.62.06-.73.11c-.28,0-.56,0-.85,0l-.37.08c-.16.01-.32.02-.48.04-.12.04-.25.08-.37.12-.16,0-.32,0-.48,0-.28.08-.57.16-.85.24h-.24c-.87.28-1.69.54-2.56.82h0s0,0,0,0c-.04,0-.08.02-.11.03-.16.08-.33.17-.49.25-.08.03-.16.06-.25.09h0s-.08.02-.11.03c-.53.27-1.06.54-1.59.82-.08.04-.16.08-.24.13h0c-.08.04-.16.08-.24.12,0,0,0,0,0,0-.05.04-.1.08-.15.11-.4.2-.79.41-1.19.61-.08.04-.16.08-.24.13h0s-.1.08-.14.11c-.24.12-.47.24-.71.37-.08.04-.16.08-.24.13h0s-.09.08-.14.12c-.16.08-.31.16-.47.24-.08.04-.16.09-.24.13,0,0,0,0,0,0-.08.04-.17.08-.25.12-.04.04-.08.08-.11.11-.08.04-.16.09-.24.13,0,0,0,0,0,0-.04.04-.09.08-.13.12-.08.04-.16.08-.23.11-.08.05-.16.09-.24.14h0c-.08.04-.17.08-.25.12-.16.12-.32.25-.48.37-.08.04-.16.08-.24.12h0c-.08.04-.16.08-.24.12-.04.04-.08.08-.12.12-.08.04-.17.08-.25.12-.4.28-.8.57-1.21.85-.08.04-.16.08-.25.12h0s-.08.08-.12.12h0s-.08.08-.12.12h0c-.08.04-.17.08-.25.12-.52.41-1.05.81-1.57,1.22-.08.04-.16.08-.24.12h0s-.08.08-.12.13h0s-.07.08-.11.12c-.37.28-.74.56-1.11.84-.04.04-.08.09-.12.13h0s-.07.08-.11.12h-.01c-.17-.02-.26.06-.26.24-.24.2-.48.41-.71.61l-.21.12c-.58.58-1.15,1.16-1.73,1.74-.07.07-.14.14-.21.21-.09.12-.19.24-.28.35-.03.04-.07.09-.1.13-.17.2-.34.4-.51.6-.03.04-.07.09-.1.13-.13.16-.26.32-.39.48-.03.04-.29.57-.32.62-.13.2-1.46,2.41-1.65,2.82,0,.04-.3.54-.31.58.07.12.13.25.2.37.04.12.08.24.11.37.06.2.13.4.19.61.02.08.04.17.07.25.05.24.1.48.15.72,0,.04,0,.08,0,.12.03.04.06.09.1.13.02.08.03.15.05.23.03.41.15,1.38.18,1.46.02.73.04,1.47.05,2.2,0,.28,0,.55-.01.83-.06.33-.11.48-.12.73,0,.12,0,.24,0,.36-.08.33-.11.45-.12.73-.01.12-.02.24-.03.36-.03.08-.06.17-.09.25-.06.36-.11.72-.17,1.08-.02.04-.18.9-.18.98-.02.08-.04.15-.07.23-.02.09-.32,1.39-.31,1.47-.02.08-.04.16-.06.23-.07.37-.13.74-.2,1.1-.05.19-.1.39-.15.58-.03.05-.05.1-.08.15-.04.16-.09.33-.13.49,0,.04,0,.08.01.13-.02.16-.04.31-.06.47-.06.22-.15.43-.18.66-.06.39-.09.78-.13,1.18,0,.04,0,.08,0,.12-.04.12-.08.24-.12.36v.36c0,.28,0,.57-.01.85l-.04.74v1.33s.06.72.06.72c0,.2.13.39.12.59.04.12-.05.26-.02.38.16.77.32,1.54.47,2.31.03.04.05.08.08.12.07.25.14.5.22.75.15.6.3,1.2.45,1.81.04.16.08.32.12.49.04.24.08.49.12.73.04.36.08.73.12,1.09l.09.25c.03.36.07.72.1,1.07-.07.09-.14.18-.21.27-.13.19-.26.38-.39.57-.48.22-.96.44-1.44.66-.16.07-.33.15-.49.22-.04,0-.08.02-.12.03-.12.03-.25.06-.37.1-.04,0-.08,0-.12.02-.16,0-.33,0-.49,0-.12.03-.25.05-.37.08-.2.01-.4.02-.6.03l-1.93-.03c-.21-.33-.24-.7-.26-1.08-.03-.04-.06-.09-.1-.13-.05-.28-.1-.56-.15-.84-.03-.04-.05-.09-.08-.13-.05-.24-.11-.48-.16-.72-.03-.05-.06-.09-.09-.14-.01-.08-.02-.16-.03-.24-.03-.04-.06-.09-.09-.13-.46-1.38-1.08-2.65-2.16-3.68-.65-.61-1.38-.99-2.24-1.17-.08,0-.15-.02-.23-.03-.12-.03-.25-.06-.37-.1l-.23-.04c-.49-.2-.99-.19-1.48,0-.08.01-.15.03-.23.04-.16,0-.32,0-.48,0-.57.16-1.14.32-1.7.48l-.13.1h0s-.08.01-.11.03c-.21.11-.41.22-.62.33-.08.04-.16.09-.24.13h0s-.09.08-.13.12c-.12.08-.24.16-.36.24-.08.04-.16.09-.23.13h0s-.08.08-.11.12c-.25.2-.49.41-.74.61-.07.08-.15.16-.22.25l-.02.02s-.08.07-.12.1c-.08.08-.16.16-.25.23-.03.04-.07.09-.1.13-.13.16-.26.32-.39.48-.04.08-.08.17-.12.25h0s-.08.08-.11.12h0c-.05.08-.09.16-.14.24-.07.12-.15.25-.22.37-.07.08-.14.17-.21.25-.01.04-.02.08-.03.12-.03.04-.06.08-.09.12-.01.04-.02.08-.03.13-.04.12-.09.24-.13.36h0s-.06.08-.09.12c-.01.08-.02.16-.03.24h0c-.03.08-.06.16-.09.25-.04.08-.08.16-.13.25-.03.16-.07.32-.1.48-.14.4-.31.79-.27,1.23-.03.02-.06.05-.1.07.03.01.06.03.09.04,0,.16,0,.33,0,.49,0,.08,0,.16,0,.24,0,.16,0,.32,0,.49,0,.24.02.49.02.73l.12,1.58.1.13h0c.03.75.36,1.43.53,2.14.05.22.15.43.23.64.07.16.14.33.22.49,0,.04.02.08.03.12.03.04.06.09.09.13.01.08.02.16.03.23.03.04.06.07.1.11.05.13.1.25.15.38.03.04.06.08.09.12.05.12.1.24.15.37.08.16.17.33.25.49.03.03.06.07.09.1h.01c.08.13.15.26.23.38,0,.04.02.08.03.13l.45.62s0,.08.03.11c.03.04.06.08.1.12.05.08.1.16.15.25.07.08.14.16.21.24.05.08.1.16.15.25.07.04.14.08.21.12.04.05.09.11.13.16.15.2.28.43.46.61.44.44.9.87,1.35,1.3.12.08.24.17.36.25,0,0,0,0,0,0,.25.15.49.3.74.45.2.09.41.17.61.26.08.04.16.08.24.12.43.33.94.39,1.46.36.04,0,.08,0,.12,0,.04.01.08.03.12.04.49.17.98.19,1.47,0,.49.05.86-.28,1.31-.39.05-.04.09-.07.14-.11h0c.08-.05.16-.09.24-.14.04-.04.08-.07.12-.11.08-.04.17-.08.25-.12.08-.08.16-.16.24-.24.08-.05.16-.09.25-.14.12-.12.24-.23.36-.35.08-.04.16-.09.25-.13.08-.08.16-.15.24-.23.08-.04.17-.08.25-.12.29-.16.57-.32.86-.47.08,0,.15-.01.23-.02.16-.03.33-.05.49-.08.2,0,.4-.02.6-.03l.31.86-.1,1-.79,1.3s-.04.06-.03.1l-.23.14h0c-.12.13-.24.25-.36.36-.08.08-.17.17-.25.25-.46.39-.87.81-1.11,1.36l-.1.58.02.85c-.09.34,0,.66.11.97.03.28.07.57.1.85.02.04.05.08.07.12.06.32.11.65.17.97.03.04.05.08.08.12.1.41.19.81.29,1.22.03.04.05.08.08.12.05.58.33,1.09.5,1.62.43,1.31.89,2.62,1.39,3.9.34.86.78,1.68,1.18,2.52,0,.06.01.13.02.19.03.05.06.11.09.16h.05c.07.6.4,1.09.75,1.57,0,.01.04.01.06.02.01.04.03.07.04.11,0,.03-.02.06-.02.09l.09.15v.03c.05.07.08.14.12.21l.03.03,1.19,1.92.04.12s.07.09.1.13c.05.08.09.16.14.23.28.44.51.91.96,1.22.24.25.48.49.73.74.16.16.32.32.48.48.04.03.09.07.13.1.57.44,1.13.87,1.82,1.13l.76.38,1.92.72h0c.08.04.17.08.25.12.08.03.17.07.25.1.12,0,.23.01.35.02.21.07.41.14.62.21.24.05.49.11.73.16l.37.1s.08-.02.12-.03c.04.01.08.03.12.04.12.04.25.07.37.11.08,0,.16-.02.24-.03.04.01.08.03.12.04.13.04.25.07.38.11.12,0,.24-.02.36-.02.04.01.08.03.12.04.13.03.25.07.38.1.16,0,.32.02.48.03.17.03.33.06.5.1.12,0,.24-.01.35-.02.08.01.16.03.25.04.2.03.41.06.61.1.08,0,.16-.01.23-.02.12.01.24.03.37.04.13.03.25.06.38.1.4,0,.8.02,1.21.03.37.13.73.22,1.08-.05.13-.23.25-.46.38-.69l.38-.37.89-.56.54-.2c.32-.07.65-.13.97-.2.16.15.33.14.49,0v-.04s.07,0,.11.01c.61,0,1.23,0,1.84,0,.28.01.56.03.84.04.12.03.25.06.37.09l.48-.02s.08.03.12.04l.26.09h.64s0-.06,0-.09c-.11-.04-.21-.08-.32-.11-.11-.04-.23-.08-.34-.12-.28-.14-.56-.28-.84-.42-.09-.07-.17-.14-.26-.21-.04,0-.08,0-.11-.03-.08-.07-.17-.14-.25-.21-.08-.05-.16-.1-.23-.15,0-.22-.13-.14-.25-.1h0c-.08-.08-.17-.16-.25-.24-.5-.4-1.01-.78-1.5-1.19-.49-.41-.96-.85-1.43-1.29-.63-.59-1.28-1.17-1.88-1.8-.73-.77-1.42-1.58-2.13-2.38-.42-.46-.86-.9-1.26-1.38-.48-.56-.94-1.14-1.37-1.73-.36-.49-.67-1.02-1-1.53-.04-.04-.08-.08-.12-.12h0s-.07-.09-.1-.13h-.04c-.07-.11-.14-.24-.2-.37-.1-.16-.19-.32-.29-.48-.19-.37-.38-.73-.57-1.1-.01-.04-.02-.08-.03-.12-.03-.04-.06-.09-.09-.13,0-.04,0-.08-.03-.11-.11-.29-.23-.57-.34-.86v-.35s-.05-.08-.08-.12c-.06-.2-.13-.41-.19-.61-.1-.48-.26-.95-.19-1.46.1,0,.2,0,.31,0,.86,1.18,1.71,2.37,2.59,3.54.34.46.72.89,1.08,1.33,0,.04,0,.08.03.11.68.87,1.32,1.77,2.05,2.59.43.48.73,1.09,1.31,1.42l.51.67c.67.88,1.49,1.64,2.41,2.26h0c.2.2.4.4.6.6.09.05.18.11.27.16.15.15.31.3.46.45.05.03.09.06.14.1l.39.38c.12.07.23.15.35.22.4.26.8.51,1.2.77.24.16.49.32.73.48.53.32,1.05.65,1.58.97.08.04.16.08.25.11.57.5,1.23.83,1.95,1.05.08.05.16.09.24.14l.36.15c.65.27,1.3.55,1.95.82l.87.25c.33.11.65.26.98.34.47.11.95.18,1.43.27l.61.11s.08.03.12.04c.12.03.25.07.37.1.12,0,.24-.01.35-.02.12.01.25.02.37.04l.44.07h2.31s.53-.07.53-.07c.12-.01.24-.03.37-.04.12,0,.24.01.35.02.17-.03.34-.06.5-.1v-.04c.11-.03.24-.05.36-.08.16.14.32.14.48,0,.12-.04.25-.08.37-.12.08-.01.16-.02.24-.03.04-.04.08-.09.13-.13.08.01.16.03.24.04h.24s0-.06,0-.06c.04.02.07.03.11.03.16-.04.33-.09.49-.13.24-.08.49-.17.73-.25.12-.02.24-.05.37-.07.08-.01.15-.03.23-.04h0s.09-.06.13-.09c.77-.24,1.54-.48,2.31-.73.04-.01.08-.02.11-.03h0s.09-.06.13-.09c.29-.13.57-.25.86-.38.34.02.59-.18.85-.36.04,0,.08.01.12.02.08-.04.16-.09.24-.13.25-.13.49-.25.74-.38.07-.02.15-.02.22-.05.65-.31,1.29-.62,1.94-.93.05-.04.09-.08.14-.11h0c.08-.05.16-.09.24-.13,0-.04,0-.07.02-.1.15-.05.31-.09.46-.14.04-.04.09-.08.13-.11h0c.08-.05.16-.09.24-.13.08-.04.16-.08.24-.11.04-.04.09-.08.13-.11h0c.08-.04.16-.08.24-.12h.01s.07-.08.11-.11v-.02c.09-.04.16-.08.24-.13.04-.04.08-.08.12-.12.29.03.46-.14.61-.35h0c.12-.08.24-.16.36-.24h0c.08-.05.16-.09.24-.13h0s.08-.08.12-.12c0,0,0,0,0,0,.08-.04.16-.09.24-.13.08-.08.16-.16.24-.23.08-.05.16-.09.25-.14.09-.07.18-.15.26-.22.04-.04.07-.08.11-.12.08-.08.15-.16.23-.25.08-.04.17-.09.25-.13.09-.12.18-.23.27-.35l.1-.13.13-.22c.16-.17.32-.33.48-.5.05-.04.1-.08.14-.12.03-.04.07-.09.1-.13.33-.44.67-.88,1-1.33.03-.04.06-.08.1-.12h0s.08-.08.11-.12c.39-.62.79-1.23,1.18-1.85.38-.59.76-1.19,1.14-1.78.09-.13.18-.25.27-.38.07-.08.14-.16.21-.24.2-.29.39-.58.59-.87.05-.08.09-.16.14-.23h0s.07-.09.11-.14c.04-.08.08-.16.12-.24.04-.08.09-.16.13-.23h0s.07-.09.11-.14c.24-.44.48-.89.72-1.33.05-.12.09-.23.14-.35.01-.04.02-.09.04-.13.03-.03.06-.07.09-.1h.01c.27-.07.31-.29.34-.51.09-.24.18-.48.27-.72.36-.12.35-.42.35-.72.37-.85.74-1.71,1.11-2.56.03-.04.06-.09.09-.13h0c.04-.08.08-.16.12-.25,0-.08.02-.15.03-.23.03-.04.06-.09.09-.13h0c.04-.08.08-.17.13-.25.05-.2.1-.39.15-.59.03-.04.06-.09.09-.13.01-.04.03-.08.04-.12.03-.05.05-.09.08-.14Zm6.94,30.52s-.06-.08-.09-.12c-.67-.97-1.56-1.72-2.46-2.45-.05-.03-.1-.07-.14-.1-.16-.12-.32-.23-.47-.35-.62-.51-1.31-.93-1.84-1.56-.01-.02-.03-.03-.06-.04-.12-.08-.25-.15-.35-.24-.64-.57-1.19-1.23-1.81-1.82-1.64-1.56-3.14-3.26-4.93-4.65-.08-.07-.16-.14-.24-.21h0s-.09-.08-.13-.12c-.1,0-.24-.06-.3,0-.17.14-.31.33-.48.48-.82.69-1.64,1.39-2.48,2.06-.66.53-1.36,1-1.84,1.72-.07.04-.14.08-.29.16.34.12.51.02.64-.17.16-.04.32-.07.48-.11.17-.03.33-.07.5-.1v-.04c.25.02.49.03.73.05.12.03.25.07.37.1.6,0,1.04.33,1.46.69,1.42,1.23,2,2.9,2.42,4.66.03.04.05.08.08.12.01.12.03.24.04.37.03.04.05.08.08.12.09.64.15,1.29.29,1.93.09.42.18.85.21,1.28.08,1.22.1,2.44.06,3.66-.02.76-.23,1.51-.25,2.26-.03,1.02-.39,1.96-.58,2.95-.06.32-.16.64-.34.92-.27.42-.24.75-.02,1.06.27.39.57.77.87,1.14.42.51.84,1.01,1.27,1.52.03.06.07.12.1.18.14.18.22.34.04.56-.12.14-.16.35-.23.52.12.04.24.13.36.13,2.05,0,4.11,0,6.16,0,.12,0,.24-.08.36-.13.06-.16.11-.32.17-.48.03-.12.05-.24.08-.36.01-.08.02-.16.03-.24.03-.04.06-.09.08-.13.06-.16.11-.32.17-.48.03-.12.05-.24.08-.36.01-.08.02-.16.03-.24.03-.05.06-.09.08-.14l.17-.6c.02-.08.05-.17.07-.25.1-.32.19-.64.29-.96.02-.12.05-.25.07-.37,0-.12.02-.24.03-.35.03-.04.06-.09.1-.13.17-.77.34-1.53.51-2.3.03-.04.06-.09.1-.13l.06-.24c.02-.08.04-.17.06-.25.06-.28.12-.56.18-.84.01-.01.03-.03.03-.04-.01-.03-.03-.05-.05-.08.17-.73.34-1.46.51-2.2.01-.01.03-.03.03-.04-.01-.03-.03-.05-.05-.08.12-.77.24-1.54.35-2.31.16-.03.29-.07.1-.24.16-.85-.1-1.63-.37-2.42-.04-.05-.07-.09-.11-.14h0ZM26.78,28.38h0s.09-.06.13-.09c.04,0,.08,0,.12,0,.04-.01.08-.02.12-.03h0c.12-.04.24-.09.36-.13.65-.23,1.3-.45,1.95-.68.08-.02.15-.03.23-.05h0s.09-.05.14-.08c.04,0,.08,0,.12,0,.08,0,.16,0,.24-.01.08-.04.16-.07.25-.11.16.14.32.14.48,0,.04-.02.08-.03.12-.03.41,0,.82,0,1.23,0,.04,0,.08.02.12.03.2.03.41.07.61.1.08,0,.16-.02.23-.02.08.01.16.03.24.04.33.16.65.16.98,0,.04-.04.09-.09.13-.13.25-.04.49-.09.74-.13.03-.04.07-.08.1-.12h0s.09-.05.09-.05l1.48-1.53.12-.25.96-1.46c.04-.08.09-.16.13-.24h0s.07-.09.11-.14c.52-1.13,1.22-2.15,1.95-3.15h0s1.21-1.21,1.21-1.21c.08-.04.16-.09.24-.13.57-.44,1.13-.88,1.7-1.33.08-.04.17-.09.25-.13.05-.04.09-.07.14-.11.04-.04.07-.08.11-.12h0s.08-.07.12-.11c.39-.37.78-.74,1.17-1.1.1-.09.2-.19.32-.24.23-.09.47-.15.7-.23.04-.01.08-.02.11-.03h0s.09-.06.13-.09c.37-.12.69-.27.87-.67.14-.3.1-.5-.11-.75-.43-.5-.99-.39-1.45-.25-2.36.72-4.65,1.62-6.87,2.69-.73.35-1.43.75-2.13,1.15-1.06.6-2.13,1.18-3.13,1.85-1.4.94-2.79,1.92-4,3.11-.84.83-1.72,1.63-2.5,2.53-.97,1.12-1.82,2.33-2.46,3.68,0,.1-.01.21-.02.31.1-.03.19-.05.29-.08.41-.11.82-.21,1.22-.32l.24-.04h0s.09-.06.13-.09c.04,0,.08,0,.12,0,.04-.01.08-.02.12-.03Zm4.01,73.65s-.08.02-.11.03c-.16.08-.33.16-.49.25-.08.03-.17.06-.25.09h0s-.08.02-.11.03l-.61.24s-.08.06-.13.1h0c-.08.04-.16.08-.25.12h0s-.08.02-.11.03c-1.88.91-3.77,1.79-5.56,2.88-1.54.93-3.09,1.84-4.6,2.81-1.23.78-2.42,1.62-3.62,2.44-.81.56-1.63,1.11-2.43,1.69-1.26.92-2.51,1.86-3.76,2.8-.69.53-1.37,1.08-2.03,1.6,0,.12,0,.18.02.23.44.99.91,1.96,1.32,2.96.51,1.26.98,2.53,1.47,3.8.25.65.49,1.31.74,1.96.2.27.48.13.72.13,14.14,0,28.27,0,42.41,0,.18,0,.37,0,.55,0,.06,0,.12-.08.17-.12-.3-1.01-.6-2.02-.89-3.03-.24-.85-.47-1.7-.71-2.55-.03-.04-.05-.08-.08-.12-.06-.28-.11-.57-.17-.85-.03-.04-.05-.08-.08-.12,0-.06.02-.12,0-.18-.27-1.09-.52-2.19-.65-3.31l-.08-.12c-1.49-.74-2.96-1.54-4.54-2.09-.07-.07-.13-.15-.2-.22-.91-.57-1.94-.91-2.86-1.45-1.44-.85-2.92-1.61-4.34-2.48-.86-.52-1.73-1.07-2.39-1.86-.58-.69-1.13-1.4-1.73-2.07-1.02-1.14-2.09-2.23-3.1-3.38-.41-.47-.84-.56-1.38-.31-.04.03-.09.06-.13.1h0Zm48.98,16.04h0c.08-.05.16-.1.23-.14.09-.11.19-.23.28-.34.03-.04.06-.09.1-.13.13-.24.27-.48.4-.72.03-.08.05-.17.08-.25.03-.52.05-1.04.08-1.57-.02-.04-.05-.09-.07-.13-.04-.15-.09-.3-.12-.45-.18-.86-.77-1.35-1.52-1.7-.21-.1-.45-.13-.68-.19-.08,0-.16,0-.23,0-.87.04-1.65.33-2.34.87l-.07.13c-.06.74-.07,1.47.09,2.2.09.44.17.88.25,1.31.03.04.05.08.08.12.06.25.12.49.17.74.09.49.11.52.6.61.08.04.17.07.25.11h.05s.05-.01.05-.01c.13.02.25.03.38.05.16,0,.32,0,.47,0,.17-.05.35-.1.52-.14.27-.09.54-.18.81-.27.04-.04.09-.08.13-.12ZM19.13,39.07s-.06.08-.09.13c-.05.23-.11.47-.16.7-.02.05-.04.1-.06.14l-.05.12s-.06.09-.09.13c-.02.12-.05.25-.07.37-.03.04-.05.08-.08.12-.04.32-.08.64-.13.96-.03.04-.06.09-.1.13,0,.2-.02.41-.03.61-.03.08-.06.16-.09.25-.05.6-.13,1.2-.13,1.8,0,1.07.03,2.14.05,3.21.02.65.05,1.29.08,1.94.03.78.05,1.56.11,2.34.01.2.15.38.23.57,0,.03,0,.07,0,.1,0,.02-.02.04-.03.05,0-.02.02-.03.03-.05.08-.05.16-.09.23-.14.74-.51,1.6-.76,2.44-1.05.08-.01.15-.03.23-.04h0s.09-.05.14-.08c.28-.04.57-.08.85-.12.2.15.4.14.6.01h1.72s.03,0,.05,0c.4.07.8.13,1.19.2,1.78.3,3.31,1.12,4.64,2.32,1.07.97,1.85,2.13,2.28,3.51.03.05.06.09.09.14.05.28.1.55.15.83.03.08.07.16.1.24.05.41.1.81.14,1.22.03.03.07.06.1.1.04.02.08.03.12.05.13.13.26.14.35-.04h0s.09-.06.13-.09c.19-.09.39-.18.58-.28.05-.08.1-.15.15-.23h0c.04-.05.07-.1.11-.15,0-.07,0-.14.01-.21.01,0,.03-.02.04-.03,0-.03,0-.06,0-.09.2-.54.01-1.06-.07-1.59l-.08-.12v-.35s-.07-.09-.1-.13c-.02-.12-.04-.25-.06-.37-.03-.04-.05-.08-.08-.12,0-.08,0-.15,0-.23-.03-.04-.06-.09-.08-.13-.01-.08-.02-.16-.03-.25-.03-.04-.06-.08-.08-.12-.3-.99-.52-2.01-.71-3.03-.02-.13-.05-.35-.07-.48-.14-1.75-.04-3.5.03-5.24.16-.03.29-.08.1-.25.05-.57.1-1.13.15-1.7.24-.03.22-.21.22-.38-.03-.19-.1-.38-.08-.56.04-.31.15-.6.2-.91.17-1.04.33-2.09.5-3.13.03-.02.06-.03.09-.05-.03-.03-.06-.06-.09-.09-.03-.5.16-.96.15-1.48-.02-.87.17-1.74.2-2.61.02-.68-.06-1.36-.11-2.04-.03-.39-.09-.78-.14-1.18-.03-.23-.07-.47-.11-.7-.02-.04-.04-.08-.06-.13-.06-.2-.12-.41-.18-.61-.03-.04-.07-.08-.1-.12-.05-.2-.1-.4-.15-.59-.04-.07-.08-.14-.13-.21l-.11.17c-.24,0-.49,0-.73,0-.08,0-.16,0-.23,0-.12.02-.24.04-.36.06-.12.04-.25.08-.37.12-.16,0-.32,0-.48,0-.08.04-.17.07-.25.11h-.24c-.12.05-.25.09-.37.13-.13.03-.25.06-.38.09-.04,0-.08,0-.11.02-.08,0-.16,0-.24.01-.21.07-.42.15-.63.22-1.45.48-2.87,1.03-4.21,1.78l-.27.15h0s-.09.08-.14.12c-.08.04-.15.08-.23.12-.08.05-.16.09-.23.14h0s-.08.08-.12.12h0c-.08.04-.17.08-.25.12-.11.08-.23.15-.34.24-.49.41-.98.83-1.48,1.24-.07.04-.15.07-.22.11-.13.12-.26.24-.39.37-.07.08-.14.16-.22.24-.02.03-.03.07-.03.11-.08.04-.16.09-.23.13-.08.09-.16.17-.25.26-.04.07-.08.15-.12.22-.77.7-1.23,1.59-1.59,2.54-.04.08-.08.17-.13.25h0Zm64.42,71.58s-.09.08-.14.12c-.32.14-.64.28-.96.42.1.25.19.47.27.68.03.04.06.08.1.13.05.16.1.32.15.48.03.05.06.09.09.14,0,.07,0,.15,0,.22.02.04.05.08.07.12.03.19.05.38.08.59.11.02.22.03.34.05.12,0,.24,0,.36,0l.12-.03c.45,0,.9,0,1.35,0,.08,0,.16.02.24.03.16.03.33.06.49.1.12,0,.24.02.36.02.08.03.17.06.25.1.32.08.64.17.96.25-.28.08-.57.15-.85.23-.08,0-.16.02-.23.03l-.73.12c-.2.03-.41.07-.61.1-.04,0-.08,0-.12.02-.12,0-.24,0-.36.01-.25.1-.49.21-.74.31-.08.05-.16.09-.25.14-.08.38-.21.76-.22,1.14-.03.94-.01,1.88,0,2.82,0,.06.15.13.23.19.08.03.17.07.25.1.08,0,.16.02.24.03.08.03.16.06.25.1.08,0,.16.02.24.02.08.03.16.06.25.1.08,0,.16.01.24.02.08.03.17.07.25.1.28.05.56.1.84.15.08.03.17.06.25.1.12,0,.24.01.35.02.12.04.25.07.37.11.08,0,.16.02.24.02.12.03.25.06.37.1.16,0,.32.01.48.02.08.03.17.07.25.1.16,0,.32.01.48.02.13.03.25.07.38.1.2,0,.4.02.6.02.2.03.41.07.61.1.16,0,.32.01.48.02.17.03.33.07.5.1.24,0,.48.02.72.02.21.03.43.06.64.08.29,0,.57,0,.86,0l.45.04s.08.07.12.1c.3,0,.6.02.9,0,.19-.01.37-.08.56-.12.22-.49.44-.97.66-1.46.02-.08.05-.16.07-.25.02-.08.04-.16.06-.24,0-.01.03-.03.03-.04-.01-.03-.03-.05-.05-.07,0-.04,0-.08-.01-.12.03-.04.06-.08.1-.12,0-.16,0-.32,0-.48.07-.72.17-1.43.2-2.14.02-.46-.05-.92-.08-1.38.19-.18.16-.31-.1-.37-.01-.38,0-.77-.05-1.14-.14-.95-.31-1.9-.46-2.85-.03-.04-.05-.09-.08-.13-.01-.12-.03-.24-.04-.36-.03-.04-.05-.09-.08-.13-.05-.24-.11-.49-.16-.73-.03-.04-.07-.08-.1-.12-.22-.54-.37-1.13-.67-1.62-.3-.5-.74-.93-1.41-.94-.04-.03-.09-.06-.13-.09-.04-.01-.08-.02-.12-.04-.45-.21-.9-.16-1.35,0-.13.04-.25.08-.38.12-.04,0-.07,0-.11.02h-.24c-.49.21-.98.41-1.46.61-.08.03-.16.06-.24.09h0c-.05.04-.1.07-.16.11l-.94.48c-.08.04-.16.09-.24.13h0s-.09.08-.14.12c-.08.04-.15.08-.23.11-.08.05-.16.09-.24.14h0s-.08.08-.13.12c-.04,0-.09-.01-.12,0-.89.6-1.78,1.21-2.67,1.82-.08.04-.16.08-.25.12-.28.2-.57.4-.85.6-.08.05-.16.09-.24.14h0Zm8.51,12c-.24.05-.49.1-.73.15-.56-.02-1.07.21-1.58.39-.11.04-.22.23-.23.37-.05.84-.08,1.69-.12,2.53.13.04.25.11.38.11,2.66,0,5.32,0,7.98,0,.12,0,.24-.08.36-.13-.56-.87-1.28-1.6-2.11-2.19-.84-.6-1.78-1.02-2.83-1.09-.16-.05-.33-.1-.49-.14-.21,0-.41,0-.62,0Zm-15.38-12.38c.76,0,1.53.02,2.29.01.19,0,.38-.07.57-.11.27-.2.54-.4.8-.61.7-.54,1.39-1.08,2.09-1.62.73-.56,1.46-1.13,2.19-1.69.07-.04.14-.08.21-.13-.01-.04-.03-.09-.04-.13-.25.05-.51.1-.76.16-.82.17-1.64.33-2.46.5-1.36.28-2.73.52-4.07.87-.76.2-1.53.25-2.3.37h-2.1s-.25-.05-.25-.05c-.08,0-.16,0-.24,0-.1,0-.21.04-.3.02-.43-.13-.86-.27-1.29-.41-.29-.09-.57-.16-.84.11,1.35,1.1,2.82,1.93,4.49,2.39.12.03.24.07.37.1.08,0,.16.02.24.02.08.03.17.06.25.09.16,0,.32.02.48.03.22.03.44.05.66.08Zm-3.84,15.81c-.19-.27-.41-.53-.58-.81-.12-.19-.24-.19-.39-.09-.38.26-.75.53-1.13.8-.05.01-.11.02-.16.04.06.06.11.17.17.17.65,0,1.31,0,1.96,0,.04,0,.08-.07.13-.11Zm-21.26-16.29c.06-.2.12-.4.18-.6.01-.01.03-.03.03-.04-.01-.03-.03-.05-.05-.08.06-.34.13-.68.2-1.06-.33-.06-.58-.12-.83-.15-.52-.05-1.04-.08-1.55-.13-.83-.08-1.66-.16-2.49-.24-.49-.05-.99-.07-1.48-.12-.36-.04-.71-.11-1.06-.19-.84-.19-1.67-.41-2.44-.84-.12-.07-.39-.05-.48.04-.2.22-.36.53-.2.82.23.41.45.88.81,1.16.68.54,1.41,1.03,2.18,1.42,1.32.68,2.72,1.2,4.15,1.62l.25.1c.4.09.81.17,1.21.26.08.03.17.07.25.1.12,0,.24.02.36.03.19.14.41.17.57,0,.12-.13.25-.32.03-.5.06-.29.12-.57.17-.86.02-.08.04-.17.07-.25.02-.04.03-.07.05-.11.03-.12.05-.25.08-.37Zm17.19,17.58s-.06,0-.09,0c.01.01.03.03.04.03.02,0,.03-.02.05-.02Z"/>
    <path d="m89.39,76.29s-.08,0-.12,0c-.04.03-.08.06-.13.1,0,0,0,0,0,0-.04,0-.08.02-.12.03-.28.08-.57.16-.85.24-.04.03-.09.06-.13.1,0,0,0,0,0,0-.08.01-.16.03-.24.04-.46.11-.93.22-1.39.34-.11.03-.21.09-.31.14-.12,0-.24,0-.36,0-.08.04-.16.08-.25.12-.16.03-.33.06-.49.1-.04,0-.08,0-.12.02-.2,0-.4,0-.61,0-.12.04-.24.08-.37.12-.2,0-.4,0-.61,0-.28.02-.57.05-.85.07-.09-.03-.18-.1-.27-.1-.69,0-1.38,0-2.06.02-.32,0-.64,0-.95,0-.12,0-.24,0-.36,0-.74-.71-1.26-1.56-1.51-2.56-.02-.04-.05-.08-.07-.12-.01-.12-.03-.25-.04-.37-.03-.04-.05-.08-.08-.12,0-.54-.03-1.09,0-1.63.02-.35.11-.7.17-1.05.02-.04.05-.08.07-.12.09-.32.18-.64.27-.96.15-.17.31-.34.46-.51.04,0,.08.02.12.03.05.16.1.32.15.48.03.04.06.09.09.13v.23s.06.08.08.12c.02.08.04.16.07.25,0,.08,0,.16,0,.24.03.04.06.09.1.13,0,0,0,0,0,0,0,.12,0,.24,0,.36.03.04.05.08.08.12l.19.73c.11.25.22.49.33.74.12.2.25.4.37.6.09.07.18.15.27.22.2.12.39.24.59.35.04,0,.08.02.11.03h0s.08.07.12.1c.08.01.16.03.25.04.12.03.25.06.37.1.08,0,.15-.02.23-.03.12.01.25.03.37.04.36.17.73.17,1.09,0l.13-.13c.12,0,.24.02.36.02.21.13.41.17.6-.05.08-.03.17-.05.25-.08.17.14.34.16.48-.05.33-.07.65-.15.98-.22.12-.03.24-.07.36-.1.41-.16.81-.33,1.22-.49.04,0,.08,0,.12.01.08-.04.16-.08.24-.12.12-.04.24-.08.37-.12.04-.01.08-.02.11-.03h0s.08-.06.13-.09c.12-.04.24-.08.37-.12.04-.01.08-.02.11-.03h0c.12-.05.24-.09.36-.14.09-.07.18-.14.26-.21.04,0,.08,0,.12.02.04-.01.08-.02.11-.03,0,0,0,0,0,0,.08-.03.16-.06.25-.09.29-.17.57-.34.86-.51.2-.07.4-.15.6-.22.04-.01.08-.02.11-.03,0,0,0,0,0,0,.08-.03.17-.06.25-.09,0,0,0-.04,0-.04.53-.28,1.06-.55,1.59-.83.12-.05.24-.1.36-.15.31-.12.61-.26.92-.36.67-.2.85-.75,1-1.32.3-.61.46-1.25.34-1.94-.02-.04-.05-.09-.07-.13-.02-.12-.03-.24-.05-.36-.02-.05-.04-.1-.07-.15-.17-.6-.53-1.11-.93-1.57-.89-1.05-1.86-2.04-2.74-3.11-1.9-2.32-3.82-4.63-5.38-7.2-1.25-2.05-2.2-4.23-2.74-6.57-.12-.52-.18-1.05-.27-1.57,0-.28,0-.57,0-.85.01-.32.02-.65.03-.97.12-.09.24-.18.35-.27.28.06.56.12.83.17.1.19.2.39.3.58.02.04.05.08.07.13.02.08.04.15.06.23.02.04.04.08.06.13.03.69.21,1.33.54,1.94.07.16.13.31.2.47.01.05.02.09.04.14.03.03.06.07.08.1.01.05.03.1.04.14.03.03.06.06.09.1l.02.02c-.04.18.06.25.21.27.04.08.07.15.11.23.37.61.73,1.21,1.1,1.82l.27.48c.04.08.09.16.13.24-.02.04-.02.08,0,.11.07.08.14.17.22.25,0,.04.01.08.03.11l.21.25c.11.13.23.25.34.38.34.62.73,1.2,1.23,1.7,0,.04,0,.08.03.11.19.25.36.51.56.76.71.89,1.42,1.78,2.14,2.65.65.78,1.32,1.55,1.99,2.32.06.07.17.09.25.13,0,0,0,0,0,0,.03.49.45.67.75.96.07.08.14.17.22.25.33.36.66.72.99,1.08.04.04.09.08.13.13.3.28.62.55.91.85.47.48.93.97,1.39,1.46.15.56.12,1.12.01,1.68-.03.05-.06.09-.09.14,0,.12-.02.24-.02.36-.03.12-.05.25-.08.37-.1.28-.19.56-.29.84-.07.13-.14.25-.21.38-.09.32-.18.64-.27.96l-.08.13c-.01.12-.02.24-.04.37-.04.1-.08.19-.12.29-.05.14-.08.29-.12.43,0,0,0,0,0,0-.08.04-.16.07-.24.11-.28.21-.57.41-.85.62-.08.04-.16.08-.24.12,0,0,0,0,0,0-.04.04-.09.08-.13.12-.4.24-.81.48-1.21.72-.08.05-.16.09-.24.14,0,0,0,0,0,0-.05.04-.09.08-.14.12-.16.08-.31.16-.47.25-.08.04-.16.08-.24.13,0,0,0,0,0,0-.04.04-.09.07-.13.11-.24.12-.48.24-.72.37-.08.04-.16.08-.24.13,0,0,0,0,0,0-.05.04-.1.07-.15.11-.52.26-1.03.51-1.55.77-.08.03-.17.06-.25.09,0,0,0,0,0,0-.04,0-.08.02-.12.03-.2.08-.41.16-.61.24-.04.03-.08.06-.13.1,0,0,0,0,0,0-.04,0-.08.02-.11.03-.32.12-.65.24-.97.36-.04.03-.09.06-.13.09,0,0,0,0,0,0-.04,0-.08.02-.11.03Z"/>
    <path class="cls-7" d="m75.41,92.82c-.12,0-.24-.02-.36-.02-.08-.03-.17-.06-.25-.1-1.22-.29-2.32-.81-3.37-1.5-1.17-.77-1.94-1.89-2.75-2.97-.64-.86-1.22-1.77-1.88-2.6-.47-.59-1.04-1.11-1.59-1.63-.3-.29-.5-.62-.53-1.04.12-.46.48-.49.86-.49.37,0,.73,0,1.1,0,.09.15.19.31.28.46.03.05.05.1.08.15.18.32.35.65.53.97.03.04.06.08.09.12h0s.08.08.11.12c.2.25.39.49.59.74.14.43.49.66.86.86.5.59,1.17.94,1.83,1.3.28.13.56.27.84.4.29.14.57.32.87.41.51.16,1.04.27,1.57.4.44.13.88.27,1.32.38.28.07.58.07.86.11.24.04.49.08.73.12.45.04.89.08,1.34.12.08,0,.16,0,.24,0,.03.02.07.03.11.03.34.03.68.06,1.02.09.27.01.53.03.8.04.2.03.39.07.59.07,1.22.01,2.44.01,3.66.02.38,0,.77.03,1.15.01.27,0,.55-.07.82-.1.15-.01.31-.02.46-.04.37,0,.74,0,1.11,0,.37,0,.74,0,1.12,0,.03.01.06.02.1.02,0,.08,0,.16.01.24-.03.04-.06.08-.09.12l-.03.12s-.06.08-.09.12c-.3.4-.59.81-.89,1.21-.08.08-.17.16-.25.24-.57.46-1.26.65-1.93.88-.04,0-.08,0-.12,0-.12.04-.24.09-.36.13-.04,0-.08,0-.12,0-.12.04-.24.09-.36.13-.12.04-.25.08-.37.11-.12,0-.24,0-.36,0-.04.02-.09.05-.13.07-.04,0-.08.02-.11.04-.16.03-.33.07-.49.1-.04,0-.08,0-.12.02-.04,0-.08,0-.12,0-.16,0-.32,0-.49,0-.08,0-.16,0-.24,0-.05.03-.09.06-.14.09,0,0,0,0,0,0-.2.02-.39.03-.59.05-.04,0-.08,0-.13,0-.12.04-.24.08-.37.12-.16,0-.32,0-.49,0-.28,0-.56,0-.84,0-.75,0-1.51-.02-2.26-.02-.06,0-.13.07-.19.1-.15,0-.31.01-.46.02-.08-.04-.17-.08-.25-.12-.33-.04-.65-.07-.98-.11h-.36c-.08,0-.16,0-.24,0-.12-.03-.24-.07-.37-.1Z"/>
    <path d="m75.16,79.9s.08,0,.12,0c.08,0,.16,0,.24,0,.2.04.41.09.61.13.04,0,.08,0,.12,0,.08,0,.16,0,.25,0v.04c.24.04.49.07.73.11.16,0,.32,0,.48-.01.08,0,.16,0,.24,0l.73.13c.16,0,.32,0,.48,0,.2.02.41.03.61.05.57.03,1.15.06,1.72.09,1.4,0,2.81-.02,4.21-.03.36.01.73.03,1.09.04.05.36.11.72.16,1.09.04.24.08.49.12.73.01.74.03,1.48.03,2.21,0,.19-.04.39-.05.59-.24,0-.49.02-.73.02-.89,0-1.79,0-2.68,0-.24-.02-.48-.03-.72-.05-.25-.14-.49-.19-.74,0-.56-.03-1.12-.06-1.69-.1-.16-.03-.33-.07-.49-.1-.16,0-.32-.02-.48-.02-.12-.03-.25-.06-.37-.1-.12,0-.24-.02-.36-.02-.12-.03-.25-.06-.37-.1-.08,0-.16-.02-.24-.02-.12-.03-.25-.06-.37-.1-1.77-.4-3.53-.84-5.16-1.69-.21-.11-.44-.19-.66-.29-.04-.02-.09-.05-.13-.07-.04-.01-.08-.03-.12-.04-.04-.04-.08-.08-.13-.11-1.53-.88-2.85-1.99-3.75-3.54-.02-.04-.03-.08-.05-.12-.03-.04-.05-.09-.08-.13-.04-.04-.08-.08-.12-.12-.01-.08-.02-.15-.03-.23.01-.04.02-.07.03-.11.32.11.65.23.97.34.16.05.32.11.48.16.84.44,1.77.6,2.69.8h.06s.06,0,.06,0c.03.03.07.04.11.04.05.03.09.06.14.09.15.02.31.05.46.07.86.14,1.72.28,2.58.41Z"/>
    <path class="cls-3" d="m69.95,46.41c.07.15.14.31.22.46.57,1.56,1.56,2.81,2.8,3.89.17.14.34.29.51.43.23.3.47.6.7.9.02.04.03.08.05.12.03.04.05.09.08.13.05.2.1.39.15.59.02.44.04.88.06,1.32l-.09.25-.08.37c-.26.58-.72.99-1.14,1.44-.08.05-.16.09-.24.14-.08.08-.16.16-.24.24-.08.04-.17.08-.25.12-.04.04-.08.07-.12.11-.08.05-.16.09-.24.14,0,0,0,0,0,0-.05.04-.1.08-.14.11-.4.12-.8.24-1.2.36-.16.05-.32.09-.48.14-.04,0-.08,0-.12.02-.2,0-.4,0-.61,0-.12,0-.24-.02-.36-.02-.65,0-1.29-.02-1.94-.01-.09,0-.18.07-.27.1-.12,0-.23.02-.35.03-.17-.04-.33-.07-.5-.11-.12,0-.24,0-.36-.01-.12-.03-.25-.06-.37-.1-.08,0-.16-.02-.23-.02-.08-.03-.17-.07-.25-.1-.49-.19-1-.35-1.47-.57-.93-.45-1.53-1.14-1.5-2.24.02-.13.02-.28.07-.4.14-.35.17-.78.59-.96.41.04.81.08,1.22.13.49.08.97.16,1.46.24.16.04.32.08.49.12l.73.11c.08,0,.15,0,.23,0,.21.05.41.09.62.14.08,0,.16,0,.24,0,.04.01.08.03.12.04.49.17.97.17,1.46,0,.04-.04.09-.09.13-.13.83.04,1.47-.39,2.11-.88-.39-.67-.78-1.33-1.15-2-.65-1.15-1.25-2.33-1.71-3.57-.31-.82-.64-1.64-.75-2.52-.03-.23-.07-.47-.08-.71-.02-.38-.03-.77-.04-1.15.05-.28.1-.56.16-.84.08,0,.16,0,.24,0,.12.24.24.48.36.72.01.04.03.08.04.12.03.05.06.09.08.14.05.07.09.15.14.22,0,.1-.03.21,0,.3.33.76.66,1.51,1,2.26.02.04.05.08.07.12l.13.27Z"/>
    <path d="m49.74,40.3c-.03-.44-.06-.89-.09-1.33.04-.16.07-.33.11-.49.03-.05.05-.1.08-.16h0c0-.07.01-.13.02-.19l.49-1.48c.06-.12.11-.24.17-.36.24-.02.22-.2.22-.36.04-.08.08-.16.13-.24.03-.04.06-.08.08-.12.02-.04.04-.08.06-.12.2-.29.41-.57.61-.86.03-.04.06-.09.09-.13.21-.27.42-.54.63-.81.04,0,.08-.02.12-.03.04-.07.08-.15.11-.22,0,0,.01-.02.01-.02.07-.04.15-.09.22-.13.21-.24.42-.48.64-.72.07-.08.14-.16.22-.24,0,0,.01-.01.01-.01.08-.04.15-.07.23-.11.04-.04.08-.09.12-.13.04-.04.08-.09.12-.13.2-.16.4-.32.6-.48.08-.04.17-.08.25-.13.48-.32.97-.64,1.45-.96.17-.11.34-.23.51-.35.24-.07.48-.13.71-.21.32-.11.61-.36.98-.3.12-.03.24-.06.36-.1.08,0,.16-.02.24-.03.2-.03.4-.06.61-.1.08,0,.17,0,.25-.01.07.07.16.22.21.21.1-.02.18-.14.27-.21.08,0,.16,0,.25,0,.16.03.33.07.49.1.12,0,.24,0,.36-.01.16.05.32.1.48.15.32.18.67.32.97.53.38.28.73.61,1.09.92.09.28.18.56.27.83.02.04.05.09.07.13.02.16.04.32.05.49-.02.04-.03.08-.05.12-.02.04-.05.09-.07.13,0,.34-.14.62-.37.86-.12,0-.24,0-.36,0-.12,0-.24-.02-.36-.03-.12-.03-.25-.06-.37-.1h-.49s-.07-.03-.11-.03c-.08-.05-.17-.1-.25-.14-.61-.18-1.22-.18-1.84,0-.12.01-.24.03-.36.04-.08.03-.16.06-.25.08-.04.01-.08.02-.12.04-.17.03-.33.06-.5.09-.41.11-.87.05-1.2.39-.44-.02-.76.24-1.1.45-.08.04-.16.08-.24.13,0,0,0,0,0,0-.05.04-.09.08-.14.12-.24.16-.48.33-.72.49-.08.04-.16.08-.25.13-.08.08-.16.17-.23.25-.25,0-.38.15-.46.36-.17.2-.34.4-.51.6-.08.05-.15.09-.23.14h-.01s-.06.08-.09.12h-.03s0,.04,0,.04l-.13.21s-.08.08-.12.11c-.03.04-.06.09-.1.13-.03.03-.04.06-.03.1-.07.05-.14.09-.21.14-.02.03-.03.07-.03.11-.03.04-.07.09-.1.13-.25.4-.5.8-.75,1.2-.04.05-.07.09-.11.14,0,0,0,0,0,0-.04.08-.09.16-.13.24-.08.16-.16.32-.24.48,0,0,0,0,0,0-.03.04-.06.09-.08.13-.01.03-.03.07-.04.1,0,0,0,0,0,0l-.19.15s-.03.09-.04.13c-.03.03-.06.07-.09.1-.01.05-.02.09-.04.14-.03.03-.06.07-.09.1-.01.05-.02.09-.03.14-.08.16-.15.32-.23.47,0,.07-.02.15-.03.22-.22.19-.43.2-.68.02-.39-.27-.62-.62-.67-1.09Z"/>
    <path class="cls-7" d="m99.48,76.03l2.07-1.08c.11,0,.22,0,.33,0-.04.13-.07.24-.1.35-.24.44-.48.89-.72,1.33-.04.04-.07.09-.11.13,0,0,0,0,0,0-.04.08-.09.16-.13.23-.04.08-.08.16-.12.23-.04.04-.07.09-.11.13,0,0,0,0,0,0-.05.08-.09.16-.14.23-.2.28-.4.57-.59.85-.03.04-.06.09-.09.13-.21.28-.42.56-.64.84-.03.04-.06.08-.09.13-.17.2-.34.4-.51.6-.03.04-.07.09-.1.13-.69.65-1.39,1.31-2.08,1.96-.04.03-.08.07-.12.1,0,0,0,0,0,0-.04.04-.08.08-.12.12-.25.16-.49.31-.74.47-.08.05-.16.09-.24.14,0,0,0,0,0,0-.05.04-.09.08-.14.11-.4.17-.8.35-1.2.52-.04.03-.08.06-.12.1,0,0,0,0,0,0-.04,0-.08.02-.12.03-.12.04-.24.08-.37.12-.04.03-.09.06-.13.09,0,0,0,0,0,0-.04,0-.08.02-.11.03h-.12s-.09.06-.13.09c0,0,0,0,0,0-.04,0-.08.01-.11.03-.24.08-.49.16-.73.24-.12.03-.25.07-.37.1-.04,0-.08,0-.12.02-.16,0-.32,0-.48,0-.04,0-.08,0-.12,0-.05.03-.09.06-.14.09,0,0,0,0,0,0-.16.01-.32.03-.48.04-.16,0-.32-.01-.48-.02-.25,0-.49,0-.74,0-.03-.25-.08-.5-.08-.75-.02-1.09-.03-2.18-.03-3.27,0-.57.02-.57.6-.62.32-.07.64-.17.97-.22,1.09-.17,2.15-.45,3.16-.87l.25-.09c.37-.16.73-.33,1.1-.49.43-.01.75-.27,1.09-.49.24-.12.49-.24.73-.36.4-.2.8-.41,1.21-.61.16-.09.32-.18.48-.27.37-.19.73-.39,1.1-.58Z"/>
  </g>
</svg>