<?xml version="1.0" encoding="UTF-8"?>
<svg xmlns="http://www.w3.org/2000/svg" viewBox="0 0 126.86 123.97">
  <defs>
    <style>
      .cls-1 {
        fill: #fff;
      }

      .cls-2 {
        fill: #326ce5;
        stroke: #fff;
        stroke-miterlimit: 10;
        stroke-width: 3px;
      }
    </style>
  </defs>
  <g id="fond">
    <path class="cls-2" d="m61.6,1.92L15.32,24.21c-1.16.56-2,1.61-2.28,2.86L1.61,77.15c-.29,1.25.01,2.56.81,3.57l32.03,40.17c.8,1,2.01,1.59,3.3,1.59h51.37c1.28,0,2.5-.58,3.3-1.59l32.03-40.17c.8-1,1.1-2.32.81-3.57l-11.43-50.09c-.29-1.25-1.12-2.3-2.28-2.86L65.26,1.92c-1.16-.56-2.5-.56-3.66,0Z"/>
  </g>
  <g id="quotas">
    <path class="cls-1" d="m36.32,84.15c-7.22-8.85-9.69-20.93-6.53-31.9,2.67-9.26,9.22-17.11,17.79-21.49s19.36-4.95,28.58-1.4,16.16,10.63,19.71,19.43c4.73,11.73,2.73,25.41-5.24,35.25-1.2,1.49.91,3.62,2.12,2.12,7.76-9.59,10.62-22.44,7.29-34.38-2.81-10.11-9.92-18.83-19.26-23.61s-21.29-5.56-31.36-1.52-17.44,11.63-21.34,21.34c-5.15,12.83-2.58,27.64,6.11,38.28,1.22,1.5,3.33-.64,2.12-2.12h0Z"/>
    <rect class="cls-1" x="26.57" y="60.92" width="7.04" height="2.25" rx="1.13" ry="1.13"/>
    <rect class="cls-1" x="93.52" y="60.92" width="7.04" height="2.25" rx="1.13" ry="1.13"/>
    <rect class="cls-1" x="60.02" y="27.31" width="7.04" height="2.25" rx="1.13" ry="1.13" transform="translate(35.1 91.98) rotate(-90)"/>
    <rect class="cls-1" x="32.9" y="40.33" width="7.04" height="2.25" rx="1.13" ry="1.13" transform="translate(32.86 96.53) rotate(-135)"/>
    <rect class="cls-1" x="86.86" y="40.47" width="7.04" height="2.25" rx="1.13" ry="1.13" transform="translate(-2.94 76.09) rotate(-45)"/>
    <rect class="cls-1" x="33" y="81.64" width="8" height="3.27" rx="1.5" ry="1.5" transform="translate(122.05 116) rotate(135)"/>
    <rect class="cls-1" x="86.16" y="81.64" width="8" height="3.27" rx="1.5" ry="1.5" transform="translate(95.02 205.91) rotate(-135)"/>
    <g>
      <rect class="cls-1" x="32.81" y="20.67" width="5.02" height="7.9" rx=".39" ry=".39" transform="translate(-7.62 27.88) rotate(-39.22)"/>
      <path class="cls-1" d="m39.58,30.44l-5.8-.97c-.42-.07-.57-.61-.23-.88l6.01-4.9c.33-.27.83-.02.82.41l-.21,5.87c-.01.3-.28.53-.58.48Z"/>
    </g>
    <path class="cls-1" d="m64.06,58.84l-17.33-22.46c-.2-.26-.57-.31-.84-.12l-1.54,1.14c-.26.2-.32.57-.13.84l16.42,23.13c-.1.87.18,1.79.9,2.48.85.8,2.14,1.02,3.2.53,1.74-.81,2.22-2.95,1.14-4.41-.46-.62-1.12-1-1.83-1.13Z"/>
  </g>
</svg>