<?xml version="1.0" encoding="UTF-8"?>
<svg xmlns="http://www.w3.org/2000/svg" viewBox="0 0 126.86 123.97">
  <defs>
    <style>
      .cls-1 {
        fill: #326ce5;
        stroke: #fff;
        stroke-width: 3px;
      }

      .cls-1, .cls-2 {
        stroke-miterlimit: 10;
      }

      .cls-2 {
        fill: #fff;
        stroke: #326ce5;
      }
    </style>
  </defs>
  <g id="fond">
    <path class="cls-1" d="m61.6,1.92L15.32,24.21c-1.16.56-2,1.61-2.28,2.86L1.61,77.15c-.29,1.25.01,2.56.81,3.57l32.03,40.17c.8,1,2.01,1.59,3.3,1.59h51.37c1.28,0,2.5-.58,3.3-1.59l32.03-40.17c.8-1,1.1-2.32.81-3.57l-11.43-50.09c-.29-1.25-1.12-2.3-2.28-2.86L65.26,1.92c-1.16-.56-2.5-.56-3.66,0Z"/>
  </g>
  <g id="vol">
    <g>
      <ellipse class="cls-2" cx="63.43" cy="55.14" rx="39.31" ry="7.5"/>
      <path class="cls-2" d="m102.74,78.99c0,.88-.46,1.69-1.21,2.14-3.33,1.97-14,6.85-38.09,6.85s-34.9-4.86-38.13-6.84c-.74-.45-1.18-1.25-1.18-2.11v-22.01s5.78,6.94,39.31,6.6c35.24-.36,39.31-6.6,39.31-6.6v21.97Z"/>
    </g>
  </g>
</svg>