<?xml version="1.0" encoding="UTF-8"?>
<svg xmlns="http://www.w3.org/2000/svg" viewBox="0 0 126.86 123.97">
  <defs>
    <style>
      .cls-1, .cls-2 {
        fill: #fff;
      }

      .cls-3 {
        stroke: #fff;
        stroke-width: 3px;
      }

      .cls-3, .cls-4 {
        fill: #326ce5;
      }

      .cls-3, .cls-2 {
        stroke-miterlimit: 10;
      }

      .cls-2 {
        stroke: #326ce5;
      }
    </style>
  </defs>
  <g id="fond">
    <path class="cls-3" d="m61.6,1.92L15.32,24.21c-1.16.56-2,1.61-2.28,2.86L1.61,77.15c-.29,1.25.01,2.56.81,3.57l32.03,40.17c.8,1,2.01,1.59,3.3,1.59h51.37c1.28,0,2.5-.58,3.3-1.59l32.03-40.17c.8-1,1.1-2.32.81-3.57l-11.43-50.09c-.29-1.25-1.12-2.3-2.28-2.86L65.26,1.92c-1.16-.56-2.5-.56-3.66,0Z"/>
  </g>
  <g id="netpol">
    <circle class="cls-1" cx="59.87" cy="61.42" r="29.89"/>
    <g>
      <rect class="cls-4" x="47.71" y="52.56" width="7.53" height="26.79"/>
      <polygon class="cls-4" points="51.48 88.01 41.48 70.69 61.48 70.69 51.48 88.01"/>
    </g>
    <g>
      <rect class="cls-4" x="64.5" y="43.49" width="7.53" height="26.79"/>
      <polygon class="cls-4" points="68.27 34.83 58.27 52.15 78.26 52.15 68.27 34.83"/>
    </g>
    <g>
      <ellipse class="cls-4" cx="83.1" cy="78.89" rx="8.92" ry="12.56"/>
      <path class="cls-2" d="m93.05,74.98h0c0-6.22-4.46-11.29-9.95-11.29s-9.95,5.06-9.95,11.29h0s-3.84,0-3.84,0v22.85h27.58v-22.85h-3.84Zm-16.26,0c0-4.22,2.83-7.65,6.31-7.65s6.31,3.43,6.31,7.65h0s-12.62,0-12.62,0h0Z"/>
    </g>
  </g>
</svg>