<?xml version="1.0" encoding="UTF-8"?>
<svg xmlns="http://www.w3.org/2000/svg" viewBox="0 0 126.86 123.97">
  <defs>
    <style>
      .cls-1 {
        fill: #fff;
      }

      .cls-2 {
        fill: #326ce5;
        stroke: #fff;
        stroke-miterlimit: 10;
        stroke-width: 3px;
      }
    </style>
  </defs>
  <g id="fond">
    <path class="cls-2" d="m61.6,1.92L15.32,24.21c-1.16.56-2,1.61-2.28,2.86L1.61,77.15c-.29,1.25.01,2.56.81,3.57l32.03,40.17c.8,1,2.01,1.59,3.3,1.59h51.37c1.28,0,2.5-.58,3.3-1.59l32.03-40.17c.8-1,1.1-2.32.81-3.57l-11.43-50.09c-.29-1.25-1.12-2.3-2.28-2.86L65.26,1.92c-1.16-.56-2.5-.56-3.66,0Z"/>
  </g>
  <g id="ds">
    <g>
      <rect class="cls-1" x="77.31" y="67.73" width="9.04" height="1.19"/>
      <rect class="cls-1" x="54.8" y="34.34" width="9.08" height="1.19"/>
      <rect class="cls-1" x="65.9" y="67.73" width="9.38" height="1.19"/>
      <rect class="cls-1" x="54.8" y="67.73" width="9.08" height="1.19"/>
      <rect class="cls-1" x="65.9" y="34.34" width="9.38" height="1.19"/>
      <rect class="cls-1" x="49.49" y="52.49" width="1.19" height="9.38"/>
      <rect class="cls-1" x="49.49" y="41.39" width="1.19" height="9.08"/>
      <rect class="cls-1" x="90.77" y="52.49" width="1.19" height="9.38"/>
      <polygon class="cls-1" points="52.78 67.73 50.69 67.73 50.69 63.9 49.49 63.9 49.49 68.92 52.78 68.92 52.78 67.73"/>
      <polygon class="cls-1" points="90.77 63.9 90.77 67.73 88.37 67.73 88.37 68.92 91.96 68.92 91.96 63.9 90.77 63.9"/>
      <polygon class="cls-1" points="50.69 39.37 50.69 35.54 52.78 35.54 52.78 34.34 49.49 34.34 49.49 39.37 50.69 39.37"/>
      <rect class="cls-1" x="77.31" y="34.34" width="9.04" height="1.19"/>
      <rect class="cls-1" x="90.77" y="41.39" width="1.19" height="9.08"/>
      <polygon class="cls-1" points="88.37 35.54 90.77 35.54 90.77 39.37 91.96 39.37 91.96 34.34 88.37 34.34 88.37 35.54"/>
    </g>
    <g>
      <rect class="cls-1" x="69.42" y="77.04" width="9.04" height="1.19"/>
      <rect class="cls-1" x="46.91" y="43.66" width="9.08" height="1.19"/>
      <rect class="cls-1" x="58.01" y="77.04" width="9.38" height="1.19"/>
      <rect class="cls-1" x="46.91" y="77.04" width="9.08" height="1.19"/>
      <rect class="cls-1" x="58.01" y="43.66" width="9.38" height="1.19"/>
      <rect class="cls-1" x="41.6" y="61.81" width="1.19" height="9.38"/>
      <rect class="cls-1" x="41.6" y="50.7" width="1.19" height="9.08"/>
      <rect class="cls-1" x="82.88" y="61.81" width="1.19" height="9.38"/>
      <polygon class="cls-1" points="44.89 77.04 42.79 77.04 42.79 73.21 41.6 73.21 41.6 78.24 44.89 78.24 44.89 77.04"/>
      <polygon class="cls-1" points="82.88 73.21 82.88 77.04 80.48 77.04 80.48 78.24 84.07 78.24 84.07 73.21 82.88 73.21"/>
      <polygon class="cls-1" points="42.79 48.68 42.79 44.85 44.89 44.85 44.89 43.66 41.6 43.66 41.6 48.68 42.79 48.68"/>
      <rect class="cls-1" x="69.42" y="43.66" width="9.04" height="1.19"/>
      <rect class="cls-1" x="82.88" y="50.7" width="1.19" height="9.08"/>
      <polygon class="cls-1" points="80.48 44.85 82.88 44.85 82.88 48.68 84.07 48.68 84.07 43.66 80.48 43.66 80.48 44.85"/>
    </g>
    <g>
      <rect class="cls-1" x="34.9" y="53.47" width="41.28" height="33.39"/>
      <rect class="cls-1" x="34.9" y="88.09" width="41.28" height="3.64"/>
    </g>
  </g>
</svg>