<?xml version="1.0" encoding="UTF-8"?>
<svg xmlns="http://www.w3.org/2000/svg" viewBox="0 0 126.86 123.97">
  <defs>
    <style>
      .cls-1 {
        fill: #fff;
      }

      .cls-2 {
        fill: #326ce5;
        stroke: #fff;
        stroke-miterlimit: 10;
        stroke-width: 3px;
      }
    </style>
  </defs>
  <g id="fond">
    <path class="cls-2" d="m61.6,1.92L15.32,24.21c-1.16.56-2,1.61-2.28,2.86L1.61,77.15c-.29,1.25.01,2.56.81,3.57l32.03,40.17c.8,1,2.01,1.59,3.3,1.59h51.37c1.28,0,2.5-.58,3.3-1.59l32.03-40.17c.8-1,1.1-2.32.81-3.57l-11.43-50.09c-.29-1.25-1.12-2.3-2.28-2.86L65.26,1.92c-1.16-.56-2.5-.56-3.66,0Z"/>
  </g>
  <g id="ep">
    <rect class="cls-1" x="45.92" y="32.9" width="35.03" height="16.58"/>
    <rect class="cls-1" x="51.94" y="71.83" width="22.99" height="13.76"/>
    <rect class="cls-1" x="80.95" y="71.83" width="22.99" height="13.76"/>
    <rect class="cls-1" x="22.93" y="71.83" width="22.99" height="13.76"/>
    <g>
      <rect class="cls-1" x="61.56" y="52.13" width="3.75" height="13.34"/>
      <polygon class="cls-1" points="63.43 69.79 58.45 61.16 68.41 61.16 63.43 69.79"/>
    </g>
    <g>
      <rect class="cls-1" x="81.89" y="50.52" width="3.87" height="18.23" transform="translate(-17.61 76.73) rotate(-45)"/>
      <polygon class="cls-1" points="93.27 69.16 83.65 66.59 90.69 59.54 93.27 69.16"/>
    </g>
    <g>
      <rect class="cls-1" x="41.3" y="50.68" width="3.87" height="18.23" transform="translate(31.52 132.64) rotate(-135)"/>
      <polygon class="cls-1" points="33.78 69.33 43.4 66.75 36.36 59.71 33.78 69.33"/>
    </g>
  </g>
</svg>