<?xml version="1.0" encoding="UTF-8"?>
<svg xmlns="http://www.w3.org/2000/svg" viewBox="0 0 126.86 123.97">
  <defs>
    <style>
      .cls-1, .cls-2 {
        fill: #fff;
      }

      .cls-2 {
        stroke: #326ce5;
        stroke-width: .5px;
      }

      .cls-2, .cls-3 {
        stroke-miterlimit: 10;
      }

      .cls-3 {
        stroke: #fff;
        stroke-width: 3px;
      }

      .cls-3, .cls-4 {
        fill: #326ce5;
      }
    </style>
  </defs>
  <g id="fond">
    <path class="cls-3" d="m61.6,1.92L15.32,24.21c-1.16.56-2,1.61-2.28,2.86L1.61,77.15c-.29,1.25.01,2.56.81,3.57l32.03,40.17c.8,1,2.01,1.59,3.3,1.59h51.37c1.28,0,2.5-.58,3.3-1.59l32.03-40.17c.8-1,1.1-2.32.81-3.57l-11.43-50.09c-.29-1.25-1.12-2.3-2.28-2.86L65.26,1.92c-1.16-.56-2.5-.56-3.66,0Z"/>
  </g>
  <g id="secret">
    <rect class="cls-1" x="23.98" y="28.67" width="13.77" height="7.05"/>
    <rect class="cls-1" x="47.82" y="28.67" width="54.9" height="7.05" transform="translate(150.54 64.38) rotate(180)"/>
    <rect class="cls-1" x="24.09" y="88.35" width="13.77" height="7.05"/>
    <rect class="cls-1" x="47.82" y="88.35" width="54.9" height="7.05" transform="translate(150.54 183.76) rotate(180)"/>
    <rect class="cls-1" x="43.62" y="48.73" width="13.77" height="7.05"/>
    <rect class="cls-1" x="67.46" y="48.73" width="35.26" height="7.05" transform="translate(170.18 104.51) rotate(180)"/>
    <rect class="cls-1" x="43.54" y="68.54" width="13.77" height="7.05"/>
    <rect class="cls-1" x="67.38" y="68.54" width="35.26" height="7.05" transform="translate(170.02 144.13) rotate(180)"/>
    <g>
      <path class="cls-2" d="m63.43,72.9c-10.18,0-18.47-9.35-18.47-20.85s8.28-20.85,18.47-20.85,18.46,9.35,18.46,20.85-8.28,20.85-18.46,20.85Zm0-33.75c-5.8,0-10.52,5.79-10.52,12.9s4.72,12.9,10.52,12.9,10.52-5.79,10.52-12.9-4.72-12.9-10.52-12.9Z"/>
      <rect class="cls-2" x="38.85" y="52.05" width="49.16" height="40.72" rx="2.65" ry="2.65"/>
      <circle class="cls-4" cx="63.43" cy="71.35" r="8.73"/>
    </g>
  </g>
</svg>