<?xml version="1.0" encoding="UTF-8"?>
<svg xmlns="http://www.w3.org/2000/svg" viewBox="0 0 126.86 123.97">
  <defs>
    <style>
      .cls-1 {
        fill: #fff;
      }

      .cls-2 {
        fill: #326ce5;
        stroke: #fff;
        stroke-miterlimit: 10;
        stroke-width: 3px;
      }
    </style>
  </defs>
  <g id="fond">
    <path class="cls-2" d="m61.6,1.92L15.32,24.21c-1.16.56-2,1.61-2.28,2.86L1.61,77.15c-.29,1.25.01,2.56.81,3.57l32.03,40.17c.8,1,2.01,1.59,3.3,1.59h51.37c1.28,0,2.5-.58,3.3-1.59l32.03-40.17c.8-1,1.1-2.32.81-3.57l-11.43-50.09c-.29-1.25-1.12-2.3-2.28-2.86L65.26,1.92c-1.16-.56-2.5-.56-3.66,0Z"/>
  </g>
  <g id="rs">
    <g>
      <rect class="cls-1" x="81.45" y="71.09" width="12.03" height="1.26"/>
      <rect class="cls-1" x="51.48" y="35.7" width="12.09" height="1.26"/>
      <rect class="cls-1" x="66.26" y="71.09" width="12.49" height="1.26"/>
      <rect class="cls-1" x="51.48" y="71.09" width="12.09" height="1.26"/>
      <rect class="cls-1" x="66.26" y="35.7" width="12.49" height="1.26"/>
      <rect class="cls-1" x="44.42" y="54.94" width="1.59" height="9.95"/>
      <rect class="cls-1" x="44.42" y="43.17" width="1.59" height="9.63"/>
      <rect class="cls-1" x="99.37" y="54.94" width="1.59" height="9.95"/>
      <polygon class="cls-1" points="48.79 71.09 46 71.09 46 67.03 44.42 67.03 44.42 72.35 48.79 72.35 48.79 71.09"/>
      <polygon class="cls-1" points="99.37 67.03 99.37 71.09 96.18 71.09 96.18 72.35 100.95 72.35 100.95 67.03 99.37 67.03"/>
      <polygon class="cls-1" points="46 41.02 46 36.96 48.79 36.96 48.79 35.7 44.42 35.7 44.42 41.02 46 41.02"/>
      <rect class="cls-1" x="81.45" y="35.7" width="12.03" height="1.26"/>
      <rect class="cls-1" x="99.37" y="43.17" width="1.59" height="9.63"/>
      <polygon class="cls-1" points="96.18 36.96 99.37 36.96 99.37 41.02 100.95 41.02 100.95 35.7 96.18 35.7 96.18 36.96"/>
    </g>
    <g>
      <rect class="cls-1" x="70.94" y="80.96" width="12.03" height="1.26"/>
      <rect class="cls-1" x="40.98" y="45.57" width="12.09" height="1.26"/>
      <rect class="cls-1" x="55.76" y="80.96" width="12.49" height="1.26"/>
      <rect class="cls-1" x="40.98" y="80.96" width="12.09" height="1.26"/>
      <rect class="cls-1" x="55.76" y="45.57" width="12.49" height="1.26"/>
      <rect class="cls-1" x="33.91" y="64.81" width="1.59" height="9.95"/>
      <rect class="cls-1" x="33.91" y="53.04" width="1.59" height="9.63"/>
      <rect class="cls-1" x="88.86" y="64.81" width="1.59" height="9.95"/>
      <polygon class="cls-1" points="38.28 80.96 35.5 80.96 35.5 76.9 33.91 76.9 33.91 82.23 38.28 82.23 38.28 80.96"/>
      <polygon class="cls-1" points="88.86 76.9 88.86 80.96 85.67 80.96 85.67 82.23 90.45 82.23 90.45 76.9 88.86 76.9"/>
      <polygon class="cls-1" points="35.5 50.89 35.5 46.83 38.28 46.83 38.28 45.57 33.91 45.57 33.91 50.89 35.5 50.89"/>
      <rect class="cls-1" x="70.94" y="45.57" width="12.03" height="1.26"/>
      <rect class="cls-1" x="88.86" y="53.04" width="1.59" height="9.63"/>
      <polygon class="cls-1" points="85.67 46.83 88.86 46.83 88.86 50.89 90.45 50.89 90.45 45.57 85.67 45.57 85.67 46.83"/>
    </g>
    <rect class="cls-1" x="24.99" y="55.97" width="54.95" height="35.39" rx="1" ry="1"/>
  </g>
</svg>