<?xml version="1.0" encoding="UTF-8"?>
<svg xmlns="http://www.w3.org/2000/svg" viewBox="0 0 126.86 123.97">
  <defs>
    <style>
      .cls-1 {
        fill: #fff;
      }

      .cls-2 {
        stroke: #fff;
        stroke-miterlimit: 10;
        stroke-width: 3px;
      }

      .cls-2, .cls-3 {
        fill: #326ce5;
      }
    </style>
  </defs>
  <g id="fond">
    <path class="cls-2" d="m61.6,1.92L15.32,24.21c-1.16.56-2,1.61-2.28,2.86L1.61,77.15c-.29,1.25.01,2.56.81,3.57l32.03,40.17c.8,1,2.01,1.59,3.3,1.59h51.37c1.28,0,2.5-.58,3.3-1.59l32.03-40.17c.8-1,1.1-2.32.81-3.57l-11.43-50.09c-.29-1.25-1.12-2.3-2.28-2.86L65.26,1.92c-1.16-.56-2.5-.56-3.66,0Z"/>
  </g>
  <g id="hpa">
    <polygon class="cls-1" points="113.51 61.99 101.76 46.57 101.76 50.88 95.8 50.88 95.8 29.66 31.15 29.66 31.15 50.88 25.1 50.88 25.1 46.57 13.36 61.99 25.1 77.4 25.1 73.09 31.15 73.09 31.15 94.31 95.8 94.31 95.8 73.09 101.76 73.09 101.76 77.4 113.51 61.99"/>
    <g id="cube">
      <polygon class="cls-3" points="63.44 61.79 42.84 49.89 63.32 38.07 83.92 49.97 63.44 61.79"/>
      <polygon class="cls-3" points="84.36 74 63.76 85.9 63.76 62.26 84.36 50.36 84.36 74"/>
      <polygon class="cls-3" points="63.1 85.9 42.5 74 42.5 50.36 63.1 62.26 63.1 85.9"/>
    </g>
  </g>
</svg>