<?xml version="1.0" encoding="UTF-8"?>
<svg xmlns="http://www.w3.org/2000/svg" viewBox="0 0 126.86 123.97">
  <defs>
    <style>
      .cls-1 {
        fill: #fff;
      }

      .cls-2 {
        fill: #326ce5;
        stroke: #fff;
        stroke-miterlimit: 10;
        stroke-width: 3px;
      }

      .cls-3 {
        fill: none;
      }
    </style>
  </defs>
  <g id="fond">
    <path class="cls-2" d="m61.6,1.92L15.32,24.21c-1.16.56-2,1.61-2.28,2.86L1.61,77.15c-.29,1.25.01,2.56.81,3.57l32.03,40.17c.8,1,2.01,1.59,3.3,1.59h51.37c1.28,0,2.5-.58,3.3-1.59l32.03-40.17c.8-1,1.1-2.32.81-3.57l-11.43-50.09c-.29-1.25-1.12-2.3-2.28-2.86L65.26,1.92c-1.16-.56-2.5-.56-3.66,0Z"/>
  </g>
  <g id="pvc">
    <g>
      <path class="cls-3" d="m38.49,56.12c-2.85-.51-5.4-1.12-7.46-1.86v2.9c1.87.68,4.31,1.38,7.46,1.99v-3.02Z"/>
      <path class="cls-3" d="m38.49,50.97h-7.46v1.22c1.79.67,4.31,1.33,7.46,1.91v-3.13Z"/>
      <path class="cls-3" d="m38.49,65.51v-4.34c-3.05-.57-5.51-1.23-7.46-1.9v6.23h7.46Z"/>
      <path class="cls-3" d="m28.58,50.97c.08.06.15.11.24.17v-.17h-.24Z"/>
      <path class="cls-3" d="m28.82,48.68c-.06.04-.11.08-.17.12h.17v-.12Z"/>
      <path class="cls-3" d="m62.33,48.8v-5.01c-3.66.02-7.1.14-10.27.35v4.67h10.27Z"/>
      <path class="cls-3" d="m49.86,48.8v-4.51c-3.41.27-6.48.63-9.17,1.05v3.46h9.17Z"/>
      <path class="cls-3" d="m38.49,48.8v-3.08c-3.15.58-5.67,1.24-7.46,1.91v1.18h7.46Z"/>
      <path class="cls-3" d="m28.82,58.44c-1.4-.59-2.45-1.16-3.2-1.65v8.72h3.2v-7.07Z"/>
      <path class="cls-3" d="m25.62,67.71v7.87c0,.47.25.9.67,1.15.6.35,1.43.79,2.53,1.27v-10.29h-3.2Z"/>
      <path class="cls-3" d="m76.22,67.71v14.87c3.2-.27,6.05-.63,8.57-1.04v-13.83h-8.57Z"/>
      <path class="cls-3" d="m86.99,67.71v13.43c3.31-.64,5.96-1.36,8.06-2.07v-11.36h-8.06Z"/>
      <path class="cls-3" d="m74.02,48.8v-4.71c-2.95-.18-6.12-.28-9.48-.3v5.01h9.48Z"/>
      <path class="cls-3" d="m97.26,78.27c1.48-.59,2.56-1.14,3.3-1.56.43-.25.69-.68.69-1.16v-7.84h-3.99v10.56Z"/>
      <path class="cls-3" d="m64.53,67.71v15.37c3.44-.02,6.6-.14,9.48-.33v-15.04h-9.48Z"/>
      <path class="cls-3" d="m31.02,67.71v11.15c1.92.69,4.37,1.4,7.46,2.05v-13.2h-7.46Z"/>
      <path class="cls-3" d="m97.26,58.79v6.72h3.99v-8.62c-.88.57-2.16,1.23-3.99,1.91Z"/>
      <path class="cls-3" d="m40.69,67.71v13.63c2.64.47,5.68.89,9.17,1.19v-14.82h-9.17Z"/>
      <path class="cls-3" d="m84.79,50.97h-8.57v4.61c3.14-.23,6.01-.54,8.57-.91v-3.71Z"/>
      <path class="cls-3" d="m74.02,50.97h-9.48v5.06c3.36-.02,6.53-.12,9.48-.3v-4.76Z"/>
      <path class="cls-3" d="m86.99,65.51h8.06v-5.99c-2.11.62-4.75,1.23-8.06,1.76v4.23Z"/>
      <path class="cls-3" d="m40.69,56.48v3.05c2.61.42,5.65.78,9.17,1.03v-3.06c-3.15-.25-6.27-.58-9.17-1.02Z"/>
      <path class="cls-3" d="m62.33,50.97h-10.27v4.71c3.17.2,6.61.33,10.27.35v-5.06Z"/>
      <path class="cls-3" d="m76.22,65.51h8.57v-3.91c-2.5.34-5.34.63-8.57.86v3.05Z"/>
      <path class="cls-3" d="m52.06,57.66v3.05c3.07.17,6.48.26,10.27.24v-2.92c-3.22-.02-6.74-.14-10.27-.37Z"/>
      <path class="cls-3" d="m64.53,65.51h9.48v-2.91c-2.87.16-6.03.28-9.48.32v2.58Z"/>
      <path class="cls-3" d="m84.79,48.8v-3.66c-2.56-.36-5.42-.67-8.57-.91v4.57h8.57Z"/>
      <path class="cls-3" d="m49.86,50.97h-9.17v3.5c2.69.42,5.76.78,9.17,1.05v-4.55Z"/>
      <path class="cls-3" d="m40.69,65.51h9.17v-2.94c-3.49-.25-6.52-.6-9.17-1.02v3.96Z"/>
      <path class="cls-3" d="m97.26,51.58c.41-.21.75-.41,1.02-.61h-1.02v.61Z"/>
      <path class="cls-3" d="m64.53,58.03v2.89c3.47-.05,6.62-.16,9.48-.33v-2.88c-3.27.2-6.5.3-9.48.32Z"/>
      <path class="cls-3" d="m86.99,50.97v3.37c3.35-.56,6.06-1.2,8.06-1.87v-1.5h-8.06Z"/>
      <path class="cls-3" d="m95.05,48.8v-1.45c-2-.67-4.72-1.32-8.06-1.87v3.33h8.06Z"/>
      <path class="cls-3" d="m98.22,48.8c-.26-.19-.58-.38-.96-.57v.57h.96Z"/>
      <path class="cls-3" d="m76.22,57.56v2.89c3.25-.23,6.09-.53,8.57-.88v-2.89c-2.74.38-5.65.67-8.57.88Z"/>
      <path class="cls-3" d="m52.06,62.7v2.8h10.27v-2.56c-3.77.02-7.18-.07-10.27-.24Z"/>
      <path class="cls-3" d="m86.99,59.24c3.42-.56,6.05-1.2,8.06-1.83v-2.88c-2.26.73-5.02,1.34-8.06,1.82v2.89Z"/>
      <path class="cls-3" d="m52.06,67.71v14.99c3.09.22,6.5.35,10.27.37v-15.37h-10.27Z"/>
      <g>
        <path class="cls-1" d="m86.14,46.39v-2.01c-2.89-.38-5.95-.67-9.02-.88v1.98c3.31.23,6.33.54,9.02.91Z"/>
        <path class="cls-1" d="m37.37,46.97v-2.02c-3,.51-5.69,1.12-7.86,1.86v2.07c1.89-.67,4.54-1.33,7.86-1.91Z"/>
        <path class="cls-1" d="m62.49,45.04v-2c-3.4.02-7.09.14-10.82.37v1.98c3.34-.2,6.96-.33,10.82-.35Z"/>
        <path class="cls-1" d="m49.35,45.55v-1.98c-3.32.25-6.6.58-9.66,1.02v2.01c2.83-.42,6.07-.78,9.66-1.05Z"/>
        <path class="cls-1" d="m74.8,45.34v-1.98c-3.44-.2-6.84-.3-9.99-.32v2c3.54.02,6.88.12,9.99.3Z"/>
        <path class="cls-1" d="m27.19,49.93v-2.19c-1.4.68-2.39,1.45-2.85,2.31h2.67c.06-.04.11-.08.18-.12Z"/>
        <path class="cls-1" d="m100.29,50.05h2.67c-.54-1.02-1.84-1.91-3.68-2.69v2.12c.4.19.74.38,1.01.57Z"/>
        <path class="cls-1" d="m96.96,48.6v-2.06c-2.38-.73-5.29-1.34-8.49-1.82v2.01c3.53.56,6.39,1.2,8.49,1.87Z"/>
      </g>
      <path class="cls-1" d="m64.53,60.92v2c3.45-.05,6.61-.16,9.48-.32v-2.01c-2.86.17-6.01.28-9.48.33Z"/>
      <path class="cls-1" d="m76.22,60.45v2.01c3.22-.23,6.06-.52,8.57-.86v-2.03c-2.48.35-5.32.65-8.57.88Z"/>
      <path class="cls-1" d="m40.69,81.34v2.02c2.66.47,5.7.87,9.17,1.17v-2c-3.49-.31-6.53-.72-9.17-1.19Z"/>
      <path class="cls-1" d="m86.99,61.28c3.31-.53,5.96-1.13,8.06-1.76v-2.11c-2.02.63-4.64,1.27-8.06,1.83v2.04Z"/>
      <path class="cls-1" d="m26.29,76.73c-.42-.25-.67-.68-.67-1.15v-7.87h-2v7.87c0,1.19.62,2.26,1.65,2.87.78.46,1.94,1.06,3.55,1.71v-2.16c-1.1-.48-1.93-.92-2.53-1.27Z"/>
      <path class="cls-1" d="m76.22,82.58v2c3.19-.26,6.03-.62,8.57-1.03v-2.02c-2.51.42-5.36.78-8.57,1.04Z"/>
      <path class="cls-1" d="m25.62,56.78c.75.49,1.8,1.06,3.2,1.65v-2.19c-2.56-1.19-3.38-2.15-3.4-2.17l-1.8-2.39v13.81h2v-8.72Z"/>
      <path class="cls-1" d="m31.02,78.87v2.11c1.98.67,4.44,1.36,7.46,1.97v-2.03c-3.09-.64-5.54-1.36-7.46-2.05Z"/>
      <path class="cls-1" d="m86.99,81.14v2.02c3.24-.61,5.91-1.31,8.06-2v-2.1c-2.1.71-4.76,1.43-8.06,2.07Z"/>
      <path class="cls-1" d="m101.25,75.55c0,.48-.26.91-.69,1.16-.74.42-1.82.97-3.3,1.56v2.14c1.98-.75,3.38-1.44,4.29-1.96,1.05-.6,1.7-1.71,1.7-2.9v-7.84h-2v7.84Z"/>
      <path class="cls-1" d="m52.06,60.71v2c3.09.17,6.5.26,10.27.24v-2c-3.78.02-7.2-.07-10.27-.24Z"/>
      <path class="cls-1" d="m64.53,83.08v2c3.43-.02,6.59-.14,9.48-.33v-2c-2.88.19-6.04.31-9.48.33Z"/>
      <path class="cls-1" d="m40.69,59.53v2.02c2.64.42,5.68.77,9.17,1.02v-2c-3.52-.25-6.56-.61-9.17-1.03Z"/>
      <path class="cls-1" d="m52.06,82.71v2c3.1.22,6.52.35,10.27.37v-2c-3.77-.02-7.18-.16-10.27-.37Z"/>
      <path class="cls-1" d="m38.49,59.14c-3.16-.61-5.6-1.31-7.46-1.99v2.12c1.95.67,4.41,1.32,7.46,1.9v-2.03Z"/>
      <path class="cls-1" d="m101.25,56.88v8.62h2v-14.54l-1.87,3.22s-.82,1.14-4.12,2.45v2.16c1.83-.67,3.11-1.33,3.99-1.91Z"/>
    </g>
  </g>
</svg>