<?xml version="1.0" encoding="UTF-8"?>
<svg xmlns="http://www.w3.org/2000/svg" viewBox="0 0 126.86 123.97">
  <defs>
    <style>
      .cls-1 {
        fill: #326ce5;
        stroke: #fff;
        stroke-width: 3px;
      }

      .cls-1, .cls-2 {
        stroke-miterlimit: 10;
      }

      .cls-2 {
        fill: #fff;
        stroke: #326ce5;
      }
    </style>
  </defs>
  <g id="fond">
    <path class="cls-1" d="m61.6,1.92L15.32,24.21c-1.16.56-2,1.61-2.28,2.86L1.61,77.15c-.29,1.25.01,2.56.81,3.57l32.03,40.17c.8,1,2.01,1.59,3.3,1.59h51.37c1.28,0,2.5-.58,3.3-1.59l32.03-40.17c.8-1,1.1-2.32.81-3.57l-11.43-50.09c-.29-1.25-1.12-2.3-2.28-2.86L65.26,1.92c-1.16-.56-2.5-.56-3.66,0Z"/>
  </g>
  <g id="ing">
    <polygon class="cls-2" points="108.29 44.3 93.54 60.67 93.54 53.77 84.31 53.77 37.98 96.03 20.33 96.03 20.33 77.51 33.57 77.33 79.89 34.83 93.54 34.83 93.54 27.94 108.29 44.3"/>
    <polygon class="cls-2" points="110.04 82.55 95.3 66.18 95.3 73.08 86.06 73.08 39.74 30.82 22.09 30.82 22.09 49.34 35.32 49.52 81.65 92.02 95.3 92.02 95.3 98.91 110.04 82.55"/>
  </g>
</svg>