<?xml version="1.0" encoding="UTF-8"?>
<svg xmlns="http://www.w3.org/2000/svg" viewBox="0 0 126.86 123.97">
  <defs>
    <style>
      .cls-1 {
        fill: #fff;
      }

      .cls-2 {
        stroke: #fff;
        stroke-miterlimit: 10;
        stroke-width: 3px;
      }

      .cls-2, .cls-3 {
        fill: #326ce5;
      }
    </style>
  </defs>
  <g id="fond">
    <path class="cls-2" d="m61.6,1.92L15.32,24.21c-1.16.56-2,1.61-2.28,2.86L1.61,77.15c-.29,1.25.01,2.56.81,3.57l32.03,40.17c.8,1,2.01,1.59,3.3,1.59h51.37c1.28,0,2.5-.58,3.3-1.59l32.03-40.17c.8-1,1.1-2.32.81-3.57l-11.43-50.09c-.29-1.25-1.12-2.3-2.28-2.86L65.26,1.92c-1.16-.56-2.5-.56-3.66,0Z"/>
  </g>
  <g id="sa">
    <path class="cls-1" d="m28.67,38.92l34.2-14.41c.42-.18.89-.18,1.31,0l34.02,14.4c.62.26,1.03.87,1.03,1.55v33.17c0,.55-.09,1.08-.26,1.6-9.59,29.51-35.39,36.84-35.39,36.84,0,0-28.53-7.75-35.86-39.4-.04-.16-.07-.32-.07-.48v-31.72c0-.68.41-1.29,1.03-1.55Z"/>
    <g>
      <ellipse class="cls-3" cx="63.43" cy="51.52" rx="11.79" ry="11.61"/>
      <path class="cls-3" d="m80.29,96.93l-15.86,11.65c-.6.44-1.42.44-2.01,0l-15.86-11.65s-3.42-2.24-3.42-5.01v-15.45c0-2.08.87-3.95,2.19-4.68,3.51-1.94,10.73-5.35,18.09-5.35s14.54,3.43,18.08,5.36c1.34.73,2.21,2.6,2.21,4.69v15.44c0,2.77-3.42,5.01-3.42,5.01Z"/>
    </g>
  </g>
</svg>