<?xml version="1.0" encoding="UTF-8"?>
<svg xmlns="http://www.w3.org/2000/svg" viewBox="0 0 126.86 123.97">
  <defs>
    <style>
      .cls-1, .cls-2 {
        fill: #fff;
      }

      .cls-3 {
        fill: #326ce5;
        stroke: #fff;
        stroke-width: 3px;
      }

      .cls-3, .cls-2 {
        stroke-miterlimit: 10;
      }

      .cls-2 {
        stroke: #326ce5;
        stroke-width: 2px;
      }
    </style>
  </defs>
  <g id="fond">
    <path class="cls-3" d="m61.6,1.92L15.32,24.21c-1.16.56-2,1.61-2.28,2.86L1.61,77.15c-.29,1.25.01,2.56.81,3.57l32.03,40.17c.8,1,2.01,1.59,3.3,1.59h51.37c1.28,0,2.5-.58,3.3-1.59l32.03-40.17c.8-1,1.1-2.32.81-3.57l-11.43-50.09c-.29-1.25-1.12-2.3-2.28-2.86L65.26,1.92c-1.16-.56-2.5-.56-3.66,0Z"/>
  </g>
  <g id="psp">
    <g id="cube">
      <polygon class="cls-1" points="55.44 54.1 21.26 34.37 55.23 14.76 89.41 34.49 55.44 54.1"/>
      <polygon class="cls-1" points="90.15 74.37 55.96 94.1 55.96 54.88 90.15 35.15 90.15 74.37"/>
      <polygon class="cls-1" points="54.87 94.1 20.69 74.37 20.69 35.15 54.87 54.88 54.87 94.1"/>
    </g>
    <path class="cls-2" d="m94.05,67.43h0c0-9.28-6.66-16.83-14.84-16.83s-14.84,7.55-14.84,16.83h0s-2.73,0-2.73,0c-1.66,0-3,1.34-3,3v28.07c0,1.66,1.34,3,3,3h35.13c1.66,0,3-1.34,3-3v-28.07c0-1.66-1.34-3-3-3h-2.73Zm-24.25,0c0-6.29,4.22-11.41,9.41-11.41s9.41,5.12,9.41,11.41h0s-18.82,0-18.82,0h0Z"/>
  </g>
</svg>