<?xml version="1.0" encoding="UTF-8"?>
<svg xmlns="http://www.w3.org/2000/svg" viewBox="0 0 126.86 123.97">
  <defs>
    <style>
      .cls-1, .cls-2 {
        fill: #fff;
      }

      .cls-3 {
        fill: #326ce5;
        stroke: #fff;
        stroke-width: 3px;
      }

      .cls-3, .cls-2 {
        stroke-miterlimit: 10;
      }

      .cls-2 {
        stroke: #326ce5;
      }
    </style>
  </defs>
  <g id="fond">
    <path class="cls-3" d="m61.6,1.92L15.32,24.21c-1.16.56-2,1.61-2.28,2.86L1.61,77.15c-.29,1.25.01,2.56.81,3.57l32.03,40.17c.8,1,2.01,1.59,3.3,1.59h51.37c1.28,0,2.5-.58,3.3-1.59l32.03-40.17c.8-1,1.1-2.32.81-3.57l-11.43-50.09c-.29-1.25-1.12-2.3-2.28-2.86L65.26,1.92c-1.16-.56-2.5-.56-3.66,0Z"/>
  </g>
  <g id="sts">
    <g>
      <rect class="cls-1" x="82.13" y="74.83" width="15.93" height="1.67"/>
      <rect class="cls-1" x="42.47" y="27.98" width="16" height="1.67"/>
      <rect class="cls-1" x="62.03" y="74.83" width="16.54" height="1.67"/>
      <rect class="cls-1" x="42.47" y="74.83" width="16" height="1.67"/>
      <rect class="cls-1" x="62.03" y="27.98" width="16.54" height="1.67"/>
      <rect class="cls-1" x="33.11" y="53.45" width="2.1" height="13.17"/>
      <rect class="cls-1" x="33.11" y="37.87" width="2.1" height="12.74"/>
      <rect class="cls-1" x="105.85" y="53.45" width="2.1" height="13.17"/>
      <polygon class="cls-1" points="38.9 74.83 35.22 74.83 35.22 69.46 33.11 69.46 33.11 76.51 38.9 76.51 38.9 74.83"/>
      <polygon class="cls-1" points="105.85 69.46 105.85 74.83 101.63 74.83 101.63 76.51 107.95 76.51 107.95 69.46 105.85 69.46"/>
      <polygon class="cls-1" points="35.22 35.03 35.22 29.66 38.9 29.66 38.9 27.98 33.11 27.98 33.11 35.03 35.22 35.03"/>
      <rect class="cls-1" x="82.13" y="27.98" width="15.93" height="1.67"/>
      <rect class="cls-1" x="105.85" y="37.87" width="2.1" height="12.74"/>
      <polygon class="cls-1" points="101.63 29.66 105.85 29.66 105.85 35.03 107.95 35.03 107.95 27.98 101.63 27.98 101.63 29.66"/>
    </g>
    <g>
      <rect class="cls-1" x="73.52" y="82.6" width="15.93" height="1.67"/>
      <rect class="cls-1" x="33.86" y="35.75" width="16" height="1.67"/>
      <rect class="cls-1" x="53.42" y="82.6" width="16.54" height="1.67"/>
      <rect class="cls-1" x="33.86" y="82.6" width="16" height="1.67"/>
      <rect class="cls-1" x="53.42" y="35.75" width="16.54" height="1.67"/>
      <rect class="cls-1" x="24.5" y="61.22" width="2.1" height="13.17"/>
      <rect class="cls-1" x="24.5" y="45.64" width="2.1" height="12.74"/>
      <rect class="cls-1" x="97.24" y="61.22" width="2.1" height="13.17"/>
      <polygon class="cls-1" points="30.29 82.6 26.6 82.6 26.6 77.23 24.5 77.23 24.5 84.28 30.29 84.28 30.29 82.6"/>
      <polygon class="cls-1" points="97.24 77.23 97.24 82.6 93.02 82.6 93.02 84.28 99.34 84.28 99.34 77.23 97.24 77.23"/>
      <polygon class="cls-1" points="26.6 42.8 26.6 37.43 30.29 37.43 30.29 35.75 24.5 35.75 24.5 42.8 26.6 42.8"/>
      <rect class="cls-1" x="73.52" y="35.75" width="15.93" height="1.67"/>
      <rect class="cls-1" x="97.24" y="45.64" width="2.1" height="12.74"/>
      <polygon class="cls-1" points="93.02 37.43 97.24 37.43 97.24 42.8 99.34 42.8 99.34 35.75 93.02 35.75 93.02 37.43"/>
    </g>
    <rect class="cls-1" x="17.99" y="44.23" width="72.74" height="46.85" rx="1.32" ry="1.32"/>
    <g>
      <ellipse class="cls-2" cx="54.36" cy="58.51" rx="28.84" ry="5.51"/>
      <path class="cls-2" d="m83.2,76.01c0,.64-.33,1.24-.89,1.57-2.44,1.45-10.27,5.03-27.95,5.03s-25.61-3.57-27.97-5.02c-.54-.33-.86-.92-.86-1.55v-16.15s4.24,5.09,28.84,4.84c25.86-.26,28.84-4.84,28.84-4.84v16.12Z"/>
    </g>
  </g>
</svg>