<?xml version="1.0" encoding="UTF-8"?>
<svg xmlns="http://www.w3.org/2000/svg" viewBox="0 0 126.86 123.97">
  <defs>
    <style>
      .cls-1 {
        fill: #fff;
      }

      .cls-2 {
        fill: #326ce5;
        stroke: #fff;
        stroke-miterlimit: 10;
        stroke-width: 3px;
      }
    </style>
  </defs>
  <g id="fond">
    <path class="cls-2" d="m61.6,1.92L15.32,24.21c-1.16.56-2,1.61-2.28,2.86L1.61,77.15c-.29,1.25.01,2.56.81,3.57l32.03,40.17c.8,1,2.01,1.59,3.3,1.59h51.37c1.28,0,2.5-.58,3.3-1.59l32.03-40.17c.8-1,1.1-2.32.81-3.57l-11.43-50.09c-.29-1.25-1.12-2.3-2.28-2.86L65.26,1.92c-1.16-.56-2.5-.56-3.66,0Z"/>
  </g>
  <g id="pod">
    <g id="cube">
      <polygon class="cls-1" points="63.45 61.69 32.58 43.87 63.26 26.16 94.13 43.98 63.45 61.69"/>
      <polygon class="cls-1" points="94.79 79.99 63.93 97.81 63.93 62.39 94.79 44.57 94.79 79.99"/>
      <polygon class="cls-1" points="62.94 97.81 32.07 79.99 32.07 44.57 62.94 62.39 62.94 97.81"/>
    </g>
  </g>
</svg>