<?xml version="1.0" encoding="UTF-8"?>
<svg xmlns="http://www.w3.org/2000/svg" viewBox="0 0 126.86 123.97">
  <defs>
    <style>
      .cls-1 {
        fill: #fff;
      }

      .cls-2 {
        fill: #326ce5;
        stroke: #fff;
        stroke-miterlimit: 10;
        stroke-width: 3px;
      }

      .cls-3 {
        fill: none;
      }
    </style>
  </defs>
  <g id="fond">
    <path class="cls-2" d="m61.6,1.92L15.32,24.21c-1.16.56-2,1.61-2.28,2.86L1.61,77.15c-.29,1.25.01,2.56.81,3.57l32.03,40.17c.8,1,2.01,1.59,3.3,1.59h51.37c1.28,0,2.5-.58,3.3-1.59l32.03-40.17c.8-1,1.1-2.32.81-3.57l-11.43-50.09c-.29-1.25-1.12-2.3-2.28-2.86L65.26,1.92c-1.16-.56-2.5-.56-3.66,0Z"/>
  </g>
  <g id="sc">
    <path class="cls-1" d="m92.46,70.3c0,.65-.44,1.13-.9,1.58-3.49,3.45-10.29,5.78-28.17,5.78s-23.85-1.95-28.4-5.78c-.49-.41-.87-.93-.87-1.57v-16.33s4.29,5.92,29.17,5.67c26.16-.26,29.17-5.67,29.17-5.67v16.31Z"/>
    <g>
      <path class="cls-3" d="m45.01,74.96c-2.09-.37-3.96-.83-5.47-1.37v2.13c1.37.5,3.15,1.01,5.47,1.46v-2.22Z"/>
      <path class="cls-3" d="m45.01,71.17h-5.47v.9c1.31.49,3.16.98,5.47,1.4v-2.3Z"/>
      <path class="cls-3" d="m45.01,81.87v-3.19c-2.24-.42-4.04-.91-5.47-1.39v4.58h5.47Z"/>
      <path class="cls-3" d="m37.75,71.17c.06.04.11.08.17.12v-.12h-.17Z"/>
      <path class="cls-3" d="m37.93,69.49s-.08.06-.13.09h.13v-.09Z"/>
      <path class="cls-3" d="m62.48,69.58v-3.69c-2.68.02-5.2.1-7.52.25v3.43h7.52Z"/>
      <path class="cls-3" d="m53.34,69.58v-3.31c-2.5.2-4.74.46-6.72.77v2.54h6.72Z"/>
      <path class="cls-3" d="m45.01,69.58v-2.27c-2.31.42-4.15.91-5.47,1.4v.86h5.47Z"/>
      <path class="cls-3" d="m37.93,76.67c-1.03-.44-1.79-.86-2.35-1.22v6.42h2.35v-5.2Z"/>
      <path class="cls-3" d="m35.58,83.49v5.79c0,.35.18.66.49.84.44.26,1.05.58,1.85.93v-7.56h-2.35Z"/>
      <path class="cls-3" d="m72.66,83.49v10.93c2.35-.2,4.43-.46,6.28-.77v-10.17h-6.28Z"/>
      <path class="cls-3" d="m80.55,83.49v9.88c2.42-.47,4.37-1,5.91-1.52v-8.36h-5.91Z"/>
      <path class="cls-3" d="m71.04,69.58v-3.47c-2.16-.13-4.48-.21-6.95-.22v3.69h6.95Z"/>
      <path class="cls-3" d="m88.07,91.25c1.08-.44,1.87-.84,2.42-1.15.32-.18.51-.5.51-.85v-5.77h-2.92v7.76Z"/>
      <path class="cls-3" d="m64.1,83.49v11.3c2.52-.02,4.83-.1,6.95-.24v-11.06h-6.95Z"/>
      <path class="cls-3" d="m39.54,83.49v8.2c1.41.51,3.2,1.03,5.47,1.51v-9.71h-5.47Z"/>
      <path class="cls-3" d="m88.07,76.93v4.94h2.92v-6.34c-.65.42-1.58.91-2.92,1.4Z"/>
      <path class="cls-3" d="m46.63,83.49v10.02c1.93.35,4.16.65,6.72.88v-10.9h-6.72Z"/>
      <path class="cls-3" d="m78.94,71.17h-6.28v3.39c2.3-.17,4.4-.4,6.28-.67v-2.73Z"/>
      <path class="cls-3" d="m71.04,71.17h-6.95v3.72c2.46-.01,4.79-.09,6.95-.22v-3.5Z"/>
      <path class="cls-3" d="m80.55,81.87h5.91v-4.41c-1.54.46-3.48.91-5.91,1.29v3.11Z"/>
      <path class="cls-3" d="m46.63,75.23v2.24c1.91.31,4.14.58,6.72.76v-2.25c-2.31-.18-4.59-.43-6.72-.75Z"/>
      <path class="cls-3" d="m62.48,71.17h-7.52v3.47c2.32.15,4.84.24,7.52.25v-3.72Z"/>
      <path class="cls-3" d="m72.66,81.87h6.28v-2.87c-1.83.25-3.91.47-6.28.63v2.24Z"/>
      <path class="cls-3" d="m54.96,76.09v2.24c2.25.12,4.75.19,7.52.17v-2.14c-2.36-.02-4.94-.1-7.52-.27Z"/>
      <path class="cls-3" d="m64.1,81.87h6.95v-2.14c-2.1.12-4.42.2-6.95.24v1.9Z"/>
      <path class="cls-3" d="m78.94,69.58v-2.69c-1.88-.27-3.97-.5-6.28-.67v3.36h6.28Z"/>
      <path class="cls-3" d="m53.34,71.17h-6.72v2.57c1.97.31,4.22.58,6.72.77v-3.35Z"/>
      <path class="cls-3" d="m46.63,81.87h6.72v-2.16c-2.56-.18-4.78-.44-6.72-.75v2.91Z"/>
      <path class="cls-3" d="m88.07,71.62c.3-.15.55-.3.75-.45h-.75v.45Z"/>
      <path class="cls-3" d="m64.1,76.37v2.13c2.54-.04,4.85-.12,6.95-.24v-2.12c-2.39.14-4.76.22-6.95.23Z"/>
      <path class="cls-3" d="m80.55,71.17v2.48c2.45-.41,4.44-.88,5.91-1.38v-1.1h-5.91Z"/>
      <path class="cls-3" d="m86.46,69.58v-1.07c-1.47-.49-3.46-.97-5.91-1.38v2.45h5.91Z"/>
      <path class="cls-3" d="m88.78,69.58c-.19-.14-.42-.28-.7-.42v.42h.7Z"/>
      <path class="cls-3" d="m72.66,76.02v2.12c2.38-.17,4.46-.39,6.28-.65v-2.12c-2.01.28-4.14.49-6.28.65Z"/>
      <path class="cls-3" d="m54.96,79.8v2.06h7.52v-1.88c-2.76.01-5.26-.05-7.52-.18Z"/>
      <path class="cls-3" d="m80.55,77.26c2.51-.41,4.43-.88,5.91-1.35v-2.12c-1.65.54-3.68.98-5.91,1.34v2.12Z"/>
      <path class="cls-3" d="m54.96,83.49v11.02c2.26.16,4.76.26,7.52.28v-11.3h-7.52Z"/>
      <g>
        <path class="cls-1" d="m79.93,67.81v-1.48c-2.12-.28-4.36-.49-6.61-.65v1.46c2.43.17,4.64.4,6.61.67Z"/>
        <path class="cls-1" d="m44.19,68.24v-1.49c-2.2.37-4.17.83-5.76,1.37v1.52c1.38-.49,3.33-.98,5.76-1.4Z"/>
        <path class="cls-1" d="m62.6,66.82v-1.47c-2.49.02-5.2.1-7.93.27v1.45c2.45-.15,5.1-.24,7.93-.25Z"/>
        <path class="cls-1" d="m52.97,67.19v-1.46c-2.43.18-4.84.43-7.07.75v1.48c2.08-.31,4.44-.58,7.07-.77Z"/>
        <path class="cls-1" d="m71.62,67.04v-1.46c-2.52-.14-5.01-.22-7.32-.23v1.47c2.6.01,5.04.09,7.32.22Z"/>
        <path class="cls-1" d="m36.73,70.41v-1.61c-1.03.5-1.75,1.07-2.09,1.7h1.96s.08-.06.13-.09Z"/>
        <path class="cls-1" d="m90.3,70.5h1.96c-.4-.75-1.35-1.41-2.7-1.98v1.56c.29.14.54.28.74.42Z"/>
        <path class="cls-1" d="m87.85,69.43v-1.52c-1.74-.54-3.88-.98-6.22-1.34v1.48c2.58.41,4.68.88,6.22,1.38Z"/>
      </g>
      <path class="cls-1" d="m64.1,78.49v1.47c2.53-.04,4.84-.12,6.95-.24v-1.48c-2.09.12-4.4.21-6.95.24Z"/>
      <path class="cls-1" d="m72.66,78.15v1.48c2.36-.17,4.44-.38,6.28-.63v-1.49c-1.82.25-3.9.47-6.28.65Z"/>
      <path class="cls-1" d="m46.63,93.51v1.48c1.95.34,4.18.64,6.72.86v-1.47c-2.56-.22-4.78-.53-6.72-.88Z"/>
      <path class="cls-1" d="m80.55,78.75c2.43-.39,4.37-.83,5.91-1.29v-1.55c-1.48.47-3.4.94-5.91,1.35v1.5Z"/>
      <path class="cls-1" d="m36.07,90.12c-.31-.18-.49-.5-.49-.84v-5.79h-1.47v5.79c0,.87.45,1.66,1.21,2.11.57.34,1.42.78,2.6,1.26v-1.59c-.81-.35-1.42-.67-1.85-.93Z"/>
      <path class="cls-1" d="m72.66,94.42v1.47c2.33-.19,4.42-.45,6.28-.76v-1.48c-1.84.31-3.93.57-6.28.77Z"/>
      <path class="cls-1" d="m35.58,75.45c.55.36,1.32.78,2.35,1.22v-1.61c-1.88-.88-3.81-2.61-3.81-2.61v9.42h1.47v-6.42Z"/>
      <path class="cls-1" d="m39.54,91.69v1.55c1.45.49,3.25,1,5.47,1.45v-1.49c-2.26-.47-4.06-1-5.47-1.51Z"/>
      <path class="cls-1" d="m80.55,93.36v1.49c2.38-.45,4.33-.96,5.91-1.47v-1.54c-1.54.52-3.49,1.05-5.91,1.52Z"/>
      <path class="cls-1" d="m91,89.25c0,.35-.19.67-.51.85-.54.31-1.33.71-2.42,1.15v1.57c1.45-.55,2.48-1.06,3.14-1.44.77-.44,1.25-1.26,1.25-2.13v-5.77h-1.47v5.77Z"/>
      <path class="cls-1" d="m54.96,78.33v1.47c2.26.12,4.76.19,7.52.18v-1.47c-2.77.01-5.27-.05-7.52-.17Z"/>
      <path class="cls-1" d="m64.1,94.79v1.47c2.51-.02,4.83-.1,6.95-.24v-1.47c-2.11.14-4.42.23-6.95.24Z"/>
      <path class="cls-1" d="m46.63,77.47v1.48c1.94.31,4.16.57,6.72.75v-1.47c-2.58-.18-4.8-.45-6.72-.76Z"/>
      <path class="cls-1" d="m54.96,94.51v1.47c2.27.16,4.77.26,7.52.27v-1.47c-2.76-.02-5.26-.11-7.52-.28Z"/>
      <path class="cls-1" d="m45.01,77.18c-2.31-.45-4.1-.96-5.47-1.46v1.56c1.43.49,3.23.97,5.47,1.39v-1.49Z"/>
      <path class="cls-1" d="m91,75.52v6.34h1.47v-9.22s-1.97,1.73-4.39,2.69v1.59c1.34-.49,2.28-.98,2.92-1.4Z"/>
    </g>
    <g>
      <path class="cls-3" d="m45.01,37.46c-2.09-.37-3.96-.83-5.47-1.37v2.13c1.37.5,3.15,1.01,5.47,1.46v-2.22Z"/>
      <path class="cls-3" d="m45.01,33.68h-5.47v.9c1.31.49,3.16.98,5.47,1.4v-2.3Z"/>
      <path class="cls-3" d="m45.01,44.37v-3.19c-2.24-.42-4.04-.91-5.47-1.39v4.58h5.47Z"/>
      <path class="cls-3" d="m37.75,33.68c.06.04.11.08.17.12v-.12h-.17Z"/>
      <path class="cls-3" d="m37.93,31.99s-.08.06-.13.09h.13v-.09Z"/>
      <path class="cls-3" d="m62.48,32.08v-3.69c-2.68.02-5.2.1-7.52.25v3.43h7.52Z"/>
      <path class="cls-3" d="m53.34,32.08v-3.31c-2.5.2-4.74.46-6.72.77v2.54h6.72Z"/>
      <path class="cls-3" d="m45.01,32.08v-2.27c-2.31.42-4.15.91-5.47,1.4v.86h5.47Z"/>
      <path class="cls-3" d="m37.93,39.17c-1.03-.44-1.79-.86-2.35-1.22v6.42h2.35v-5.2Z"/>
      <path class="cls-3" d="m35.58,45.99v5.79c0,.35.18.66.49.84.44.26,1.05.58,1.85.93v-7.56h-2.35Z"/>
      <path class="cls-3" d="m72.66,45.99v10.93c2.35-.2,4.43-.46,6.28-.77v-10.17h-6.28Z"/>
      <path class="cls-3" d="m80.55,45.99v9.88c2.42-.47,4.37-1,5.91-1.52v-8.36h-5.91Z"/>
      <path class="cls-3" d="m71.04,32.08v-3.47c-2.16-.13-4.48-.21-6.95-.22v3.69h6.95Z"/>
      <path class="cls-3" d="m88.07,53.75c1.08-.44,1.87-.84,2.42-1.15.32-.18.51-.5.51-.85v-5.77h-2.92v7.76Z"/>
      <path class="cls-3" d="m64.1,45.99v11.3c2.52-.02,4.83-.1,6.95-.24v-11.06h-6.95Z"/>
      <path class="cls-3" d="m39.54,45.99v8.2c1.41.51,3.2,1.03,5.47,1.51v-9.71h-5.47Z"/>
      <path class="cls-3" d="m88.07,39.43v4.94h2.92v-6.34c-.65.42-1.58.91-2.92,1.4Z"/>
      <path class="cls-3" d="m46.63,45.99v10.02c1.93.35,4.16.65,6.72.88v-10.9h-6.72Z"/>
      <path class="cls-3" d="m78.94,33.68h-6.28v3.39c2.3-.17,4.4-.4,6.28-.67v-2.73Z"/>
      <path class="cls-3" d="m71.04,33.68h-6.95v3.72c2.46-.01,4.79-.09,6.95-.22v-3.5Z"/>
      <path class="cls-3" d="m80.55,44.37h5.91v-4.41c-1.54.46-3.48.91-5.91,1.29v3.11Z"/>
      <path class="cls-3" d="m46.63,37.73v2.24c1.91.31,4.14.58,6.72.76v-2.25c-2.31-.18-4.59-.43-6.72-.75Z"/>
      <path class="cls-3" d="m62.48,33.68h-7.52v3.47c2.32.15,4.84.24,7.52.25v-3.72Z"/>
      <path class="cls-3" d="m72.66,44.37h6.28v-2.87c-1.83.25-3.91.47-6.28.63v2.24Z"/>
      <path class="cls-3" d="m54.96,38.6v2.24c2.25.12,4.75.19,7.52.17v-2.14c-2.36-.02-4.94-.1-7.52-.27Z"/>
      <path class="cls-3" d="m64.1,44.37h6.95v-2.14c-2.1.12-4.42.2-6.95.24v1.9Z"/>
      <path class="cls-3" d="m78.94,32.08v-2.69c-1.88-.27-3.97-.5-6.28-.67v3.36h6.28Z"/>
      <path class="cls-3" d="m53.34,33.68h-6.72v2.57c1.97.31,4.22.58,6.72.77v-3.35Z"/>
      <path class="cls-3" d="m46.63,44.37h6.72v-2.16c-2.56-.18-4.78-.44-6.72-.75v2.91Z"/>
      <path class="cls-3" d="m88.07,34.13c.3-.15.55-.3.75-.45h-.75v.45Z"/>
      <path class="cls-3" d="m64.1,38.87v2.13c2.54-.04,4.85-.12,6.95-.24v-2.12c-2.39.14-4.76.22-6.95.23Z"/>
      <path class="cls-3" d="m80.55,33.68v2.48c2.45-.41,4.44-.88,5.91-1.38v-1.1h-5.91Z"/>
      <path class="cls-3" d="m86.46,32.08v-1.07c-1.47-.49-3.46-.97-5.91-1.38v2.45h5.91Z"/>
      <path class="cls-3" d="m88.78,32.08c-.19-.14-.42-.28-.7-.42v.42h.7Z"/>
      <path class="cls-3" d="m72.66,38.52v2.12c2.38-.17,4.46-.39,6.28-.65v-2.12c-2.01.28-4.14.49-6.28.65Z"/>
      <path class="cls-3" d="m54.96,42.31v2.06h7.52v-1.88c-2.76.01-5.26-.05-7.52-.18Z"/>
      <path class="cls-3" d="m80.55,39.76c2.51-.41,4.43-.88,5.91-1.35v-2.12c-1.65.54-3.68.98-5.91,1.34v2.12Z"/>
      <path class="cls-3" d="m54.96,45.99v11.02c2.26.16,4.76.26,7.52.28v-11.3h-7.52Z"/>
      <g>
        <path class="cls-1" d="m79.93,30.31v-1.48c-2.12-.28-4.36-.49-6.61-.65v1.46c2.43.17,4.64.4,6.61.67Z"/>
        <path class="cls-1" d="m44.19,30.74v-1.49c-2.2.37-4.17.83-5.76,1.37v1.52c1.38-.49,3.33-.98,5.76-1.4Z"/>
        <path class="cls-1" d="m62.6,29.32v-1.47c-2.49.02-5.2.1-7.93.27v1.45c2.45-.15,5.1-.24,7.93-.25Z"/>
        <path class="cls-1" d="m52.97,29.69v-1.46c-2.43.18-4.84.43-7.07.75v1.48c2.08-.31,4.44-.58,7.07-.77Z"/>
        <path class="cls-1" d="m71.62,29.54v-1.46c-2.52-.14-5.01-.22-7.32-.23v1.47c2.6.01,5.04.09,7.32.22Z"/>
        <path class="cls-1" d="m36.73,32.91v-1.61c-1.03.5-1.75,1.07-2.09,1.7h1.96s.08-.06.13-.09Z"/>
        <path class="cls-1" d="m90.3,33h1.96c-.4-.75-1.35-1.41-2.7-1.98v1.56c.29.14.54.28.74.42Z"/>
        <path class="cls-1" d="m87.85,31.94v-1.52c-1.74-.54-3.88-.98-6.22-1.34v1.48c2.58.41,4.68.88,6.22,1.38Z"/>
      </g>
      <path class="cls-1" d="m64.1,41v1.47c2.53-.04,4.84-.12,6.95-.24v-1.48c-2.09.12-4.4.21-6.95.24Z"/>
      <path class="cls-1" d="m72.66,40.65v1.48c2.36-.17,4.44-.38,6.28-.63v-1.49c-1.82.25-3.9.47-6.28.65Z"/>
      <path class="cls-1" d="m46.63,56.01v1.48c1.95.34,4.18.64,6.72.86v-1.47c-2.56-.22-4.78-.53-6.72-.88Z"/>
      <path class="cls-1" d="m80.55,41.26c2.43-.39,4.37-.83,5.91-1.29v-1.55c-1.48.47-3.4.94-5.91,1.35v1.5Z"/>
      <path class="cls-1" d="m36.07,52.62c-.31-.18-.49-.5-.49-.84v-5.79h-1.47v5.79c0,.87.45,1.66,1.21,2.11.57.34,1.42.78,2.6,1.26v-1.59c-.81-.35-1.42-.67-1.85-.93Z"/>
      <path class="cls-1" d="m72.66,56.92v1.47c2.33-.19,4.42-.45,6.28-.76v-1.48c-1.84.31-3.93.57-6.28.77Z"/>
      <path class="cls-1" d="m35.58,37.95c.55.36,1.32.78,2.35,1.22v-1.61c-1.88-.88-2.48-1.58-2.49-1.59l-1.32-1.76v10.16h1.47v-6.42Z"/>
      <path class="cls-1" d="m39.54,54.19v1.55c1.45.49,3.25,1,5.47,1.45v-1.49c-2.26-.47-4.06-1-5.47-1.51Z"/>
      <path class="cls-1" d="m80.55,55.87v1.49c2.38-.45,4.33-.96,5.91-1.47v-1.54c-1.54.52-3.49,1.05-5.91,1.52Z"/>
      <path class="cls-1" d="m91,51.75c0,.35-.19.67-.51.85-.54.31-1.33.71-2.42,1.15v1.57c1.45-.55,2.48-1.06,3.14-1.44.77-.44,1.25-1.26,1.25-2.13v-5.77h-1.47v5.77Z"/>
      <path class="cls-1" d="m54.96,40.84v1.47c2.26.12,4.76.19,7.52.18v-1.47c-2.77.01-5.27-.05-7.52-.17Z"/>
      <path class="cls-1" d="m64.1,57.29v1.47c2.51-.02,4.83-.1,6.95-.24v-1.47c-2.11.14-4.42.23-6.95.24Z"/>
      <path class="cls-1" d="m46.63,39.97v1.48c1.94.31,4.16.57,6.72.75v-1.47c-2.58-.18-4.8-.45-6.72-.76Z"/>
      <path class="cls-1" d="m54.96,57.01v1.47c2.27.16,4.77.26,7.52.27v-1.47c-2.76-.02-5.26-.11-7.52-.28Z"/>
      <path class="cls-1" d="m45.01,39.69c-2.31-.45-4.1-.96-5.47-1.46v1.56c1.43.49,3.23.97,5.47,1.39v-1.49Z"/>
      <path class="cls-1" d="m91,38.03v6.34h1.47v-10.69l-1.37,2.37s-.6.83-3.02,1.8v1.59c1.34-.49,2.28-.98,2.92-1.4Z"/>
    </g>
  </g>
</svg>