<?xml version="1.0" encoding="UTF-8"?>
<svg xmlns="http://www.w3.org/2000/svg" viewBox="0 0 126.86 123.97">
  <defs>
    <style>
      .cls-1 {
        fill: #fff;
      }

      .cls-2 {
        fill: #326ce5;
        stroke: #fff;
        stroke-miterlimit: 10;
        stroke-width: 3px;
      }

      .cls-3 {
        fill: none;
      }
    </style>
  </defs>
  <g id="fond">
    <path class="cls-2" d="m61.6,1.92L15.32,24.21c-1.16.56-2,1.61-2.28,2.86L1.61,77.15c-.29,1.25.01,2.56.81,3.57l32.03,40.17c.8,1,2.01,1.59,3.3,1.59h51.37c1.28,0,2.5-.58,3.3-1.59l32.03-40.17c.8-1,1.1-2.32.81-3.57l-11.43-50.09c-.29-1.25-1.12-2.3-2.28-2.86L65.26,1.92c-1.16-.56-2.5-.56-3.66,0Z"/>
  </g>
  <g id="ns">
    <g>
      <rect class="cls-3" x="43.33" y="54.77" width="17.94" height="14.19"/>
      <rect class="cls-3" x="65.09" y="54.77" width="17.9" height="14.19"/>
      <rect class="cls-1" x="76.16" y="87.74" width="6.83" height="1.91"/>
      <rect class="cls-1" x="86.8" y="87.74" width="6.83" height="1.91"/>
      <rect class="cls-1" x="43.33" y="34.32" width="6.87" height="1.91"/>
      <rect class="cls-1" x="32.65" y="34.32" width="6.87" height="1.91"/>
      <rect class="cls-1" x="65.09" y="87.74" width="7.16" height="1.91"/>
      <rect class="cls-1" x="54.11" y="87.74" width="7.16" height="1.91"/>
      <rect class="cls-1" x="32.65" y="87.74" width="6.87" height="1.91"/>
      <rect class="cls-1" x="43.33" y="87.74" width="6.87" height="1.91"/>
      <rect class="cls-1" x="65.09" y="34.32" width="7.16" height="1.91"/>
      <rect class="cls-1" x="54.11" y="34.32" width="7.16" height="1.91"/>
      <rect class="cls-1" x="22.39" y="72.78" width="2.31" height="5.6"/>
      <rect class="cls-1" x="22.39" y="63.36" width="2.31" height="5.6"/>
      <rect class="cls-1" x="22.39" y="45.6" width="2.31" height="5.36"/>
      <rect class="cls-1" x="22.39" y="54.77" width="2.31" height="5.36"/>
      <rect class="cls-1" x="102.17" y="72.78" width="2.31" height="5.6"/>
      <rect class="cls-1" x="102.17" y="63.36" width="2.31" height="5.6"/>
      <polygon class="cls-1" points="24.7 81.61 22.39 81.61 22.39 89.65 28.74 89.65 28.74 87.74 24.7 87.74 24.7 81.61"/>
      <polygon class="cls-1" points="102.17 87.74 97.54 87.74 97.54 89.65 104.47 89.65 104.47 81.61 102.17 81.61 102.17 87.74"/>
      <polygon class="cls-1" points="24.7 36.23 28.74 36.23 28.74 34.32 22.39 34.32 22.39 42.36 24.7 42.36 24.7 36.23"/>
      <rect class="cls-1" x="76.16" y="34.32" width="6.83" height="1.91"/>
      <rect class="cls-1" x="86.8" y="34.32" width="6.83" height="1.91"/>
      <rect class="cls-1" x="102.17" y="54.77" width="2.31" height="5.36"/>
      <rect class="cls-1" x="102.17" y="45.6" width="2.31" height="5.36"/>
      <polygon class="cls-1" points="102.17 42.36 104.47 42.36 104.47 34.32 97.54 34.32 97.54 36.23 102.17 36.23 102.17 42.36"/>
    </g>
  </g>
</svg>