<?xml version="1.0" encoding="UTF-8"?>
<svg xmlns="http://www.w3.org/2000/svg" viewBox="0 0 126.86 123.97">
  <defs>
    <style>
      .cls-1 {
        fill: #fff;
      }

      .cls-2 {
        stroke: #fff;
        stroke-miterlimit: 10;
        stroke-width: 3px;
      }

      .cls-2, .cls-3 {
        fill: #326ce5;
      }
    </style>
  </defs>
  <g id="fond">
    <path class="cls-2" d="m61.6,1.92L15.32,24.21c-1.16.56-2,1.61-2.28,2.86L1.61,77.15c-.29,1.25.01,2.56.81,3.57l32.03,40.17c.8,1,2.01,1.59,3.3,1.59h51.37c1.28,0,2.5-.58,3.3-1.59l32.03-40.17c.8-1,1.1-2.32.81-3.57l-11.43-50.09c-.29-1.25-1.12-2.3-2.28-2.86L65.26,1.92c-1.16-.56-2.5-.56-3.66,0Z"/>
  </g>
  <g id="user">
    <rect class="cls-1" x="30.93" y="29.49" width="65" height="65" rx="3.74" ry="3.74"/>
    <g>
      <circle class="cls-3" cx="63.43" cy="50.33" r="11.9"/>
      <path class="cls-3" d="m82.66,89.67h-38.46c-2.15,0-3.9-1.63-3.9-3.63v-11.21c0-1.51.99-2.86,2.5-3.39,4-1.4,12.24-3.88,20.63-3.88s16.58,2.48,20.62,3.89c1.52.53,2.52,1.88,2.52,3.4v11.19c0,2.01-1.75,3.63-3.9,3.63Z"/>
    </g>
  </g>
</svg>