<?xml version="1.0" encoding="UTF-8"?>
<svg xmlns="http://www.w3.org/2000/svg" viewBox="0 0 126.86 123.97">
  <defs>
    <style>
      .cls-1 {
        fill: #fff;
      }

      .cls-2 {
        fill: #326ce5;
        stroke: #fff;
        stroke-miterlimit: 10;
        stroke-width: 3px;
      }
    </style>
  </defs>
  <g id="fond">
    <path class="cls-2" d="m61.6,1.92L15.32,24.21c-1.16.56-2,1.61-2.28,2.86L1.61,77.15c-.29,1.25.01,2.56.81,3.57l32.03,40.17c.8,1,2.01,1.59,3.3,1.59h51.37c1.28,0,2.5-.58,3.3-1.59l32.03-40.17c.8-1,1.1-2.32.81-3.57l-11.43-50.09c-.29-1.25-1.12-2.3-2.28-2.86L65.26,1.92c-1.16-.56-2.5-.56-3.66,0Z"/>
  </g>
  <g id="pv">
    <g>
      <ellipse class="cls-1" cx="63.43" cy="49.96" rx="36.6" ry="7.13"/>
      <path class="cls-1" d="m100.76,72.6c0,.83-.43,1.6-1.15,2.03-3.16,1.87-13.29,6.51-36.17,6.51s-33.15-4.62-36.21-6.49c-.7-.43-1.12-1.19-1.12-2.01v-20.9s5.48,7.58,37.33,7.25c33.47-.34,37.33-7.25,37.33-7.25v20.87Z"/>
    </g>
  </g>
</svg>