<?xml version="1.0" encoding="UTF-8"?>
<svg xmlns="http://www.w3.org/2000/svg" viewBox="0 0 126.86 123.97">
  <defs>
    <style>
      .cls-1 {
        fill: #fff;
      }

      .cls-2 {
        fill: none;
      }

      .cls-2, .cls-3 {
        stroke: #fff;
        stroke-miterlimit: 10;
        stroke-width: 3px;
      }

      .cls-3 {
        fill: #326ce5;
      }
    </style>
  </defs>
  <g id="fond">
    <path class="cls-3" d="m61.6,1.92L15.32,24.21c-1.16.56-2,1.61-2.28,2.86L1.61,77.15c-.29,1.25.01,2.56.81,3.57l32.03,40.17c.8,1,2.01,1.59,3.3,1.59h51.37c1.28,0,2.5-.58,3.3-1.59l32.03-40.17c.8-1,1.1-2.32.81-3.57l-11.43-50.09c-.29-1.25-1.12-2.3-2.28-2.86L65.26,1.92c-1.16-.56-2.5-.56-3.66,0Z"/>
  </g>
  <g id="svc">
    <rect class="cls-1" x="45.92" y="32.9" width="35.03" height="16.58"/>
    <rect class="cls-1" x="51.94" y="71.83" width="22.99" height="13.76"/>
    <rect class="cls-1" x="80.95" y="71.83" width="22.99" height="13.76"/>
    <rect class="cls-1" x="22.93" y="71.83" width="22.99" height="13.76"/>
    <path class="cls-1" d="m61.93,42.35v36.36c0,1.93,3,1.93,3,0v-36.36c0-1.93-3-1.93-3,0h0Z"/>
    <path class="cls-1" d="m34.43,62.03h58.01c1.93,0,1.93-3,0-3h-58.01c-1.93,0-1.93,3,0,3h0Z"/>
    <line class="cls-2" x1="34.43" y1="78.71" x2="34.43" y2="60.53"/>
    <line class="cls-2" x1="92.44" y1="78.71" x2="92.44" y2="60.53"/>
  </g>
</svg>