<?xml version="1.0" encoding="UTF-8"?>
<svg xmlns="http://www.w3.org/2000/svg" viewBox="0 0 126.86 123.97">
  <defs>
    <style>
      .cls-1 {
        fill: #fff;
      }

      .cls-2 {
        stroke-width: 3px;
      }

      .cls-2, .cls-3 {
        fill: #326ce5;
        stroke: #fff;
        stroke-miterlimit: 10;
      }

      .cls-3 {
        stroke-width: 2px;
      }
    </style>
  </defs>
  <g id="fond">
    <path class="cls-2" d="m61.6,1.92L15.32,24.21c-1.16.56-2,1.61-2.28,2.86L1.61,77.15c-.29,1.25.01,2.56.81,3.57l32.03,40.17c.8,1,2.01,1.59,3.3,1.59h51.37c1.28,0,2.5-.58,3.3-1.59l32.03-40.17c.8-1,1.1-2.32.81-3.57l-11.43-50.09c-.29-1.25-1.12-2.3-2.28-2.86L65.26,1.92c-1.16-.56-2.5-.56-3.66,0Z"/>
  </g>
  <g id="group">
    <rect class="cls-1" x="30.93" y="29.49" width="65" height="65" rx="3.74" ry="3.74"/>
    <g>
      <circle class="cls-3" cx="68.27" cy="54.49" r="7"/>
      <path class="cls-3" d="m82.93,76.48h-29.33c-1.64,0-2.97-.96-2.97-2.14v-6.59c0-.89.75-1.68,1.91-1.99,3.05-.83,9.33-2.28,15.73-2.28s12.64,1.46,15.72,2.29c1.16.31,1.92,1.11,1.92,2v6.58c0,1.18-1.33,2.14-2.97,2.14Z"/>
    </g>
    <g>
      <circle class="cls-3" cx="58.6" cy="54.49" r="7"/>
      <path class="cls-3" d="m73.26,76.48h-29.33c-1.64,0-2.97-.96-2.97-2.14v-6.59c0-.89.75-1.68,1.91-1.99,3.05-.83,9.33-2.28,15.73-2.28s12.64,1.46,15.72,2.29c1.16.31,1.92,1.11,1.92,2v6.58c0,1.18-1.33,2.14-2.97,2.14Z"/>
    </g>
  </g>
</svg>