<?xml version="1.0" encoding="UTF-8"?>
<svg xmlns="http://www.w3.org/2000/svg" viewBox="0 0 126.86 123.97">
  <defs>
    <style>
      .cls-1 {
        fill: #fff;
      }

      .cls-2 {
        fill: #326ce5;
        stroke: #fff;
        stroke-miterlimit: 10;
        stroke-width: 3px;
      }
    </style>
  </defs>
  <g id="fond">
    <path class="cls-2" d="m61.6,1.92L15.32,24.21c-1.16.56-2,1.61-2.28,2.86L1.61,77.15c-.29,1.25.01,2.56.81,3.57l32.03,40.17c.8,1,2.01,1.59,3.3,1.59h51.37c1.28,0,2.5-.58,3.3-1.59l32.03-40.17c.8-1,1.1-2.32.81-3.57l-11.43-50.09c-.29-1.25-1.12-2.3-2.28-2.86L65.26,1.92c-1.16-.56-2.5-.56-3.66,0Z"/>
  </g>
  <g id="job">
    <rect class="cls-1" x="32.24" y="53.98" width="17.58" height="17.58"/>
    <rect class="cls-1" x="32.24" y="76.14" width="17.58" height="17.58"/>
    <rect class="cls-1" x="54.65" y="53.98" width="17.58" height="17.58"/>
    <rect class="cls-1" x="54.65" y="76.14" width="17.58" height="17.58"/>
    <rect class="cls-1" x="77.04" y="53.98" width="17.58" height="17.58"/>
    <rect class="cls-1" x="77.04" y="76.14" width="17.58" height="17.58"/>
    <rect class="cls-1" x="77.04" y="31.83" width="17.58" height="17.58"/>
  </g>
</svg>