<?xml version="1.0" encoding="UTF-8"?>
<svg id="pki_x509" xmlns="http://www.w3.org/2000/svg" viewBox="0 0 140.99 121.86">
  <defs>
    <style>
      .cls-1, .cls-2 {
        fill: #fff;
      }

      .cls-3, .cls-4 {
        fill: #4f5aa2;
      }

      .cls-2 {
        stroke: #fff;
        stroke-width: .5px;
      }

      .cls-2, .cls-4, .cls-5 {
        stroke-miterlimit: 10;
      }

      .cls-6 {
        fill: #71a9e1;
      }

      .cls-4, .cls-5 {
        stroke: gray;
      }

      .cls-7 {
        fill: gray;
      }

      .cls-5 {
        fill: #e6e6e6;
        stroke-width: .25px;
      }
    </style>
  </defs>
  <g id="fond">
    <path class="cls-6" d="m117.02,4.32s-45.41-.32-46.45,0c-30.45.64-54.84,26-54.84,56.61s25.14,56.14,56.14,56.14,56.14-25.14,56.14-56.14V15.32c0-6.08-4.92-11-11-11Zm-2.84,19.99c-3.5,0-6.33-2.83-6.33-6.33s2.83-6.33,6.33-6.33,6.33,2.83,6.33,6.33-2.83,6.33-6.33,6.33Z"/>
    <circle class="cls-1" cx="72.35" cy="60.93" r="41.83"/>
  </g>
  <path class="cls-7" d="m47.84,48.26c-2-1.03-3.21-2.49-3.51-4.22-.37-2.16.75-4.39,3.17-6.29,2.24-1.76,5.37-3.06,8.83-3.65,1.74-.3,5.84-.54,8.61,1.02l-1.73,1.11c-1.5-.08-4.95-.44-6.54-.16-3.13.54-5.94,1.69-7.93,3.25-1.81,1.42-2.67,2.98-2.43,4.38.24,1.37,1.46,2.27,2.45,2.78l-.92,1.78Z"/>
  <g id="clef1">
    <path class="cls-6" d="m75.66,90.78l.37-28.64.95-.95v-8.56s5.63.02,5.63.02c1.1,0,2-.89,2.01-1.99l.06-13.61c0-1.1-.89-2-1.99-2.01l-20.21-.08c-1.1,0-2,.89-2.01,1.99l-.06,13.61c0,1.1.89,2,1.99,2.01l5.15.02v8.59s.78.79.78.79l-.37,28.72,1.32,1.35,5.04.06,1.35-1.32Zm.79-49.29l-8.66-.32c-1.13-.04-1.99-1.08-1.76-2.25.18-.91,1.07-1.52,2-1.48l8.46.31c.93.03,1.77.7,1.88,1.62.15,1.18-.79,2.15-1.92,2.11Z"/>
    <circle class="cls-1" cx="74.03" cy="63.94" r="1.21"/>
    <circle class="cls-1" cx="73.96" cy="69.53" r="1.21"/>
    <circle class="cls-1" cx="73.9" cy="75.08" r="1.21"/>
    <circle class="cls-1" cx="73.74" cy="80.84" r="1.21"/>
    <circle class="cls-1" cx="73.68" cy="86.26" r="1.21"/>
    <polygon class="cls-1" points="68.72 89.21 69.24 57.49 69.74 57 70.74 57.01 71.23 57.52 70.68 91.16 68.72 89.21"/>
  </g>
  <path class="cls-5" d="m57.11,52.09c-1.2-.45-2.02-1.56-2.02-2.83v-1.92c0-2.39-1.94-4.33-4.33-4.33h-.82c-2.39,0-4.33,1.94-4.33,4.33v1.86c0,1.29-.83,2.4-2.04,2.84-8.14,2.98-13.75,11.2-12.69,20.58,1,8.93,8.23,16.14,17.16,17.14,11.79,1.31,21.77-7.88,21.77-19.4,0-8.38-5.28-15.5-12.69-18.27Zm-6.73-1.42c-1.42,0-2.57-1.15-2.57-2.57s1.15-2.57,2.57-2.57,2.57,1.15,2.57,2.57-1.15,2.57-2.57,2.57Z"/>
  <circle class="cls-4" cx="50.46" cy="70.3" r="17.11"/>
  <g>
    <path class="cls-2" d="m41.6,73.64l-1.03-1.62c-.42-.62-.68-1.02-.94-1.45h-.02c-.23.42-.46.82-.88,1.46l-.97,1.61h-1.2l2.47-3.71-2.37-3.62h1.21l1.07,1.72c.3.48.53.85.74,1.24h.04c.23-.43.43-.77.73-1.24l1.1-1.72h1.2l-2.46,3.57,2.52,3.76h-1.21Z"/>
    <path class="cls-2" d="m43.92,73.07c0-.4.3-.69.72-.69s.71.28.71.69-.28.69-.72.69c-.42,0-.71-.29-.71-.69Z"/>
    <path class="cls-2" d="m51.15,67.37h-2.97l-.3,1.82c.18-.02.35-.04.64-.04.6,0,1.2.12,1.68.38.61.32,1.12.92,1.12,1.82,0,1.38-1.21,2.42-2.9,2.42-.85,0-1.57-.22-1.94-.44l.26-.73c.32.17.96.39,1.67.39,1,0,1.85-.59,1.85-1.53-.01-.91-.68-1.57-2.24-1.57-.44,0-.79.04-1.08.08l.5-3.39h3.73v.8Z"/>
    <path class="cls-2" d="m58.01,70.03c0,2.4-.98,3.73-2.71,3.73-1.52,0-2.55-1.29-2.58-3.63,0-2.37,1.13-3.68,2.71-3.68s2.58,1.33,2.58,3.58Zm-4.23.11c0,1.84.62,2.88,1.58,2.88,1.08,0,1.59-1.14,1.59-2.95s-.49-2.88-1.58-2.88c-.92,0-1.59,1.02-1.59,2.95Z"/>
    <path class="cls-2" d="m59.78,72.96c.23.02.49,0,.85-.03.61-.08,1.19-.3,1.63-.69.52-.42.89-1.04,1.03-1.88h-.04c-.43.48-1.06.76-1.83.76-1.4,0-2.3-.96-2.3-2.17,0-1.34,1.07-2.51,2.66-2.51s2.58,1.17,2.58,2.98c0,1.56-.58,2.64-1.34,3.32-.6.53-1.43.86-2.27.95-.38.05-.72.07-.97.05v-.78Zm.38-4.07c0,.88.59,1.5,1.5,1.5.71,0,1.26-.32,1.54-.74.06-.09.1-.2.1-.35,0-1.21-.49-2.13-1.59-2.13-.9,0-1.54.72-1.54,1.72Z"/>
  </g>
  <g id="clef1-2" data-name="clef1">
    <path class="cls-3" d="m110.54,70.27l-20.33-20.18-.02-1.34-6.14-5.96,3.92-4.02c.77-.79.76-2.06-.03-2.83l-9.74-9.51c-.79-.77-2.06-.76-2.83.03l-14.12,14.47c-.77.79-.76,2.06.03,2.83l9.74,9.51c.79.77,2.06.76,2.83-.03l3.6-3.69,6.16,5.98,1.12-.02,20.38,20.24h1.89s3.55-3.58,3.55-3.58v-1.89Zm-34.87-34.85l-6.25,6.01c-.82.79-2.17.68-2.84-.3-.53-.77-.35-1.82.32-2.47l6.11-5.87c.67-.64,1.73-.78,2.48-.22.95.71,1,2.06.18,2.85Z"/>
    <circle class="cls-1" cx="90.13" cy="52.78" r="1.21"/>
    <circle class="cls-1" cx="94.09" cy="56.72" r="1.21"/>
    <circle class="cls-1" cx="98.04" cy="60.62" r="1.21"/>
    <circle class="cls-1" cx="102.06" cy="64.74" r="1.21"/>
    <circle class="cls-1" cx="105.92" cy="68.55" r="1.21"/>
    <polygon class="cls-1" points="104.59 74.17 82.15 51.74 82.15 51.03 82.85 50.33 83.56 50.33 107.35 74.12 104.59 74.17"/>
  </g>
  <path class="cls-7" d="m52.45,48.81c-2.34,0-4.47-.67-4.51-.68,0,0,0,0,0,0-.19-.21.21-1.54.62-1.75,0,0,0,0,0,0,.05.01,4.51.89,7.5.12s5.95-1.69,7.93-3.25c1.81-1.42,2.7-2.69,2.46-4.1,0,0,0,0,0-.01,0,0,1.35-1.54,1.4-1.38,1.11,3.46-.22,5.17-2.63,7.06-2.24,1.76-5.37,3.06-8.83,3.65-1.34.23-2.67.35-3.95.35Z"/>
</svg>